SplineFontDB: 3.2
FontName: mlyalm58
FullName: mlyalm58
FamilyName: mlyalm58
Weight: Regular
Copyright: Copyright 2019 The Baloo 2 Project Authors (https://github.com/EkType/Baloo2)
Version: 1.000
ItalicAngle: 0
UnderlinePosition: -125
UnderlineWidth: 50
Ascent: 800
Descent: 200
InvalidEm: 0
sfntRevision: 0x0001b333
LayerCount: 2
Layer: 0 1 "Back" 1
Layer: 1 1 "Fore" 0
XUID: [1021 467 -1121320856 3482355]
StyleMap: 0x0040
FSType: 0
OS2Version: 4
OS2_WeightWidthSlopeOnly: 0
OS2_UseTypoMetrics: 1
CreationTime: 1584609333
ModificationTime: 1672805413
PfmFamily: 81
TTFWeight: 400
TTFWidth: 5
LineGap: 0
VLineGap: 0
Panose: 0 0 0 0 0 0 0 0 0 0
OS2TypoAscent: 1078
OS2TypoAOffset: 0
OS2TypoDescent: -392
OS2TypoDOffset: 0
OS2TypoLinegap: 0
OS2WinAscent: 1050
OS2WinAOffset: 0
OS2WinDescent: 390
OS2WinDOffset: 0
HheadAscent: 1078
HheadAOffset: 0
HheadDescent: -392
HheadDOffset: 0
OS2SubXSize: 650
OS2SubYSize: 600
OS2SubXOff: 0
OS2SubYOff: 75
OS2SupXSize: 650
OS2SupYSize: 600
OS2SupXOff: 0
OS2SupYOff: 350
OS2StrikeYSize: 50
OS2StrikeYPos: 276
OS2CapHeight: 602
OS2XHeight: 460
OS2Vendor: 'EKTF'
OS2CodePages: 20000193.00000000
OS2UnicodeRanges: a080007f.4000207b.00000000.00000000
Lookup: 4 0 0 "'akhn' Akhand in Malay+AQEA-lam2 lookup 0" { "'akhn' Akhand in Malay+AQEA-lam2 lookup 0 subtable"  } ['akhn' ('mlm2' <'dflt' > ) ]
Lookup: 4 0 0 "'akhn' Akhand lookup 1" { "'akhn' Akhand lookup 1 subtable"  } ['akhn' ('mlm2' <'dflt' > 'mlym' <'dflt' > ) ]
Lookup: 4 0 0 "'akhn' Akhand in Malay+AQEA-lam lookup 2" { "'akhn' Akhand in Malay+AQEA-lam lookup 2 subtable"  } ['akhn' ('mlym' <'dflt' > ) ]
Lookup: 4 0 0 "'haln' Halant Forms lookup 3" { "'haln' Halant Forms lookup 3 subtable"  } ['haln' ('DFLT' <'dflt' > 'latn' <'AZE ' 'CAT ' 'CRT ' 'KAZ ' 'MOL ' 'NLD ' 'ROM ' 'TAT ' 'TRK ' 'dflt' > 'mlm2' <'MAL ' 'dflt' > 'mlym' <'MAL ' 'dflt' > ) ]

StartChar: .notdef
Encoding: 65536 -1 0
Width: 645
Flags: W
LayerCount: 2
Fore
SplineSet
159 0 m 2,0,1
 131 0 131 0 115 16 c 128,-1,2
 99 32 99 32 99 60 c 2,3,-1
 99 589 l 2,4,5
 99 617 99 617 114.5 633 c 128,-1,6
 130 649 130 649 158 649 c 2,7,-1
 486 649 l 2,8,9
 515 649 515 649 530.5 633 c 128,-1,10
 546 617 546 617 546 589 c 2,11,-1
 546 60 l 2,12,13
 546 32 546 32 530.5 16 c 128,-1,14
 515 0 515 0 486 0 c 2,15,-1
 159 0 l 2,0,1
180 68 m 1,16,-1
 466 68 l 1,17,-1
 466 581 l 1,18,-1
 180 581 l 1,19,-1
 180 68 l 1,16,-1
EndSplineSet
EndChar

StartChar: exclam
Encoding: 33 33 4
Width: 250
Flags: W
LayerCount: 2
Fore
SplineSet
164 582 m 0,0,1
 164 552 164 552 163.5 503.5 c 128,-1,2
 163 455 163 455 161.5 398.5 c 128,-1,3
 160 342 160 342 158 286.5 c 128,-1,4
 156 231 156 231 154 187 c 1,5,6
 148 183 148 183 139.5 180 c 128,-1,7
 131 177 131 177 121 177 c 0,8,9
 107 177 107 177 98 183 c 128,-1,10
 89 189 89 189 88 202 c 0,11,12
 86 231 86 231 84 282 c 128,-1,13
 82 333 82 333 81 393.5 c 128,-1,14
 80 454 80 454 79.5 512 c 128,-1,15
 79 570 79 570 79 612 c 1,16,17
 100 625 100 625 124 625 c 0,18,19
 143 625 143 625 153.5 614.5 c 128,-1,20
 164 604 164 604 164 582 c 0,0,1
66 45 m 256,21,22
 66 69 66 69 81 85 c 128,-1,23
 96 101 96 101 122 101 c 256,24,25
 148 101 148 101 163 85 c 128,-1,26
 178 69 178 69 178 45 c 256,27,28
 178 21 178 21 163 5 c 128,-1,29
 148 -11 148 -11 122 -11 c 256,30,31
 96 -11 96 -11 81 5 c 128,-1,32
 66 21 66 21 66 45 c 256,21,22
EndSplineSet
EndChar

StartChar: quotedbl
Encoding: 34 34 5
Width: 270
Flags: W
LayerCount: 2
Fore
SplineSet
101 418 m 1,0,1
 94 415 94 415 86.5 413.5 c 128,-1,2
 79 412 79 412 70 412 c 0,3,4
 55 412 55 412 46.5 419 c 128,-1,5
 38 426 38 426 37 441 c 2,6,-1
 31 615 l 1,7,8
 49 625 49 625 70 625 c 0,9,10
 88 625 88 625 97.5 615.5 c 128,-1,11
 107 606 107 606 107 586 c 0,12,13
 107 569 107 569 106 538 c 128,-1,14
 105 507 105 507 103.5 474.5 c 128,-1,15
 102 442 102 442 101 418 c 1,0,1
234 418 m 1,16,17
 227 415 227 415 218.5 413.5 c 128,-1,18
 210 412 210 412 202 412 c 0,19,20
 186 412 186 412 178.5 419 c 128,-1,21
 171 426 171 426 170 441 c 2,22,-1
 163 615 l 1,23,24
 172 620 172 620 181.5 622.5 c 128,-1,25
 191 625 191 625 203 625 c 0,26,27
 221 625 221 625 230 615.5 c 128,-1,28
 239 606 239 606 239 585 c 0,29,30
 239 569 239 569 238 538 c 128,-1,31
 237 507 237 507 236 474.5 c 128,-1,32
 235 442 235 442 234 418 c 1,16,17
EndSplineSet
EndChar

StartChar: numbersign
Encoding: 35 35 6
Width: 667
Flags: W
LayerCount: 2
Fore
SplineSet
566 162 m 2,0,-1
 49 162 l 1,1,2
 47 168 47 168 45 175.5 c 128,-1,3
 43 183 43 183 43 191 c 0,4,5
 43 208 43 208 51.5 216 c 128,-1,6
 60 224 60 224 76 224 c 2,7,-1
 594 224 l 1,8,9
 596 218 596 218 598 210.5 c 128,-1,10
 600 203 600 203 600 194 c 0,11,12
 600 178 600 178 591.5 170 c 128,-1,13
 583 162 583 162 566 162 c 2,0,-1
596 396 m 2,14,-1
 79 396 l 1,15,16
 77 402 77 402 74.5 409 c 128,-1,17
 72 416 72 416 72 425 c 0,18,19
 72 442 72 442 81 450 c 128,-1,20
 90 458 90 458 106 458 c 2,21,-1
 624 458 l 1,22,23
 626 452 626 452 628 444.5 c 128,-1,24
 630 437 630 437 630 428 c 0,25,26
 630 412 630 412 621.5 404 c 128,-1,27
 613 396 613 396 596 396 c 2,14,-1
307 532 m 2,28,-1
 195 -3 l 1,29,30
 190 -4 190 -4 183.5 -4.5 c 128,-1,31
 177 -5 177 -5 170 -5 c 0,32,33
 154 -5 154 -5 144.5 3 c 128,-1,34
 135 11 135 11 135 27 c 0,35,36
 135 37 135 37 138 51.5 c 128,-1,37
 141 66 141 66 144 76 c 2,38,-1
 256 611 l 1,39,40
 261 612 261 612 268 612.5 c 128,-1,41
 275 613 275 613 281 613 c 0,42,43
 297 613 297 613 306.5 605.5 c 128,-1,44
 316 598 316 598 316 581 c 0,45,46
 316 571 316 571 312.5 557 c 128,-1,47
 309 543 309 543 307 532 c 2,28,-1
523 532 m 2,48,-1
 411 -3 l 1,49,50
 406 -4 406 -4 399.5 -4.5 c 128,-1,51
 393 -5 393 -5 386 -5 c 0,52,53
 370 -5 370 -5 360.5 3 c 128,-1,54
 351 11 351 11 351 27 c 0,55,56
 351 37 351 37 354 51.5 c 128,-1,57
 357 66 357 66 359 76 c 2,58,-1
 472 611 l 1,59,60
 477 612 477 612 484 612.5 c 128,-1,61
 491 613 491 613 497 613 c 0,62,63
 513 613 513 613 522.5 605.5 c 128,-1,64
 532 598 532 598 532 581 c 0,65,66
 532 571 532 571 528.5 557 c 128,-1,67
 525 543 525 543 523 532 c 2,48,-1
EndSplineSet
EndChar

StartChar: dollar
Encoding: 36 36 7
Width: 522
Flags: W
LayerCount: 2
Fore
SplineSet
221 25 m 1,0,-1
 294 25 l 1,1,-1
 294 -89 l 1,2,3
 290 -90 290 -90 281.5 -92 c 128,-1,4
 273 -94 273 -94 262 -94 c 0,5,6
 243 -94 243 -94 232 -85.5 c 128,-1,7
 221 -77 221 -77 221 -61 c 2,8,-1
 221 25 l 1,0,-1
294 568 m 1,9,-1
 221 568 l 1,10,-1
 221 697 l 1,11,12
 226 699 226 699 235 700.5 c 128,-1,13
 244 702 244 702 254 702 c 0,14,15
 274 702 274 702 284 693.5 c 128,-1,16
 294 685 294 685 294 669 c 2,17,-1
 294 568 l 1,9,-1
257 55 m 0,18,19
 324 55 324 55 358.5 85.5 c 128,-1,20
 393 116 393 116 393 164 c 0,21,22
 393 205 393 205 366.5 232 c 128,-1,23
 340 259 340 259 283 275 c 2,24,-1
 196 301 l 2,25,26
 154 314 154 314 123 334.5 c 128,-1,27
 92 355 92 355 75.5 385.5 c 128,-1,28
 59 416 59 416 59 457 c 0,29,30
 59 534 59 534 115 577.5 c 128,-1,31
 171 621 171 621 264 621 c 0,32,33
 318 621 318 621 360.5 609.5 c 128,-1,34
 403 598 403 598 427.5 580 c 128,-1,35
 452 562 452 562 452 542 c 0,36,37
 452 529 452 529 445 518.5 c 128,-1,38
 438 508 438 508 427 502 c 1,39,40
 402 522 402 522 359.5 537 c 128,-1,41
 317 552 317 552 267 552 c 0,42,43
 209 552 209 552 175 526.5 c 128,-1,44
 141 501 141 501 141 457 c 0,45,46
 141 422 141 422 165.5 400 c 128,-1,47
 190 378 190 378 245 362 c 2,48,-1
 306 344 l 2,49,50
 385 322 385 322 430.5 280 c 128,-1,51
 476 238 476 238 476 164 c 0,52,53
 476 85 476 85 418.5 36 c 128,-1,54
 361 -13 361 -13 257 -13 c 0,55,56
 196 -13 196 -13 150.5 0.5 c 128,-1,57
 105 14 105 14 79.5 34.5 c 128,-1,58
 54 55 54 55 54 75 c 0,59,60
 54 92 54 92 64.5 103.5 c 128,-1,61
 75 115 75 115 89 120 c 1,62,63
 112 98 112 98 154 76.5 c 128,-1,64
 196 55 196 55 257 55 c 0,18,19
EndSplineSet
EndChar

StartChar: percent
Encoding: 37 37 8
Width: 772
Flags: W
LayerCount: 2
Fore
SplineSet
335 474 m 256,0,1
 335 409 335 409 294 370.5 c 128,-1,2
 253 332 253 332 194 332 c 256,3,4
 135 332 135 332 94 370.5 c 128,-1,5
 53 409 53 409 53 474 c 256,6,7
 53 539 53 539 94 577.5 c 128,-1,8
 135 616 135 616 194 616 c 256,9,10
 253 616 253 616 294 577.5 c 128,-1,11
 335 539 335 539 335 474 c 256,0,1
124 474 m 256,12,13
 124 435 124 435 143.5 413.5 c 128,-1,14
 163 392 163 392 194 392 c 256,15,16
 225 392 225 392 244.5 413.5 c 128,-1,17
 264 435 264 435 264 474 c 256,18,19
 264 513 264 513 244.5 534.5 c 128,-1,20
 225 556 225 556 194 556 c 256,21,22
 163 556 163 556 143.5 534.5 c 128,-1,23
 124 513 124 513 124 474 c 256,12,13
186 65 m 2,24,-1
 554 616 l 1,25,26
 577 613 577 613 590.5 604.5 c 128,-1,27
 604 596 604 596 604 582 c 0,28,29
 604 572 604 572 600 562.5 c 128,-1,30
 596 553 596 553 588 542 c 2,31,-1
 221 -7 l 1,32,33
 199 -5 199 -5 185 5 c 128,-1,34
 171 15 171 15 171 28 c 0,35,36
 171 36 171 36 175 45 c 128,-1,37
 179 54 179 54 186 65 c 2,24,-1
719 135 m 0,38,39
 719 69 719 69 678 30.5 c 128,-1,40
 637 -8 637 -8 578 -8 c 0,41,42
 520 -8 520 -8 478.5 30.5 c 128,-1,43
 437 69 437 69 437 135 c 0,44,45
 437 200 437 200 478.5 238 c 128,-1,46
 520 276 520 276 578 276 c 0,47,48
 637 276 637 276 678 238 c 128,-1,49
 719 200 719 200 719 135 c 0,38,39
508 135 m 0,50,51
 508 95 508 95 527.5 73.5 c 128,-1,52
 547 52 547 52 578 52 c 256,53,54
 609 52 609 52 628.5 73.5 c 128,-1,55
 648 95 648 95 648 135 c 0,56,57
 648 173 648 173 628.5 194.5 c 128,-1,58
 609 216 609 216 578 216 c 256,59,60
 547 216 547 216 527.5 194.5 c 128,-1,61
 508 173 508 173 508 135 c 0,50,51
EndSplineSet
EndChar

StartChar: ampersand
Encoding: 38 38 9
Width: 637
Flags: W
LayerCount: 2
Fore
SplineSet
509 102 m 1,0,-1
 480 68 l 2,1,2
 446 31 446 31 397 8 c 128,-1,3
 348 -15 348 -15 279 -15 c 256,4,5
 210 -15 210 -15 158.5 10 c 128,-1,6
 107 35 107 35 78.5 80.5 c 128,-1,7
 50 126 50 126 50 187 c 0,8,9
 50 238 50 238 70.5 276.5 c 128,-1,10
 91 315 91 315 126 341 c 128,-1,11
 161 367 161 367 204 378 c 1,12,-1
 239 319 l 1,13,14
 212 313 212 313 187.5 296.5 c 128,-1,15
 163 280 163 280 147 252.5 c 128,-1,16
 131 225 131 225 131 186 c 0,17,18
 131 126 131 126 170.5 89.5 c 128,-1,19
 210 53 210 53 280 53 c 0,20,21
 318 53 318 53 358.5 69 c 128,-1,22
 399 85 399 85 433 124 c 1,23,-1
 455 156 l 2,24,25
 473 189 473 189 483.5 239 c 128,-1,26
 494 289 494 289 494 353 c 1,27,28
 503 357 503 357 512.5 359.5 c 128,-1,29
 522 362 522 362 531 362 c 0,30,31
 551 362 551 362 561 350.5 c 128,-1,32
 571 339 571 339 571 317 c 0,33,34
 571 261 571 261 554.5 202 c 128,-1,35
 538 143 538 143 509 102 c 1,0,-1
565 -14 m 0,36,37
 545 -14 545 -14 525 9 c 2,38,-1
 219 329 l 1,39,-1
 194 357 l 2,40,41
 163 389 163 389 148 419.5 c 128,-1,42
 133 450 133 450 133 485 c 0,43,44
 133 526 133 526 151.5 556.5 c 128,-1,45
 170 587 170 587 205.5 604 c 128,-1,46
 241 621 241 621 292 621 c 0,47,48
 345 621 345 621 372.5 606 c 128,-1,49
 400 591 400 591 400 568 c 0,50,51
 400 556 400 556 393.5 546.5 c 128,-1,52
 387 537 387 537 379 532 c 1,53,54
 363 541 363 541 341.5 547 c 128,-1,55
 320 553 320 553 297 553 c 0,56,57
 259 553 259 553 237 534.5 c 128,-1,58
 215 516 215 516 215 484 c 0,59,60
 215 453 215 453 231 429 c 128,-1,61
 247 405 247 405 277 374 c 2,62,-1
 609 29 l 1,63,64
 606 9 606 9 595 -2.5 c 128,-1,65
 584 -14 584 -14 565 -14 c 0,36,37
EndSplineSet
EndChar

StartChar: quotesingle
Encoding: 39 39 10
Width: 139
Flags: W
LayerCount: 2
Fore
SplineSet
103 418 m 1,0,1
 96 416 96 416 87.5 414 c 128,-1,2
 79 412 79 412 70 412 c 0,3,4
 55 412 55 412 46.5 419.5 c 128,-1,5
 38 427 38 427 37 441 c 2,6,-1
 31 615 l 1,7,8
 39 620 39 620 48.5 622.5 c 128,-1,9
 58 625 58 625 71 625 c 0,10,11
 90 625 90 625 99.5 615.5 c 128,-1,12
 109 606 109 606 109 585 c 0,13,14
 109 568 109 568 108 537.5 c 128,-1,15
 107 507 107 507 106 474.5 c 128,-1,16
 105 442 105 442 103 418 c 1,0,1
EndSplineSet
EndChar

StartChar: parenleft
Encoding: 40 40 11
Width: 254
Flags: W
LayerCount: 2
Fore
SplineSet
204 -116 m 0,0,1
 188 -116 188 -116 175 -104.5 c 128,-1,2
 162 -93 162 -93 148 -73 c 0,3,4
 103 -9 103 -9 79 76.5 c 128,-1,5
 55 162 55 162 55 274 c 0,6,7
 55 385 55 385 83 472.5 c 128,-1,8
 111 560 111 560 148 615 c 0,9,10
 161 635 161 635 174.5 646 c 128,-1,11
 188 657 188 657 204 657 c 0,12,13
 218 657 218 657 228.5 649 c 128,-1,14
 239 641 239 641 244 629 c 1,15,16
 190 560 190 560 160.5 470.5 c 128,-1,17
 131 381 131 381 131 274 c 256,18,19
 131 167 131 167 157.5 81 c 128,-1,20
 184 -5 184 -5 244 -87 c 1,21,22
 239 -99 239 -99 228.5 -107.5 c 128,-1,23
 218 -116 218 -116 204 -116 c 0,0,1
EndSplineSet
Substitution2: "'sinf' Scientific Inferiors lookup 60 subtable" parenleft.inferior
Substitution2: "'subs' Subscript lookup 59 subtable" parenleft.inferior
Substitution2: "'sups' Superscript lookup 58 subtable" parenleft.superior
EndChar

StartChar: asterisk
Encoding: 42 42 13
Width: 299
Flags: W
LayerCount: 2
Fore
SplineSet
146 535 m 1,0,-1
 168 478 l 1,1,-1
 23 526 l 1,2,3
 20 537 20 537 20 547 c 0,4,5
 20 561 20 561 28.5 570 c 128,-1,6
 37 579 37 579 50 579 c 0,7,8
 55 579 55 579 60 577 c 128,-1,9
 65 575 65 575 71 573 c 2,10,-1
 146 535 l 1,0,-1
181 510 m 1,11,-1
 100 391 l 2,12,13
 96 390 96 390 93 390 c 128,-1,14
 90 390 90 390 87 390 c 0,15,16
 68 390 68 390 58.5 398.5 c 128,-1,17
 49 407 49 407 49 419 c 0,18,19
 49 427 49 427 52.5 434 c 128,-1,20
 56 441 56 441 61 446 c 2,21,-1
 113 504 l 1,22,-1
 181 510 l 1,11,-1
135 490 m 1,23,-1
 162 536 l 1,24,-1
 258 421 l 1,25,26
 256 408 256 408 245.5 399 c 128,-1,27
 235 390 235 390 223 390 c 0,28,29
 212 390 212 390 203 398.5 c 128,-1,30
 194 407 194 407 187 416 c 2,31,-1
 135 490 l 1,23,-1
124 515 m 1,32,-1
 254 588 l 1,33,34
 263 584 263 584 271 574.5 c 128,-1,35
 279 565 279 565 279 553 c 256,36,37
 279 541 279 541 272 535 c 128,-1,38
 265 529 265 529 254 524 c 2,39,-1
 170 484 l 1,40,-1
 124 515 l 1,32,-1
176 520 m 1,41,-1
 126 492 l 1,42,-1
 121 640 l 1,43,44
 126 643 126 643 134 646 c 128,-1,45
 142 649 142 649 152 649 c 0,46,47
 165 649 165 649 173.5 643 c 128,-1,48
 182 637 182 637 182 623 c 0,49,50
 182 617 182 617 180.5 596 c 128,-1,51
 179 575 179 575 177.5 552.5 c 128,-1,52
 176 530 176 530 176 520 c 1,41,-1
EndSplineSet
EndChar

StartChar: plus
Encoding: 43 43 14
Width: 548
Flags: W
LayerCount: 2
Fore
SplineSet
462 266 m 2,0,-1
 58 266 l 1,1,2
 55 273 55 273 53 280.5 c 128,-1,3
 51 288 51 288 51 298 c 0,4,5
 51 315 51 315 60.5 323.5 c 128,-1,6
 70 332 70 332 86 332 c 2,7,-1
 490 332 l 1,8,9
 492 326 492 326 494.5 318 c 128,-1,10
 497 310 497 310 497 301 c 0,11,12
 497 285 497 285 488 275.5 c 128,-1,13
 479 266 479 266 462 266 c 2,0,-1
312 488 m 2,14,-1
 312 73 l 1,15,16
 305 70 305 70 297 68 c 128,-1,17
 289 66 289 66 278 66 c 0,18,19
 258 66 258 66 248.5 75 c 128,-1,20
 239 84 239 84 239 106 c 2,21,-1
 239 521 l 1,22,23
 247 524 247 524 255.5 526 c 128,-1,24
 264 528 264 528 276 528 c 0,25,26
 295 528 295 528 303.5 519 c 128,-1,27
 312 510 312 510 312 488 c 2,14,-1
EndSplineSet
EndChar

StartChar: comma
Encoding: 44 44 15
Width: 145
Flags: W
LayerCount: 2
Fore
SplineSet
68 -94 m 0,0,1
 52 -121 52 -121 29 -121 c 0,2,3
 7 -121 7 -121 -7 -104 c 1,4,5
 2 -78 2 -78 13.5 -42.5 c 128,-1,6
 25 -7 25 -7 35 30 c 128,-1,7
 45 67 45 67 50 94 c 1,8,9
 58 98 58 98 67.5 100.5 c 128,-1,10
 77 103 77 103 88 103 c 0,11,12
 106 103 106 103 116 94.5 c 128,-1,13
 126 86 126 86 126 66 c 0,14,15
 126 44 126 44 115.5 11.5 c 128,-1,16
 105 -21 105 -21 91 -50.5 c 128,-1,17
 77 -80 77 -80 68 -94 c 0,0,1
EndSplineSet
EndChar

StartChar: hyphen
Encoding: 45 45 16
Width: 389
Flags: W
LayerCount: 2
Fore
SplineSet
300 228 m 2,0,-1
 61 228 l 1,1,2
 58 235 58 235 56 242.5 c 128,-1,3
 54 250 54 250 54 260 c 0,4,5
 54 277 54 277 63.5 285.5 c 128,-1,6
 73 294 73 294 89 294 c 2,7,-1
 328 294 l 1,8,9
 330 288 330 288 332.5 280 c 128,-1,10
 335 272 335 272 335 263 c 0,11,12
 335 247 335 247 326 237.5 c 128,-1,13
 317 228 317 228 300 228 c 2,0,-1
EndSplineSet
EndChar

StartChar: period
Encoding: 46 46 17
Width: 141
Flags: W
LayerCount: 2
Fore
SplineSet
16 42 m 0,0,1
 16 66 16 66 30.5 82 c 128,-1,2
 45 98 45 98 71 98 c 256,3,4
 97 98 97 98 111 82 c 128,-1,5
 125 66 125 66 125 42 c 0,6,7
 125 19 125 19 111 3 c 128,-1,8
 97 -13 97 -13 71 -13 c 256,9,10
 45 -13 45 -13 30.5 3 c 128,-1,11
 16 19 16 19 16 42 c 0,0,1
EndSplineSet
EndChar

StartChar: slash
Encoding: 47 47 18
Width: 305
Flags: W
LayerCount: 2
Fore
SplineSet
274 621 m 2,0,-1
 89 -105 l 1,1,2
 83 -106 83 -106 77 -106.5 c 128,-1,3
 71 -107 71 -107 63 -107 c 0,4,5
 44 -107 44 -107 34 -97.5 c 128,-1,6
 24 -88 24 -88 24 -71 c 0,7,8
 24 -60 24 -60 28 -45 c 128,-1,9
 32 -30 32 -30 34 -21 c 2,10,-1
 218 705 l 1,11,12
 225 706 225 706 231 706.5 c 128,-1,13
 237 707 237 707 244 707 c 0,14,15
 261 707 261 707 272 698.5 c 128,-1,16
 283 690 283 690 283 671 c 0,17,18
 283 660 283 660 280 646.5 c 128,-1,19
 277 633 277 633 274 621 c 2,0,-1
EndSplineSet
Substitution2: "Single Substitution lookup 30 subtable" fraction
EndChar

StartChar: zero
Encoding: 48 48 19
Width: 583
Flags: W
LayerCount: 2
Fore
SplineSet
291 -13 m 0,0,1
 221 -13 221 -13 167.5 21.5 c 128,-1,2
 114 56 114 56 84 126.5 c 128,-1,3
 54 197 54 197 54 304 c 0,4,5
 54 419 54 419 88 488 c 128,-1,6
 122 557 122 557 176 588.5 c 128,-1,7
 230 620 230 620 291 620 c 0,8,9
 353 620 353 620 407.5 588 c 128,-1,10
 462 556 462 556 495.5 486.5 c 128,-1,11
 529 417 529 417 529 304 c 0,12,13
 529 198 529 198 499 127.5 c 128,-1,14
 469 57 469 57 415.5 22 c 128,-1,15
 362 -13 362 -13 291 -13 c 0,0,1
291 55 m 0,16,17
 365 55 365 55 406 119.5 c 128,-1,18
 447 184 447 184 447 304 c 0,19,20
 447 393 447 393 425.5 447.5 c 128,-1,21
 404 502 404 502 369 527 c 128,-1,22
 334 552 334 552 291 552 c 0,23,24
 249 552 249 552 213.5 526.5 c 128,-1,25
 178 501 178 501 157 446 c 128,-1,26
 136 391 136 391 136 304 c 0,27,28
 136 184 136 184 177 119.5 c 128,-1,29
 218 55 218 55 291 55 c 0,16,17
EndSplineSet
Substitution2: "'sinf' Scientific Inferiors lookup 60 subtable" zero.inferior
Substitution2: "'subs' Subscript lookup 59 subtable" zero.inferior
Substitution2: "'sups' Superscript lookup 58 subtable" zero.superior
Substitution2: "'dnom' Denominators lookup 57 subtable" zero.dnom
Substitution2: "'numr' Numerators lookup 56 subtable" zero.numr
Substitution2: "'tnum' Tabular Numbers lookup 55 subtable" tabularzero
Substitution2: "Single Substitution lookup 52 subtable" zero.dnom
Substitution2: "Single Substitution lookup 50 subtable" zero.numr
Substitution2: "Single Substitution lookup 48 subtable" zero.numr
Substitution2: "Single Substitution lookup 46 subtable" zero.numr
Substitution2: "Single Substitution lookup 44 subtable" zero.numr
Substitution2: "Single Substitution lookup 42 subtable" zero.numr
Substitution2: "Single Substitution lookup 40 subtable" zero.numr
Substitution2: "Single Substitution lookup 38 subtable" zero.numr
Substitution2: "Single Substitution lookup 36 subtable" zero.numr
Substitution2: "Single Substitution lookup 34 subtable" zero.numr
Substitution2: "Single Substitution lookup 32 subtable" zero.numr
EndChar

StartChar: one
Encoding: 49 49 20
Width: 357
Flags: W
LayerCount: 2
Fore
SplineSet
254 224 m 1,0,-1
 173 224 l 1,1,-1
 173 530 l 1,2,-1
 45 470 l 1,3,4
 32 475 32 475 23.5 485 c 128,-1,5
 15 495 15 495 15 510 c 0,6,7
 15 539 15 539 51 554 c 2,8,-1
 191 615 l 1,9,-1
 210 615 l 2,10,11
 230 615 230 615 242 603 c 128,-1,12
 254 591 254 591 254 571 c 2,13,-1
 254 224 l 1,0,-1
173 264 m 1,14,-1
 254 264 l 1,15,-1
 254 -1 l 1,16,17
 248 -3 248 -3 238 -5.5 c 128,-1,18
 228 -8 228 -8 216 -8 c 0,19,20
 195 -8 195 -8 184 1 c 128,-1,21
 173 10 173 10 173 29 c 2,22,-1
 173 264 l 1,14,-1
EndSplineSet
Substitution2: "'sinf' Scientific Inferiors lookup 60 subtable" one.inferior
Substitution2: "'subs' Subscript lookup 59 subtable" one.inferior
Substitution2: "'sups' Superscript lookup 58 subtable" uni00B9
Substitution2: "'dnom' Denominators lookup 57 subtable" one.dnom
Substitution2: "'numr' Numerators lookup 56 subtable" one.numr
Substitution2: "'tnum' Tabular Numbers lookup 55 subtable" tabularone
Substitution2: "Single Substitution lookup 52 subtable" one.dnom
Substitution2: "Single Substitution lookup 50 subtable" one.numr
Substitution2: "Single Substitution lookup 48 subtable" one.numr
Substitution2: "Single Substitution lookup 46 subtable" one.numr
Substitution2: "Single Substitution lookup 44 subtable" one.numr
Substitution2: "Single Substitution lookup 42 subtable" one.numr
Substitution2: "Single Substitution lookup 40 subtable" one.numr
Substitution2: "Single Substitution lookup 38 subtable" one.numr
Substitution2: "Single Substitution lookup 36 subtable" one.numr
Substitution2: "Single Substitution lookup 34 subtable" one.numr
Substitution2: "Single Substitution lookup 32 subtable" one.numr
EndChar

StartChar: two
Encoding: 50 50 21
Width: 508
Flags: W
LayerCount: 2
Fore
SplineSet
57 545 m 0,0,1
 57 563 57 563 80 580.5 c 128,-1,2
 103 598 103 598 142 609 c 128,-1,3
 181 620 181 620 227 620 c 0,4,5
 291 620 291 620 337 598.5 c 128,-1,6
 383 577 383 577 408 538 c 128,-1,7
 433 499 433 499 433 446 c 0,8,9
 433 391 433 391 402.5 338 c 128,-1,10
 372 285 372 285 298 217 c 2,11,-1
 135 66 l 1,12,-1
 432 66 l 1,13,14
 436 62 436 62 439 53.5 c 128,-1,15
 442 45 442 45 442 34 c 0,16,17
 442 18 442 18 433.5 9 c 128,-1,18
 425 0 425 0 411 0 c 2,19,-1
 58 0 l 1,20,21
 48 7 48 7 43 17.5 c 128,-1,22
 38 28 38 28 38 40 c 0,23,24
 38 56 38 56 44 68.5 c 128,-1,25
 50 81 50 81 62 92 c 2,26,-1
 242 265 l 2,27,28
 304 323 304 323 327 362.5 c 128,-1,29
 350 402 350 402 350 445 c 0,30,31
 350 492 350 492 318 522 c 128,-1,32
 286 552 286 552 221 552 c 0,33,34
 177 552 177 552 142.5 537 c 128,-1,35
 108 522 108 522 85 505 c 1,36,37
 74 510 74 510 65.5 520 c 128,-1,38
 57 530 57 530 57 545 c 0,0,1
EndSplineSet
Substitution2: "'sinf' Scientific Inferiors lookup 60 subtable" two.inferior
Substitution2: "'subs' Subscript lookup 59 subtable" two.inferior
Substitution2: "'sups' Superscript lookup 58 subtable" uni00B2
Substitution2: "'dnom' Denominators lookup 57 subtable" two.dnom
Substitution2: "'numr' Numerators lookup 56 subtable" two.numr
Substitution2: "'tnum' Tabular Numbers lookup 55 subtable" tabulartwo
Substitution2: "Single Substitution lookup 52 subtable" two.dnom
Substitution2: "Single Substitution lookup 50 subtable" two.numr
Substitution2: "Single Substitution lookup 48 subtable" two.numr
Substitution2: "Single Substitution lookup 46 subtable" two.numr
Substitution2: "Single Substitution lookup 44 subtable" two.numr
Substitution2: "Single Substitution lookup 42 subtable" two.numr
Substitution2: "Single Substitution lookup 40 subtable" two.numr
Substitution2: "Single Substitution lookup 38 subtable" two.numr
Substitution2: "Single Substitution lookup 36 subtable" two.numr
Substitution2: "Single Substitution lookup 34 subtable" two.numr
Substitution2: "Single Substitution lookup 32 subtable" two.numr
EndChar

StartChar: three
Encoding: 51 51 22
Width: 506
Flags: W
LayerCount: 2
Fore
SplineSet
217 621 m 0,0,1
 312 621 312 621 370.5 579.5 c 128,-1,2
 429 538 429 538 429 455 c 0,3,4
 429 415 429 415 412.5 386.5 c 128,-1,5
 396 358 396 358 373.5 342 c 128,-1,6
 351 326 351 326 333 321 c 1,7,8
 360 313 360 313 386 293.5 c 128,-1,9
 412 274 412 274 429.5 243.5 c 128,-1,10
 447 213 447 213 447 170 c 0,11,12
 447 110 447 110 418 70 c 128,-1,13
 389 30 389 30 338 9.5 c 128,-1,14
 287 -11 287 -11 220 -11 c 0,15,16
 165 -11 165 -11 122.5 0.5 c 128,-1,17
 80 12 80 12 56 30 c 128,-1,18
 32 48 32 48 32 68 c 0,19,20
 32 82 32 82 39.5 92 c 128,-1,21
 47 102 47 102 59 109 c 1,22,23
 85 89 85 89 122.5 73 c 128,-1,24
 160 57 160 57 220 57 c 0,25,26
 286 57 286 57 327 85.5 c 128,-1,27
 368 114 368 114 368 172 c 0,28,29
 368 223 368 223 330 254 c 128,-1,30
 292 285 292 285 220 285 c 2,31,-1
 137 285 l 1,32,33
 133 290 133 290 130 299.5 c 128,-1,34
 127 309 127 309 127 319 c 0,35,36
 127 330 127 330 130 339 c 128,-1,37
 133 348 133 348 137 353 c 1,38,-1
 213 353 l 2,39,40
 287 353 287 353 318.5 380.5 c 128,-1,41
 350 408 350 408 350 453 c 0,42,43
 350 502 350 502 314 527.5 c 128,-1,44
 278 553 278 553 216 553 c 0,45,46
 168 553 168 553 131.5 538.5 c 128,-1,47
 95 524 95 524 71 507 c 1,48,49
 61 512 61 512 53 523 c 128,-1,50
 45 534 45 534 45 547 c 0,51,52
 45 565 45 565 68 582 c 128,-1,53
 91 599 91 599 130 610 c 128,-1,54
 169 621 169 621 217 621 c 0,0,1
EndSplineSet
Substitution2: "'sinf' Scientific Inferiors lookup 60 subtable" three.inferior
Substitution2: "'subs' Subscript lookup 59 subtable" three.inferior
Substitution2: "'sups' Superscript lookup 58 subtable" uni00B3
Substitution2: "'dnom' Denominators lookup 57 subtable" three.dnom
Substitution2: "'numr' Numerators lookup 56 subtable" three.numr
Substitution2: "'tnum' Tabular Numbers lookup 55 subtable" tabularthree
Substitution2: "Single Substitution lookup 52 subtable" three.dnom
Substitution2: "Single Substitution lookup 50 subtable" three.numr
Substitution2: "Single Substitution lookup 48 subtable" three.numr
Substitution2: "Single Substitution lookup 46 subtable" three.numr
Substitution2: "Single Substitution lookup 44 subtable" three.numr
Substitution2: "Single Substitution lookup 42 subtable" three.numr
Substitution2: "Single Substitution lookup 40 subtable" three.numr
Substitution2: "Single Substitution lookup 38 subtable" three.numr
Substitution2: "Single Substitution lookup 36 subtable" three.numr
Substitution2: "Single Substitution lookup 34 subtable" three.numr
Substitution2: "Single Substitution lookup 32 subtable" three.numr
EndChar

StartChar: four
Encoding: 52 52 23
Width: 548
Flags: W
LayerCount: 2
Fore
SplineSet
32 223 m 2,0,-1
 323 609 l 1,1,2
 332 611 332 611 343.5 612.5 c 128,-1,3
 355 614 355 614 364 614 c 0,4,5
 378 614 378 614 390.5 610 c 128,-1,6
 403 606 403 606 411 595.5 c 128,-1,7
 419 585 419 585 419 565 c 2,8,-1
 419 215 l 1,9,-1
 519 215 l 1,10,11
 522 210 522 210 525 201.5 c 128,-1,12
 528 193 528 193 528 182 c 0,13,14
 528 166 528 166 520 157 c 128,-1,15
 512 148 512 148 497 148 c 2,16,-1
 419 148 l 1,17,-1
 419 -2 l 1,18,19
 414 -3 414 -3 404.5 -5.5 c 128,-1,20
 395 -8 395 -8 384 -8 c 0,21,22
 363 -8 363 -8 352 1 c 128,-1,23
 341 10 341 10 341 27 c 2,24,-1
 341 148 l 1,25,-1
 52 148 l 1,26,27
 42 153 42 153 34.5 166 c 128,-1,28
 27 179 27 179 27 195 c 0,29,30
 27 204 27 204 28.5 210.5 c 128,-1,31
 30 217 30 217 32 223 c 2,0,-1
342 215 m 1,32,-1
 344 530 l 1,33,-1
 342 530 l 1,34,-1
 120 215 l 1,35,-1
 342 215 l 1,32,-1
EndSplineSet
Substitution2: "'sinf' Scientific Inferiors lookup 60 subtable" four.inferior
Substitution2: "'subs' Subscript lookup 59 subtable" four.inferior
Substitution2: "'sups' Superscript lookup 58 subtable" four.superior
Substitution2: "'dnom' Denominators lookup 57 subtable" four.dnom
Substitution2: "'numr' Numerators lookup 56 subtable" four.numr
Substitution2: "'tnum' Tabular Numbers lookup 55 subtable" tabularfour
Substitution2: "Single Substitution lookup 52 subtable" four.dnom
Substitution2: "Single Substitution lookup 50 subtable" four.numr
Substitution2: "Single Substitution lookup 48 subtable" four.numr
Substitution2: "Single Substitution lookup 46 subtable" four.numr
Substitution2: "Single Substitution lookup 44 subtable" four.numr
Substitution2: "Single Substitution lookup 42 subtable" four.numr
Substitution2: "Single Substitution lookup 40 subtable" four.numr
Substitution2: "Single Substitution lookup 38 subtable" four.numr
Substitution2: "Single Substitution lookup 36 subtable" four.numr
Substitution2: "Single Substitution lookup 34 subtable" four.numr
Substitution2: "Single Substitution lookup 32 subtable" four.numr
EndChar

StartChar: five
Encoding: 53 53 24
Width: 538
Flags: W
LayerCount: 2
Fore
SplineSet
204 608 m 1,0,-1
 177 549 l 1,1,-1
 160 360 l 1,2,3
 177 369 177 369 207.5 377.5 c 128,-1,4
 238 386 238 386 272 386 c 0,5,6
 332 386 332 386 380 363.5 c 128,-1,7
 428 341 428 341 456.5 297.5 c 128,-1,8
 485 254 485 254 485 190 c 0,9,10
 485 132 485 132 458.5 86 c 128,-1,11
 432 40 432 40 381.5 13.5 c 128,-1,12
 331 -13 331 -13 258 -13 c 0,13,14
 201 -13 201 -13 158 0 c 128,-1,15
 115 13 115 13 91 32 c 128,-1,16
 67 51 67 51 67 69 c 0,17,18
 67 85 67 85 77.5 97 c 128,-1,19
 88 109 88 109 99 113 c 1,20,21
 121 94 121 94 161 74 c 128,-1,22
 201 54 201 54 258 54 c 0,23,24
 327 54 327 54 365 92.5 c 128,-1,25
 403 131 403 131 403 190 c 0,26,27
 403 251 403 251 364 285 c 128,-1,28
 325 319 325 319 262 319 c 0,29,30
 227 319 227 319 198 308 c 128,-1,31
 169 297 169 297 144 283 c 1,32,33
 117 285 117 285 100.5 299.5 c 128,-1,34
 84 314 84 314 84 337 c 0,35,36
 84 343 84 343 84.5 352.5 c 128,-1,37
 85 362 85 362 86 371 c 2,38,-1
 103 562 l 2,39,40
 105 583 105 583 116 595.5 c 128,-1,41
 127 608 127 608 148 608 c 2,42,-1
 204 608 l 1,0,-1
162 540 m 1,43,-1
 162 608 l 1,44,-1
 454 608 l 1,45,46
 457 604 457 604 460 595 c 128,-1,47
 463 586 463 586 463 576 c 0,48,49
 463 560 463 560 455 550 c 128,-1,50
 447 540 447 540 432 540 c 2,51,-1
 162 540 l 1,43,-1
EndSplineSet
Substitution2: "'sinf' Scientific Inferiors lookup 60 subtable" five.inferior
Substitution2: "'subs' Subscript lookup 59 subtable" five.inferior
Substitution2: "'sups' Superscript lookup 58 subtable" five.superior
Substitution2: "'dnom' Denominators lookup 57 subtable" five.dnom
Substitution2: "'numr' Numerators lookup 56 subtable" five.numr
Substitution2: "'tnum' Tabular Numbers lookup 55 subtable" tabularfive
Substitution2: "Single Substitution lookup 52 subtable" five.dnom
Substitution2: "Single Substitution lookup 50 subtable" five.numr
Substitution2: "Single Substitution lookup 48 subtable" five.numr
Substitution2: "Single Substitution lookup 46 subtable" five.numr
Substitution2: "Single Substitution lookup 44 subtable" five.numr
Substitution2: "Single Substitution lookup 42 subtable" five.numr
Substitution2: "Single Substitution lookup 40 subtable" five.numr
Substitution2: "Single Substitution lookup 38 subtable" five.numr
Substitution2: "Single Substitution lookup 36 subtable" five.numr
Substitution2: "Single Substitution lookup 34 subtable" five.numr
Substitution2: "Single Substitution lookup 32 subtable" five.numr
EndChar

StartChar: six
Encoding: 54 54 25
Width: 550
Flags: W
LayerCount: 2
Fore
SplineSet
455 561 m 0,0,1
 455 549 455 549 448.5 538.5 c 128,-1,2
 442 528 442 528 432 523 c 1,3,4
 410 534 410 534 382.5 542.5 c 128,-1,5
 355 551 355 551 323 551 c 0,6,7
 245 551 245 551 191.5 495 c 128,-1,8
 138 439 138 439 135 320 c 1,9,10
 155 340 155 340 196.5 362.5 c 128,-1,11
 238 385 238 385 299 385 c 0,12,13
 387 385 387 385 444 335 c 128,-1,14
 501 285 501 285 501 187 c 0,15,16
 501 125 501 125 474.5 80 c 128,-1,17
 448 35 448 35 400.5 11 c 128,-1,18
 353 -13 353 -13 288 -13 c 0,19,20
 221 -13 221 -13 168 17.5 c 128,-1,21
 115 48 115 48 84.5 113.5 c 128,-1,22
 54 179 54 179 54 285 c 0,23,24
 54 379 54 379 76.5 443.5 c 128,-1,25
 99 508 99 508 137 546.5 c 128,-1,26
 175 585 175 585 223 602.5 c 128,-1,27
 271 620 271 620 321 620 c 0,28,29
 356 620 356 620 386.5 613 c 128,-1,30
 417 606 417 606 436 593 c 128,-1,31
 455 580 455 580 455 561 c 0,0,1
288 54 m 0,32,33
 346 54 346 54 383 89.5 c 128,-1,34
 420 125 420 125 420 189 c 0,35,36
 420 254 420 254 382.5 285.5 c 128,-1,37
 345 317 345 317 290 317 c 256,38,39
 235 317 235 317 195 293.5 c 128,-1,40
 155 270 155 270 132 237 c 1,41,-1
 135 244 l 1,42,43
 135 159 135 159 175 106.5 c 128,-1,44
 215 54 215 54 288 54 c 0,32,33
EndSplineSet
Substitution2: "'sinf' Scientific Inferiors lookup 60 subtable" six.inferior
Substitution2: "'subs' Subscript lookup 59 subtable" six.inferior
Substitution2: "'sups' Superscript lookup 58 subtable" six.superior
Substitution2: "'dnom' Denominators lookup 57 subtable" six.dnom
Substitution2: "'numr' Numerators lookup 56 subtable" six.numr
Substitution2: "'tnum' Tabular Numbers lookup 55 subtable" tabularsix
Substitution2: "Single Substitution lookup 52 subtable" six.dnom
Substitution2: "Single Substitution lookup 50 subtable" six.numr
Substitution2: "Single Substitution lookup 48 subtable" six.numr
Substitution2: "Single Substitution lookup 46 subtable" six.numr
Substitution2: "Single Substitution lookup 44 subtable" six.numr
Substitution2: "Single Substitution lookup 42 subtable" six.numr
Substitution2: "Single Substitution lookup 40 subtable" six.numr
Substitution2: "Single Substitution lookup 38 subtable" six.numr
Substitution2: "Single Substitution lookup 36 subtable" six.numr
Substitution2: "Single Substitution lookup 34 subtable" six.numr
Substitution2: "Single Substitution lookup 32 subtable" six.numr
EndChar

StartChar: seven
Encoding: 55 55 26
Width: 458
Flags: W
LayerCount: 2
Fore
SplineSet
55 608 m 2,0,-1
 415 608 l 1,1,2
 426 602 426 602 432 591.5 c 128,-1,3
 438 581 438 581 438 568 c 0,4,5
 438 558 438 558 435.5 548 c 128,-1,6
 433 538 433 538 427 526 c 2,7,-1
 176 -4 l 1,8,9
 170 -5 170 -5 164.5 -5 c 128,-1,10
 159 -5 159 -5 153 -5 c 0,11,12
 134 -5 134 -5 120 4.5 c 128,-1,13
 106 14 106 14 106 31 c 0,14,15
 106 43 106 43 111 54.5 c 128,-1,16
 116 66 116 66 123 81 c 2,17,-1
 349 540 l 1,18,-1
 33 540 l 1,19,20
 30 545 30 545 27 553.5 c 128,-1,21
 24 562 24 562 24 572 c 0,22,23
 24 589 24 589 32 598.5 c 128,-1,24
 40 608 40 608 55 608 c 2,0,-1
EndSplineSet
Substitution2: "'sinf' Scientific Inferiors lookup 60 subtable" seven.inferior
Substitution2: "'subs' Subscript lookup 59 subtable" seven.inferior
Substitution2: "'sups' Superscript lookup 58 subtable" seven.superior
Substitution2: "'dnom' Denominators lookup 57 subtable" seven.dnom
Substitution2: "'numr' Numerators lookup 56 subtable" seven.numr
Substitution2: "'tnum' Tabular Numbers lookup 55 subtable" tabularseven
Substitution2: "Single Substitution lookup 52 subtable" seven.dnom
Substitution2: "Single Substitution lookup 50 subtable" seven.numr
Substitution2: "Single Substitution lookup 48 subtable" seven.numr
Substitution2: "Single Substitution lookup 46 subtable" seven.numr
Substitution2: "Single Substitution lookup 44 subtable" seven.numr
Substitution2: "Single Substitution lookup 42 subtable" seven.numr
Substitution2: "Single Substitution lookup 40 subtable" seven.numr
Substitution2: "Single Substitution lookup 38 subtable" seven.numr
Substitution2: "Single Substitution lookup 36 subtable" seven.numr
Substitution2: "Single Substitution lookup 34 subtable" seven.numr
Substitution2: "Single Substitution lookup 32 subtable" seven.numr
EndChar

StartChar: eight
Encoding: 56 56 27
Width: 569
Flags: W
LayerCount: 2
Fore
SplineSet
285 -13 m 0,0,1
 217 -13 217 -13 166 7.5 c 128,-1,2
 115 28 115 28 87 67 c 128,-1,3
 59 106 59 106 59 161 c 0,4,5
 59 210 59 210 81.5 244.5 c 128,-1,6
 104 279 104 279 139 300 c 128,-1,7
 174 321 174 321 212 328 c 2,8,-1
 272 338 l 2,9,10
 344 352 344 352 380 379.5 c 128,-1,11
 416 407 416 407 416 453 c 0,12,13
 416 500 416 500 381 526.5 c 128,-1,14
 346 553 346 553 285 553 c 0,15,16
 226 553 226 553 190 526 c 128,-1,17
 154 499 154 499 154 454 c 0,18,19
 154 416 154 416 174.5 393 c 128,-1,20
 195 370 195 370 229.5 358.5 c 128,-1,21
 264 347 264 347 305 343 c 1,22,-1
 349 328 l 1,23,24
 390 320 390 320 427 299.5 c 128,-1,25
 464 279 464 279 487 245 c 128,-1,26
 510 211 510 211 510 160 c 0,27,28
 510 106 510 106 481.5 67 c 128,-1,29
 453 28 453 28 402.5 7.5 c 128,-1,30
 352 -13 352 -13 285 -13 c 0,0,1
285 54 m 0,31,32
 350 54 350 54 390 82 c 128,-1,33
 430 110 430 110 430 163 c 0,34,35
 430 221 430 221 381.5 255 c 128,-1,36
 333 289 333 289 252 294 c 1,37,-1
 201 309 l 2,38,39
 143 325 143 325 108.5 361 c 128,-1,40
 74 397 74 397 74 455 c 0,41,42
 74 506 74 506 100.5 543 c 128,-1,43
 127 580 127 580 174.5 600 c 128,-1,44
 222 620 222 620 285 620 c 0,45,46
 383 620 383 620 439.5 575.5 c 128,-1,47
 496 531 496 531 496 453 c 0,48,49
 496 390 496 390 453.5 354 c 128,-1,50
 411 318 411 318 350 307 c 2,51,-1
 282 293 l 2,52,53
 218 283 218 283 178.5 249.5 c 128,-1,54
 139 216 139 216 139 162 c 0,55,56
 139 111 139 111 178 82.5 c 128,-1,57
 217 54 217 54 285 54 c 0,31,32
EndSplineSet
Substitution2: "'sinf' Scientific Inferiors lookup 60 subtable" eight.inferior
Substitution2: "'subs' Subscript lookup 59 subtable" eight.inferior
Substitution2: "'sups' Superscript lookup 58 subtable" eight.superior
Substitution2: "'dnom' Denominators lookup 57 subtable" eight.dnom
Substitution2: "'numr' Numerators lookup 56 subtable" eight.numr
Substitution2: "'tnum' Tabular Numbers lookup 55 subtable" tabulareight
Substitution2: "Single Substitution lookup 52 subtable" eight.dnom
Substitution2: "Single Substitution lookup 50 subtable" eight.numr
Substitution2: "Single Substitution lookup 48 subtable" eight.numr
Substitution2: "Single Substitution lookup 46 subtable" eight.numr
Substitution2: "Single Substitution lookup 44 subtable" eight.numr
Substitution2: "Single Substitution lookup 42 subtable" eight.numr
Substitution2: "Single Substitution lookup 40 subtable" eight.numr
Substitution2: "Single Substitution lookup 38 subtable" eight.numr
Substitution2: "Single Substitution lookup 36 subtable" eight.numr
Substitution2: "Single Substitution lookup 34 subtable" eight.numr
Substitution2: "Single Substitution lookup 32 subtable" eight.numr
EndChar

StartChar: nine
Encoding: 57 57 28
Width: 552
Flags: W
LayerCount: 2
Fore
SplineSet
82 49 m 0,0,1
 82 61 82 61 88.5 72 c 128,-1,2
 95 83 95 83 105 88 c 1,3,4
 124 77 124 77 154.5 66.5 c 128,-1,5
 185 56 185 56 227 56 c 0,6,7
 279 56 279 56 322 78 c 128,-1,8
 365 100 365 100 391 150.5 c 128,-1,9
 417 201 417 201 417 284 c 1,10,11
 408 274 408 274 387.5 259.5 c 128,-1,12
 367 245 367 245 336 234 c 128,-1,13
 305 223 305 223 264 223 c 0,14,15
 208 223 208 223 159 242.5 c 128,-1,16
 110 262 110 262 80.5 305 c 128,-1,17
 51 348 51 348 51 418 c 0,18,19
 51 481 51 481 79 526.5 c 128,-1,20
 107 572 107 572 155 596 c 128,-1,21
 203 620 203 620 262 620 c 0,22,23
 331 620 331 620 384 588.5 c 128,-1,24
 437 557 437 557 467.5 491.5 c 128,-1,25
 498 426 498 426 498 323 c 0,26,27
 498 201 498 201 464 127 c 128,-1,28
 430 53 430 53 369.5 20 c 128,-1,29
 309 -13 309 -13 228 -13 c 0,30,31
 168 -13 168 -13 125 3 c 128,-1,32
 82 19 82 19 82 49 c 0,0,1
275 290 m 0,33,34
 326 290 326 290 365.5 315.5 c 128,-1,35
 405 341 405 341 418 372 c 1,36,-1
 417 361 l 1,37,38
 417 450 417 450 376.5 501.5 c 128,-1,39
 336 553 336 553 262 553 c 0,40,41
 207 553 207 553 169.5 517.5 c 128,-1,42
 132 482 132 482 132 420 c 0,43,44
 132 351 132 351 174 320.5 c 128,-1,45
 216 290 216 290 275 290 c 0,33,34
EndSplineSet
Substitution2: "'sinf' Scientific Inferiors lookup 60 subtable" nine.inferior
Substitution2: "'subs' Subscript lookup 59 subtable" nine.inferior
Substitution2: "'sups' Superscript lookup 58 subtable" nine.superior
Substitution2: "'dnom' Denominators lookup 57 subtable" nine.dnom
Substitution2: "'numr' Numerators lookup 56 subtable" nine.numr
Substitution2: "'tnum' Tabular Numbers lookup 55 subtable" tabularnine
Substitution2: "Single Substitution lookup 52 subtable" nine.dnom
Substitution2: "Single Substitution lookup 50 subtable" nine.numr
Substitution2: "Single Substitution lookup 48 subtable" nine.numr
Substitution2: "Single Substitution lookup 46 subtable" nine.numr
Substitution2: "Single Substitution lookup 44 subtable" nine.numr
Substitution2: "Single Substitution lookup 42 subtable" nine.numr
Substitution2: "Single Substitution lookup 40 subtable" nine.numr
Substitution2: "Single Substitution lookup 38 subtable" nine.numr
Substitution2: "Single Substitution lookup 36 subtable" nine.numr
Substitution2: "Single Substitution lookup 34 subtable" nine.numr
Substitution2: "Single Substitution lookup 32 subtable" nine.numr
EndChar

StartChar: colon
Encoding: 58 58 29
Width: 189
Flags: W
LayerCount: 2
Fore
SplineSet
40 392 m 256,0,1
 40 416 40 416 54.5 432 c 128,-1,2
 69 448 69 448 94 448 c 0,3,4
 120 448 120 448 134.5 432 c 128,-1,5
 149 416 149 416 149 392 c 256,6,7
 149 368 149 368 134.5 352.5 c 128,-1,8
 120 337 120 337 94 337 c 0,9,10
 69 337 69 337 54.5 352.5 c 128,-1,11
 40 368 40 368 40 392 c 256,0,1
40 42 m 0,12,13
 40 66 40 66 54 82 c 128,-1,14
 68 98 68 98 94 98 c 256,15,16
 120 98 120 98 134.5 82 c 128,-1,17
 149 66 149 66 149 42 c 0,18,19
 149 19 149 19 134.5 3 c 128,-1,20
 120 -13 120 -13 94 -13 c 256,21,22
 68 -13 68 -13 54 3 c 128,-1,23
 40 19 40 19 40 42 c 0,12,13
EndSplineSet
EndChar

StartChar: semicolon
Encoding: 59 59 30
Width: 202
Flags: W
LayerCount: 2
Fore
SplineSet
46 392 m 256,0,1
 46 416 46 416 60 432 c 128,-1,2
 74 448 74 448 100 448 c 256,3,4
 126 448 126 448 140.5 432 c 128,-1,5
 155 416 155 416 155 392 c 256,6,7
 155 368 155 368 140.5 352.5 c 128,-1,8
 126 337 126 337 100 337 c 256,9,10
 74 337 74 337 60 352.5 c 128,-1,11
 46 368 46 368 46 392 c 256,0,1
89 -94 m 0,12,13
 73 -121 73 -121 50 -121 c 0,14,15
 28 -121 28 -121 14 -104 c 1,16,17
 23 -78 23 -78 34.5 -42.5 c 128,-1,18
 46 -7 46 -7 56 30 c 128,-1,19
 66 67 66 67 71 94 c 1,20,21
 79 98 79 98 88.5 100.5 c 128,-1,22
 98 103 98 103 109 103 c 0,23,24
 127 103 127 103 137 94.5 c 128,-1,25
 147 86 147 86 147 66 c 0,26,27
 147 44 147 44 136.5 11.5 c 128,-1,28
 126 -21 126 -21 112 -50.5 c 128,-1,29
 98 -80 98 -80 89 -94 c 0,12,13
EndSplineSet
EndChar

StartChar: less
Encoding: 60 60 31
Width: 473
Flags: W
LayerCount: 2
Fore
SplineSet
132 301 m 1,0,-1
 440 141 l 2,1,2
 441 136 441 136 441 132 c 128,-1,3
 441 128 441 128 441 123 c 0,4,5
 441 108 441 108 431 98 c 128,-1,6
 421 88 421 88 404 88 c 0,7,8
 397 88 397 88 388 91.5 c 128,-1,9
 379 95 379 95 369 101 c 2,10,-1
 64 267 l 1,11,12
 54 282 54 282 54 300 c 0,13,14
 54 315 54 315 59 324.5 c 128,-1,15
 64 334 64 334 71 338 c 2,16,-1
 405 509 l 1,17,18
 422 503 422 503 430 493 c 128,-1,19
 438 483 438 483 438 471 c 0,20,21
 438 455 438 455 428 445 c 128,-1,22
 418 435 418 435 402 425 c 2,23,-1
 132 301 l 1,0,-1
EndSplineSet
EndChar

StartChar: equal
Encoding: 61 61 32
Width: 518
Flags: W
LayerCount: 2
Fore
SplineSet
431 363 m 2,0,-1
 58 363 l 1,1,2
 55 369 55 369 53 377 c 128,-1,3
 51 385 51 385 51 394 c 0,4,5
 51 411 51 411 60.5 419.5 c 128,-1,6
 70 428 70 428 86 428 c 2,7,-1
 460 428 l 1,8,9
 462 422 462 422 464 414.5 c 128,-1,10
 466 407 466 407 466 397 c 0,11,12
 466 381 466 381 457 372 c 128,-1,13
 448 363 448 363 431 363 c 2,0,-1
431 161 m 2,14,-1
 58 161 l 1,15,16
 55 167 55 167 53 174.5 c 128,-1,17
 51 182 51 182 51 192 c 0,18,19
 51 209 51 209 60.5 217.5 c 128,-1,20
 70 226 70 226 86 226 c 2,21,-1
 460 226 l 1,22,23
 462 220 462 220 464 212 c 128,-1,24
 466 204 466 204 466 195 c 0,25,26
 466 179 466 179 457 170 c 128,-1,27
 448 161 448 161 431 161 c 2,14,-1
EndSplineSet
EndChar

StartChar: greater
Encoding: 62 62 33
Width: 460
Flags: W
LayerCount: 2
Fore
SplineSet
331 302 m 1,0,-1
 33 459 l 2,1,2
 32 464 32 464 32 468.5 c 128,-1,3
 32 473 32 473 32 477 c 0,4,5
 32 491 32 491 42 501.5 c 128,-1,6
 52 512 52 512 68 512 c 0,7,8
 76 512 76 512 84.5 508.5 c 128,-1,9
 93 505 93 505 103 500 c 2,10,-1
 399 334 l 1,11,12
 409 319 409 319 409 300 c 0,13,14
 409 285 409 285 404.5 276 c 128,-1,15
 400 267 400 267 392 262 c 2,16,-1
 68 92 l 1,17,18
 51 97 51 97 43 107.5 c 128,-1,19
 35 118 35 118 35 130 c 0,20,21
 35 146 35 146 45 156 c 128,-1,22
 55 166 55 166 71 175 c 2,23,-1
 331 302 l 1,0,-1
EndSplineSet
EndChar

StartChar: question
Encoding: 63 63 34
Width: 459
Flags: W
LayerCount: 2
Fore
SplineSet
213 224 m 2,0,-1
 115 200 l 1,1,2
 106 209 106 209 100.5 220 c 128,-1,3
 95 231 95 231 95 244 c 0,4,5
 95 258 95 258 103 267 c 128,-1,6
 111 276 111 276 131 281 c 2,7,-1
 200 299 l 2,8,9
 266 316 266 316 301.5 349.5 c 128,-1,10
 337 383 337 383 337 437 c 0,11,12
 337 485 337 485 302.5 519.5 c 128,-1,13
 268 554 268 554 195 554 c 0,14,15
 155 554 155 554 114.5 541.5 c 128,-1,16
 74 529 74 529 50 509 c 1,17,18
 39 517 39 517 33 528 c 128,-1,19
 27 539 27 539 27 552 c 0,20,21
 27 581 27 581 75 603 c 128,-1,22
 123 625 123 625 198 625 c 0,23,24
 264 625 264 625 314 601 c 128,-1,25
 364 577 364 577 392 535 c 128,-1,26
 420 493 420 493 420 438 c 0,27,28
 420 354 420 354 368.5 302 c 128,-1,29
 317 250 317 250 213 224 c 2,0,-1
104 45 m 256,30,31
 104 69 104 69 119.5 85.5 c 128,-1,32
 135 102 135 102 160 102 c 0,33,34
 186 102 186 102 201.5 85.5 c 128,-1,35
 217 69 217 69 217 45 c 256,36,37
 217 21 217 21 201.5 5 c 128,-1,38
 186 -11 186 -11 160 -11 c 0,39,40
 135 -11 135 -11 119.5 5 c 128,-1,41
 104 21 104 21 104 45 c 256,30,31
EndSplineSet
EndChar

StartChar: at
Encoding: 64 64 35
Width: 1000
Flags: W
LayerCount: 2
Fore
SplineSet
380 200 m 0,0,1
 380 136 380 136 412.5 101 c 128,-1,2
 445 66 445 66 503 66 c 0,3,4
 538 66 538 66 566 81 c 128,-1,5
 594 96 594 96 620 127 c 1,6,-1
 632 53 l 1,7,8
 611 31 611 31 577 15.5 c 128,-1,9
 543 0 543 0 492 0 c 0,10,11
 405 0 405 0 351.5 53 c 128,-1,12
 298 106 298 106 298 200 c 0,13,14
 298 272 298 272 327 323.5 c 128,-1,15
 356 375 356 375 407.5 402 c 128,-1,16
 459 429 459 429 528 429 c 0,17,18
 563 429 563 429 596 421 c 128,-1,19
 629 413 629 413 652 401 c 0,20,21
 693 381 693 381 693 352 c 0,22,23
 693 345 693 345 692.5 337 c 128,-1,24
 692 329 692 329 691 322 c 2,25,-1
 665 60 l 1,26,-1
 586 60 l 1,27,-1
 614 344 l 1,28,29
 598 352 598 352 575 357.5 c 128,-1,30
 552 363 552 363 523 363 c 0,31,32
 459 363 459 363 419.5 320.5 c 128,-1,33
 380 278 380 278 380 200 c 0,0,1
608 37 m 1,34,35
 613 52 613 52 619.5 64.5 c 128,-1,36
 626 77 626 77 633.5 84 c 128,-1,37
 641 91 641 91 650 91 c 1,38,39
 662 81 662 81 680.5 71 c 128,-1,40
 699 61 699 61 726 61 c 0,41,42
 791 61 791 61 824 118.5 c 128,-1,43
 857 176 857 176 857 267 c 0,44,45
 857 362 857 362 815 434 c 128,-1,46
 773 506 773 506 696.5 546.5 c 128,-1,47
 620 587 620 587 516 587 c 0,48,49
 400 587 400 587 314 539 c 128,-1,50
 228 491 228 491 181 405 c 128,-1,51
 134 319 134 319 134 204 c 0,52,53
 134 95 134 95 178 14 c 128,-1,54
 222 -67 222 -67 301.5 -111.5 c 128,-1,55
 381 -156 381 -156 486 -156 c 0,56,57
 524 -156 524 -156 553 -151.5 c 128,-1,58
 582 -147 582 -147 602 -141 c 1,59,60
 608 -147 608 -147 611.5 -155 c 128,-1,61
 615 -163 615 -163 615 -172 c 0,62,63
 615 -187 615 -187 602.5 -198 c 128,-1,64
 590 -209 590 -209 560.5 -215 c 128,-1,65
 531 -221 531 -221 480 -221 c 0,66,67
 404 -221 404 -221 338.5 -202 c 128,-1,68
 273 -183 273 -183 220.5 -146.5 c 128,-1,69
 168 -110 168 -110 131 -58 c 128,-1,70
 94 -6 94 -6 74.5 60 c 128,-1,71
 55 126 55 126 55 204 c 0,72,73
 55 305 55 305 87.5 387.5 c 128,-1,74
 120 470 120 470 180.5 529 c 128,-1,75
 241 588 241 588 325.5 620 c 128,-1,76
 410 652 410 652 515 652 c 0,77,78
 613 652 613 652 691 624.5 c 128,-1,79
 769 597 769 597 823.5 546 c 128,-1,80
 878 495 878 495 907 424 c 128,-1,81
 936 353 936 353 936 266 c 0,82,83
 936 137 936 137 883 66 c 128,-1,84
 830 -5 830 -5 726 -5 c 0,85,86
 695 -5 695 -5 663.5 6 c 128,-1,87
 632 17 632 17 608 37 c 1,34,35
EndSplineSet
EndChar

StartChar: A
Encoding: 65 65 36
Width: 1383
Flags: W
LayerCount: 2
Fore
SplineSet
132 257 m 0,0,1
 132 199 132 199 147.5 154.5 c 128,-1,2
 163 110 163 110 186 79.5 c 128,-1,3
 209 49 209 49 230 32 c 1,4,5
 228 16 228 16 217.5 6 c 128,-1,6
 207 -4 207 -4 191 -4 c 0,7,8
 173 -4 173 -4 157.5 7 c 128,-1,9
 142 18 142 18 127 36 c 0,10,11
 97 71 97 71 76.5 130.5 c 128,-1,12
 56 190 56 190 56 257 c 0,13,14
 56 332 56 332 79.5 389 c 128,-1,15
 103 446 103 446 145 485 c 128,-1,16
 187 524 187 524 241.5 544 c 128,-1,17
 296 564 296 564 358 564 c 0,18,19
 416 564 416 564 458 551.5 c 128,-1,20
 500 539 500 539 530 520 c 0,21,22
 533 519 533 519 535 518.5 c 128,-1,23
 537 518 537 518 538 517.5 c 128,-1,24
 539 517 539 517 539 516 c 0,25,26
 592 505 592 505 625 467 c 128,-1,27
 658 429 658 429 658 379 c 0,28,29
 658 346 658 346 646 323.5 c 128,-1,30
 634 301 634 301 617 287.5 c 128,-1,31
 600 274 600 274 584 268 c 1,32,33
 619 255 619 255 646.5 226.5 c 128,-1,34
 674 198 674 198 674 146 c 0,35,36
 674 79 674 79 628.5 35 c 128,-1,37
 583 -9 583 -9 497 -9 c 0,38,39
 397 -9 397 -9 345 58 c 128,-1,40
 293 125 293 125 293 240 c 0,41,42
 293 315 293 315 318 373.5 c 128,-1,43
 343 432 343 432 382.5 470 c 128,-1,44
 422 508 422 508 466 521 c 1,45,-1
 490 511 l 1,46,-1
 517 494 l 1,47,48
 480 483 480 483 446 450 c 128,-1,49
 412 417 412 417 390.5 364 c 128,-1,50
 369 311 369 311 369 240 c 0,51,52
 369 149 369 149 404 102 c 128,-1,53
 439 55 439 55 497 55 c 0,54,55
 544 55 544 55 571.5 80 c 128,-1,56
 599 105 599 105 599 148 c 0,57,58
 599 187 599 187 575 211.5 c 128,-1,59
 551 236 551 236 510 236 c 2,60,-1
 478 236 l 1,61,62
 473 242 473 242 470 249.5 c 128,-1,63
 467 257 467 257 467 267 c 256,64,65
 467 277 467 277 470 284 c 128,-1,66
 473 291 473 291 478 298 c 1,67,-1
 503 298 l 2,68,69
 544 298 544 298 563.5 322.5 c 128,-1,70
 583 347 583 347 583 383 c 0,71,72
 583 421 583 421 557 451 c 128,-1,73
 531 481 531 481 490 491 c 0,74,75
 487 492 487 492 474.5 494 c 128,-1,76
 462 496 462 496 450 498 c 128,-1,77
 438 500 438 500 434 500 c 0,78,79
 425 502 425 502 417.5 503 c 128,-1,80
 410 504 410 504 402.5 505 c 128,-1,81
 395 506 395 506 387 506 c 128,-1,82
 379 506 379 506 369 506 c 0,83,84
 304 506 304 506 250 476.5 c 128,-1,85
 196 447 196 447 164 391.5 c 128,-1,86
 132 336 132 336 132 257 c 0,0,1
870 4 m 1,87,88
 866 2 866 2 856 -0.5 c 128,-1,89
 846 -3 846 -3 836 -3 c 0,90,91
 814 -3 814 -3 805 7 c 128,-1,92
 796 17 796 17 796 39 c 2,93,-1
 796 331 l 2,94,95
 796 382 796 382 771 421.5 c 128,-1,96
 746 461 746 461 704.5 483.5 c 128,-1,97
 663 506 663 506 612 506 c 0,98,99
 584 506 584 506 556.5 500 c 128,-1,100
 529 494 529 494 514 486 c 1,101,-1
 445 508 l 1,102,103
 471 529 471 529 513.5 546.5 c 128,-1,104
 556 564 556 564 614 564 c 0,105,106
 677 564 677 564 731 538 c 128,-1,107
 785 512 785 512 818.5 462.5 c 128,-1,108
 852 413 852 413 852 341 c 1,109,-1
 814 335 l 1,110,111
 814 410 814 410 845 461 c 128,-1,112
 876 512 876 512 930 538.5 c 128,-1,113
 984 565 984 565 1051 565 c 0,114,115
 1131 565 1131 565 1193.5 523.5 c 128,-1,116
 1256 482 1256 482 1291.5 409.5 c 128,-1,117
 1327 337 1327 337 1327 243 c 0,118,119
 1327 155 1327 155 1302.5 99.5 c 128,-1,120
 1278 44 1278 44 1237 17.5 c 128,-1,121
 1196 -9 1196 -9 1145 -9 c 0,122,123
 1069 -9 1069 -9 1024.5 40 c 128,-1,124
 980 89 980 89 980 166 c 0,125,126
 980 241 980 241 1013.5 292.5 c 128,-1,127
 1047 344 1047 344 1104.5 371.5 c 128,-1,128
 1162 399 1162 399 1233 403 c 1,129,-1
 1279 345 l 1,130,131
 1199 345 1199 345 1149.5 322.5 c 128,-1,132
 1100 300 1100 300 1077.5 259.5 c 128,-1,133
 1055 219 1055 219 1055 166 c 0,134,135
 1055 117 1055 117 1079 86.5 c 128,-1,136
 1103 56 1103 56 1146 56 c 0,137,138
 1196 56 1196 56 1223.5 104.5 c 128,-1,139
 1251 153 1251 153 1251 244 c 0,140,141
 1251 282 1251 282 1246.5 310 c 128,-1,142
 1242 338 1242 338 1239 349 c 2,143,-1
 1233 371 l 1,144,145
 1210 426 1210 426 1167.5 463 c 128,-1,146
 1125 500 1125 500 1051 500 c 0,147,148
 999 500 999 500 958 479.5 c 128,-1,149
 917 459 917 459 893.5 420 c 128,-1,150
 870 381 870 381 870 325 c 2,151,-1
 870 4 l 1,87,88
EndSplineSet
Substitution2: "Single Substitution lookup 62 subtable" ordfeminine
EndChar

StartChar: B
Encoding: 66 66 37
Width: 599
Flags: W
LayerCount: 2
Fore
SplineSet
420 349 m 1,0,-1
 420 283 l 1,1,-1
 145 283 l 1,2,-1
 145 349 l 1,3,-1
 420 349 l 1,0,-1
305 283 m 1,4,-1
 337 333 l 1,5,6
 405 333 405 333 450 310.5 c 128,-1,7
 495 288 495 288 517.5 251 c 128,-1,8
 540 214 540 214 540 168 c 0,9,10
 540 77 540 77 474.5 33 c 128,-1,11
 409 -11 409 -11 288 -11 c 0,12,13
 261 -11 261 -11 234 -9.5 c 128,-1,14
 207 -8 207 -8 181 -4 c 128,-1,15
 155 0 155 0 131 6 c 0,16,17
 89 18 89 18 89 52 c 2,18,-1
 89 564 l 2,19,20
 89 580 89 580 97.5 589 c 128,-1,21
 106 598 106 598 122 602 c 0,22,23
 156 612 156 612 194.5 615.5 c 128,-1,24
 233 619 233 619 277 619 c 0,25,26
 390 619 390 619 453 578.5 c 128,-1,27
 516 538 516 538 516 455 c 0,28,29
 516 413 516 413 495.5 377.5 c 128,-1,30
 475 342 475 342 429.5 320.5 c 128,-1,31
 384 299 384 299 308 299 c 1,32,-1
 299 349 l 1,33,34
 365 349 365 349 399 376.5 c 128,-1,35
 433 404 433 404 433 453 c 0,36,37
 433 503 433 503 393.5 527.5 c 128,-1,38
 354 552 354 552 277 552 c 0,39,40
 243 552 243 552 217 549.5 c 128,-1,41
 191 547 191 547 169 543 c 1,42,-1
 169 67 l 1,43,44
 193 62 193 62 224.5 59 c 128,-1,45
 256 56 256 56 288 56 c 0,46,47
 371 56 371 56 414 84 c 128,-1,48
 457 112 457 112 457 170 c 0,49,50
 457 222 457 222 418.5 252.5 c 128,-1,51
 380 283 380 283 305 283 c 1,4,-1
EndSplineSet
EndChar

StartChar: C
Encoding: 67 67 38
Width: 588
Flags: W
LayerCount: 2
Fore
SplineSet
533 541 m 0,0,1
 533 528 533 528 524.5 517.5 c 128,-1,2
 516 507 516 507 505 502 c 1,3,4
 480 520 480 520 444.5 536 c 128,-1,5
 409 552 409 552 353 552 c 0,6,7
 292 552 292 552 243.5 524 c 128,-1,8
 195 496 195 496 166.5 440.5 c 128,-1,9
 138 385 138 385 138 303 c 0,10,11
 138 180 138 180 198.5 118 c 128,-1,12
 259 56 259 56 356 56 c 0,13,14
 408 56 408 56 447 71 c 128,-1,15
 486 86 486 86 511 105 c 1,16,17
 521 101 521 101 530 90.5 c 128,-1,18
 539 80 539 80 539 66 c 0,19,20
 539 56 539 56 533.5 46.5 c 128,-1,21
 528 37 528 37 515 28 c 0,22,23
 492 12 492 12 452 -0.5 c 128,-1,24
 412 -13 412 -13 350 -13 c 0,25,26
 267 -13 267 -13 199.5 22.5 c 128,-1,27
 132 58 132 58 93 128 c 128,-1,28
 54 198 54 198 54 303 c 256,29,30
 54 408 54 408 94.5 479 c 128,-1,31
 135 550 135 550 201.5 585.5 c 128,-1,32
 268 621 268 621 347 621 c 0,33,34
 402 621 402 621 444 609 c 128,-1,35
 486 597 486 597 509.5 578.5 c 128,-1,36
 533 560 533 560 533 541 c 0,0,1
EndSplineSet
EndChar

StartChar: D
Encoding: 68 68 39
Width: 636
Flags: W
LayerCount: 2
Fore
SplineSet
310 247 m 1,0,1
 306 252 306 252 302.5 260 c 128,-1,2
 299 268 299 268 299 278 c 0,3,4
 299 289 299 289 302.5 296.5 c 128,-1,5
 306 304 306 304 310 308 c 1,6,-1
 395 308 l 2,7,8
 443 308 443 308 466.5 329 c 128,-1,9
 490 350 490 350 490 390 c 0,10,11
 490 437 490 437 453.5 469 c 128,-1,12
 417 501 417 501 338 501 c 0,13,14
 253 501 253 501 204 452.5 c 128,-1,15
 155 404 155 404 155 315 c 2,16,-1
 155 4 l 1,17,18
 151 2 151 2 140.5 -0.5 c 128,-1,19
 130 -3 130 -3 121 -3 c 0,20,21
 99 -3 99 -3 90 7 c 128,-1,22
 81 17 81 17 81 39 c 2,23,-1
 81 316 l 2,24,25
 81 396 81 396 112 452 c 128,-1,26
 143 508 143 508 200.5 537 c 128,-1,27
 258 566 258 566 338 566 c 0,28,29
 413 566 413 566 464 543.5 c 128,-1,30
 515 521 515 521 540.5 482 c 128,-1,31
 566 443 566 443 566 392 c 0,32,33
 566 348 566 348 545 319.5 c 128,-1,34
 524 291 524 291 493 279 c 1,35,36
 527 265 527 265 553.5 233.5 c 128,-1,37
 580 202 580 202 580 150 c 0,38,39
 580 100 580 100 558 64.5 c 128,-1,40
 536 29 536 29 494.5 10 c 128,-1,41
 453 -9 453 -9 394 -9 c 0,42,43
 350 -9 350 -9 315 3.5 c 128,-1,44
 280 16 280 16 280 43 c 0,45,46
 280 55 280 55 286 63.5 c 128,-1,47
 292 72 292 72 300 77 c 1,48,49
 320 67 320 67 342 60.5 c 128,-1,50
 364 54 364 54 392 54 c 0,51,52
 446 54 446 54 475 80.5 c 128,-1,53
 504 107 504 107 504 152 c 0,54,55
 504 196 504 196 475.5 221.5 c 128,-1,56
 447 247 447 247 393 247 c 2,57,-1
 310 247 l 1,0,1
EndSplineSet
EndChar

StartChar: E
Encoding: 69 69 40
Width: 531
Flags: W
LayerCount: 2
Fore
SplineSet
89 366 m 1,0,-1
 170 366 l 1,1,-1
 170 8 l 1,2,3
 166 7 166 7 155 3.5 c 128,-1,4
 144 0 144 0 133 0 c 0,5,6
 113 0 113 0 101 12.5 c 128,-1,7
 89 25 89 25 89 44 c 2,8,-1
 89 366 l 1,0,-1
170 248 m 1,9,-1
 89 249 l 1,10,-1
 89 564 l 2,11,12
 89 584 89 584 101 596 c 128,-1,13
 113 608 113 608 133 608 c 0,14,15
 144 608 144 608 155 605 c 128,-1,16
 166 602 166 602 170 600 c 1,17,-1
 170 248 l 1,9,-1
133 278 m 1,18,-1
 133 346 l 1,19,-1
 434 346 l 1,20,21
 437 342 437 342 440 333 c 128,-1,22
 443 324 443 324 443 314 c 0,23,24
 443 298 443 298 435 288 c 128,-1,25
 427 278 427 278 412 278 c 2,26,-1
 133 278 l 1,18,-1
133 0 m 1,27,-1
 133 68 l 1,28,-1
 470 68 l 1,29,30
 473 64 473 64 476 55.5 c 128,-1,31
 479 47 479 47 479 36 c 0,32,33
 479 20 479 20 471 10 c 128,-1,34
 463 0 463 0 448 0 c 2,35,-1
 133 0 l 1,27,-1
133 539 m 1,36,-1
 133 608 l 1,37,-1
 465 608 l 1,38,39
 468 604 468 604 471 595 c 128,-1,40
 474 586 474 586 474 576 c 0,41,42
 474 560 474 560 466 549.5 c 128,-1,43
 458 539 458 539 443 539 c 2,44,-1
 133 539 l 1,36,-1
EndSplineSet
EndChar

StartChar: F
Encoding: 70 70 41
Width: 517
Flags: W
LayerCount: 2
Fore
SplineSet
170 246 m 1,0,-1
 89 247 l 1,1,-1
 89 564 l 2,2,3
 89 584 89 584 101 596 c 128,-1,4
 113 608 113 608 133 608 c 0,5,6
 144 608 144 608 155 605 c 128,-1,7
 166 602 166 602 170 600 c 1,8,-1
 170 246 l 1,0,-1
133 262 m 1,9,-1
 133 331 l 1,10,-1
 430 331 l 1,11,12
 433 326 433 326 436 317.5 c 128,-1,13
 439 309 439 309 439 299 c 0,14,15
 439 283 439 283 431 272.5 c 128,-1,16
 423 262 423 262 408 262 c 2,17,-1
 133 262 l 1,9,-1
133 539 m 1,18,-1
 133 608 l 1,19,-1
 465 608 l 1,20,21
 468 604 468 604 471 595 c 128,-1,22
 474 586 474 586 474 576 c 0,23,24
 474 560 474 560 466 549.5 c 128,-1,25
 458 539 458 539 443 539 c 2,26,-1
 133 539 l 1,18,-1
89 356 m 1,27,-1
 171 356 l 1,28,-1
 171 1 l 1,29,30
 166 0 166 0 155.5 -2.5 c 128,-1,31
 145 -5 145 -5 134 -5 c 0,32,33
 112 -5 112 -5 100.5 4 c 128,-1,34
 89 13 89 13 89 31 c 2,35,-1
 89 356 l 1,27,-1
EndSplineSet
EndChar

StartChar: G
Encoding: 71 71 42
Width: 639
Flags: W
LayerCount: 2
Fore
SplineSet
570 287 m 2,0,-1
 570 70 l 2,1,2
 570 52 570 52 559.5 39.5 c 128,-1,3
 549 27 549 27 528 17 c 0,4,5
 503 4 503 4 459 -4.5 c 128,-1,6
 415 -13 415 -13 370 -13 c 0,7,8
 277 -13 277 -13 205.5 21 c 128,-1,9
 134 55 134 55 94 125 c 128,-1,10
 54 195 54 195 54 303 c 0,11,12
 54 410 54 410 95.5 480.5 c 128,-1,13
 137 551 137 551 206 586 c 128,-1,14
 275 621 275 621 357 621 c 0,15,16
 414 621 414 621 457 609 c 128,-1,17
 500 597 500 597 524 579 c 128,-1,18
 548 561 548 561 548 542 c 0,19,20
 548 529 548 529 540 518.5 c 128,-1,21
 532 508 532 508 521 503 c 1,22,23
 494 521 494 521 457 536.5 c 128,-1,24
 420 552 420 552 362 552 c 0,25,26
 299 552 299 552 248 524 c 128,-1,27
 197 496 197 496 167.5 440.5 c 128,-1,28
 138 385 138 385 138 303 c 0,29,30
 138 217 138 217 168.5 162.5 c 128,-1,31
 199 108 199 108 252 82 c 128,-1,32
 305 56 305 56 371 56 c 0,33,34
 407 56 407 56 439 62 c 128,-1,35
 471 68 471 68 489 77 c 1,36,-1
 489 261 l 1,37,-1
 338 261 l 1,38,39
 335 266 335 266 332 274.5 c 128,-1,40
 329 283 329 283 329 293 c 0,41,42
 329 310 329 310 337 319.5 c 128,-1,43
 345 329 345 329 360 329 c 2,44,-1
 527 329 l 2,45,46
 545 329 545 329 557.5 317.5 c 128,-1,47
 570 306 570 306 570 287 c 2,0,-1
EndSplineSet
EndChar

StartChar: H
Encoding: 72 72 43
Width: 1145
Flags: W
LayerCount: 2
Fore
SplineSet
137 -4 m 0,0,1
 114 -4 114 -4 92.5 17.5 c 128,-1,2
 71 39 71 39 57.5 76 c 128,-1,3
 44 113 44 113 44 159 c 0,4,5
 44 215 44 215 67.5 258 c 128,-1,6
 91 301 91 301 134.5 325.5 c 128,-1,7
 178 350 178 350 237 350 c 256,8,9
 296 350 296 350 339.5 325.5 c 128,-1,10
 383 301 383 301 406.5 260 c 128,-1,11
 430 219 430 219 430 167 c 0,12,13
 430 129 430 129 415 93.5 c 128,-1,14
 400 58 400 58 380 40 c 1,15,-1
 385 60 l 1,16,-1
 690 60 l 1,17,-1
 665 35 l 1,18,19
 637 55 637 55 612.5 91 c 128,-1,20
 588 127 588 127 572.5 174.5 c 128,-1,21
 557 222 557 222 557 277 c 0,22,23
 557 367 557 367 591 431.5 c 128,-1,24
 625 496 625 496 685 531 c 128,-1,25
 745 566 745 566 823 566 c 256,26,27
 901 566 901 566 961 531 c 128,-1,28
 1021 496 1021 496 1055 431 c 128,-1,29
 1089 366 1089 366 1089 275 c 0,30,31
 1089 192 1089 192 1063.5 131 c 128,-1,32
 1038 70 1038 70 1000 32 c 0,33,34
 984 16 984 16 968 6 c 128,-1,35
 952 -4 952 -4 936 -4 c 0,36,37
 917 -4 917 -4 907 8 c 128,-1,38
 897 20 897 20 896 36 c 1,39,40
 949 72 949 72 981 132 c 128,-1,41
 1013 192 1013 192 1013 275 c 0,42,43
 1013 347 1013 347 988 397.5 c 128,-1,44
 963 448 963 448 920.5 474.5 c 128,-1,45
 878 501 878 501 823 501 c 0,46,47
 769 501 769 501 726 474.5 c 128,-1,48
 683 448 683 448 658 397.5 c 128,-1,49
 633 347 633 347 633 275 c 0,50,51
 633 195 633 195 664 138.5 c 128,-1,52
 695 82 695 82 743 48 c 1,53,54
 743 24 743 24 731 12 c 128,-1,55
 719 0 719 0 699 0 c 2,56,-1
 353 0 l 2,57,58
 334 0 334 0 320.5 13 c 128,-1,59
 307 26 307 26 307 49 c 1,60,61
 327 66 327 66 341 94.5 c 128,-1,62
 355 123 355 123 355 163 c 0,63,64
 355 213 355 213 325 249.5 c 128,-1,65
 295 286 295 286 237 286 c 256,66,67
 179 286 179 286 149 249 c 128,-1,68
 119 212 119 212 119 159 c 0,69,70
 119 110 119 110 137 79 c 128,-1,71
 155 48 155 48 176 32 c 1,72,73
 175 18 175 18 164.5 7 c 128,-1,74
 154 -4 154 -4 137 -4 c 0,0,1
EndSplineSet
EndChar

StartChar: I
Encoding: 73 73 44
Width: 262
Flags: W
LayerCount: 2
Fore
SplineSet
90 363 m 1,0,-1
 171 363 l 1,1,-1
 171 2 l 1,2,3
 166 0 166 0 156 -2.5 c 128,-1,4
 146 -5 146 -5 134 -5 c 0,5,6
 112 -5 112 -5 101 4 c 128,-1,7
 90 13 90 13 90 32 c 2,8,-1
 90 363 l 1,0,-1
171 296 m 1,9,-1
 90 296 l 1,10,-1
 90 606 l 1,11,12
 95 608 95 608 105.5 610.5 c 128,-1,13
 116 613 116 613 128 613 c 0,14,15
 150 613 150 613 160.5 604.5 c 128,-1,16
 171 596 171 596 171 576 c 2,17,-1
 171 296 l 1,9,-1
EndSplineSet
EndChar

StartChar: J
Encoding: 74 74 45
Width: 504
Flags: W
LayerCount: 2
Fore
SplineSet
404 341 m 2,0,1
 415 341 415 341 423.5 333.5 c 128,-1,2
 432 326 432 326 432 308 c 0,3,4
 432 298 432 298 429 290.5 c 128,-1,5
 426 283 426 283 424 276 c 1,6,-1
 84 276 l 1,7,8
 81 283 81 283 78.5 290.5 c 128,-1,9
 76 298 76 298 76 308 c 0,10,11
 76 326 76 326 84 333.5 c 128,-1,12
 92 341 92 341 105 341 c 2,13,-1
 404 341 l 2,0,1
344 385 m 0,14,15
 344 362 344 362 347.5 326 c 128,-1,16
 351 290 351 290 355 251.5 c 128,-1,17
 359 213 359 213 359 186 c 0,18,19
 359 114 359 114 331.5 69.5 c 128,-1,20
 304 25 304 25 258 4 c 128,-1,21
 212 -17 212 -17 157 -17 c 0,22,23
 92 -17 92 -17 61 3.5 c 128,-1,24
 30 24 30 24 30 44 c 0,25,26
 30 52 30 52 35.5 63.5 c 128,-1,27
 41 75 41 75 53 82 c 1,28,29
 75 67 75 67 97.5 59 c 128,-1,30
 120 51 120 51 152 51 c 0,31,32
 216 51 216 51 247.5 87 c 128,-1,33
 279 123 279 123 279 197 c 0,34,35
 279 223 279 223 275.5 260 c 128,-1,36
 272 297 272 297 269 331.5 c 128,-1,37
 266 366 266 366 266 387 c 0,38,39
 266 440 266 440 280 477 c 128,-1,40
 294 514 294 514 321 538 c 1,41,-1
 28 538 l 1,42,43
 24 545 24 545 22 552.5 c 128,-1,44
 20 560 20 560 20 571 c 0,45,46
 20 587 20 587 28 595.5 c 128,-1,47
 36 604 36 604 49 604 c 2,48,-1
 389 604 l 2,49,50
 408 604 408 604 421.5 592.5 c 128,-1,51
 435 581 435 581 435 559 c 0,52,53
 435 550 435 550 434 544 c 1,54,55
 389 521 389 521 366.5 488 c 128,-1,56
 344 455 344 455 344 385 c 0,14,15
EndSplineSet
EndChar

StartChar: K
Encoding: 75 75 46
Width: 487
Flags: W
LayerCount: 2
Fore
SplineSet
198 211 m 1,0,-1
 148 250 l 1,1,-1
 376 471 l 1,2,3
 400 470 400 470 413.5 459.5 c 128,-1,4
 427 449 427 449 427 432 c 0,5,6
 427 418 427 418 418.5 407 c 128,-1,7
 410 396 410 396 394 383 c 2,8,-1
 198 211 l 1,0,-1
146 237 m 1,9,-1
 202 270 l 1,10,-1
 456 42 l 1,11,12
 454 20 454 20 442.5 7 c 128,-1,13
 431 -6 431 -6 412 -6 c 0,14,15
 397 -6 397 -6 384.5 2 c 128,-1,16
 372 10 372 10 359 23 c 2,17,-1
 146 237 l 1,9,-1
77 268 m 1,18,-1
 157 256 l 1,19,-1
 157 2 l 1,20,21
 152 0 152 0 142 -2.5 c 128,-1,22
 132 -5 132 -5 120 -5 c 0,23,24
 99 -5 99 -5 88 3.5 c 128,-1,25
 77 12 77 12 77 31 c 2,26,-1
 77 268 l 1,18,-1
157 217 m 1,27,-1
 77 229 l 1,28,-1
 77 648 l 1,29,30
 82 650 82 650 92.5 652.5 c 128,-1,31
 103 655 103 655 115 655 c 0,32,33
 136 655 136 655 146.5 646.5 c 128,-1,34
 157 638 157 638 157 619 c 2,35,-1
 157 217 l 1,27,-1
EndSplineSet
EndChar

StartChar: L
Encoding: 76 76 47
Width: 504
Flags: W
LayerCount: 2
Fore
SplineSet
85 263 m 2,0,1
 74 263 74 263 65.5 270.5 c 128,-1,2
 57 278 57 278 57 296 c 0,3,4
 57 306 57 306 60 313.5 c 128,-1,5
 63 321 63 321 65 328 c 1,6,-1
 405 328 l 1,7,8
 408 321 408 321 410.5 313.5 c 128,-1,9
 413 306 413 306 413 296 c 0,10,11
 413 278 413 278 405 270.5 c 128,-1,12
 397 263 397 263 384 263 c 2,13,-1
 85 263 l 2,0,1
145 219 m 0,14,15
 145 242 145 242 141.5 278 c 128,-1,16
 138 314 138 314 134 352.5 c 128,-1,17
 130 391 130 391 130 418 c 0,18,19
 130 490 130 490 157.5 534.5 c 128,-1,20
 185 579 185 579 231 600 c 128,-1,21
 277 621 277 621 332 621 c 0,22,23
 397 621 397 621 428 600.5 c 128,-1,24
 459 580 459 580 459 560 c 0,25,26
 459 552 459 552 453.5 540.5 c 128,-1,27
 448 529 448 529 436 522 c 1,28,29
 414 537 414 537 391.5 545 c 128,-1,30
 369 553 369 553 337 553 c 0,31,32
 273 553 273 553 241.5 517 c 128,-1,33
 210 481 210 481 210 407 c 0,34,35
 210 381 210 381 213.5 344 c 128,-1,36
 217 307 217 307 220 272.5 c 128,-1,37
 223 238 223 238 223 217 c 0,38,39
 223 164 223 164 209 127 c 128,-1,40
 195 90 195 90 168 66 c 1,41,-1
 461 66 l 1,42,43
 465 59 465 59 467 51.5 c 128,-1,44
 469 44 469 44 469 33 c 0,45,46
 469 17 469 17 461 8.5 c 128,-1,47
 453 0 453 0 440 0 c 2,48,-1
 100 0 l 2,49,50
 81 0 81 0 67.5 11.5 c 128,-1,51
 54 23 54 23 54 45 c 0,52,53
 54 54 54 54 55 60 c 1,54,55
 100 83 100 83 122.5 116 c 128,-1,56
 145 149 145 149 145 219 c 0,14,15
EndSplineSet
EndChar

StartChar: M
Encoding: 77 77 48
Width: 780
Flags: W
LayerCount: 2
Fore
SplineSet
435 158 m 1,0,1
 428 153 428 153 416.5 149 c 128,-1,2
 405 145 405 145 391 145 c 0,3,4
 375 145 375 145 362.5 150 c 128,-1,5
 350 155 350 155 345 166 c 0,6,7
 292 278 292 278 252.5 371 c 128,-1,8
 213 464 213 464 189 525 c 1,9,-1
 185 525 l 1,10,11
 182 450 182 450 178.5 385 c 128,-1,12
 175 320 175 320 171 259.5 c 128,-1,13
 167 199 167 199 163.5 135.5 c 128,-1,14
 160 72 160 72 155 0 c 1,15,16
 149 -2 149 -2 139.5 -4 c 128,-1,17
 130 -6 130 -6 119 -6 c 0,18,19
 97 -6 97 -6 88 3.5 c 128,-1,20
 79 13 79 13 79 29 c 0,21,22
 79 41 79 41 81.5 84.5 c 128,-1,23
 84 128 84 128 87.5 191 c 128,-1,24
 91 254 91 254 96 325.5 c 128,-1,25
 101 397 101 397 106.5 466.5 c 128,-1,26
 112 536 112 536 117 592 c 1,27,28
 125 599 125 599 140 605 c 128,-1,29
 155 611 155 611 174 611 c 0,30,31
 197 611 197 611 213 602 c 128,-1,32
 229 593 229 593 238 574 c 0,33,34
 264 523 264 523 290 463 c 128,-1,35
 316 403 316 403 341 343 c 128,-1,36
 366 283 366 283 389 230 c 1,37,-1
 393 230 l 1,38,39
 437 336 437 336 480.5 434 c 128,-1,40
 524 532 524 532 554 601 c 1,41,42
 563 606 563 606 577 608.5 c 128,-1,43
 591 611 591 611 603 611 c 0,44,45
 626 611 626 611 639.5 603.5 c 128,-1,46
 653 596 653 596 657 579 c 256,47,48
 661 562 661 562 666 521 c 128,-1,49
 671 480 671 480 676 424.5 c 128,-1,50
 681 369 681 369 685.5 308 c 128,-1,51
 690 247 690 247 694 188 c 128,-1,52
 698 129 698 129 701.5 81.5 c 128,-1,53
 705 34 705 34 706 6 c 1,54,55
 697 0 697 0 687 -3 c 128,-1,56
 677 -6 677 -6 664 -6 c 0,57,58
 649 -6 649 -6 637.5 1.5 c 128,-1,59
 626 9 626 9 624 29 c 0,60,61
 618 126 618 126 612.5 220.5 c 128,-1,62
 607 315 607 315 603 394 c 128,-1,63
 599 473 599 473 596 523 c 1,64,-1
 592 523 l 1,65,66
 570 468 570 468 532 381.5 c 128,-1,67
 494 295 494 295 435 158 c 1,0,1
EndSplineSet
EndChar

StartChar: N
Encoding: 78 78 49
Width: 660
Flags: W
LayerCount: 2
Fore
SplineSet
89 539 m 1,0,-1
 157 545 l 1,1,2
 161 514 161 514 164 472 c 128,-1,3
 167 430 167 430 168.5 385.5 c 128,-1,4
 170 341 170 341 170 301 c 2,5,-1
 170 2 l 1,6,7
 165 0 165 0 154.5 -2.5 c 128,-1,8
 144 -5 144 -5 133 -5 c 0,9,10
 111 -5 111 -5 100 3.5 c 128,-1,11
 89 12 89 12 89 31 c 2,12,-1
 89 539 l 1,0,-1
571 69 m 1,13,-1
 502 63 l 1,14,15
 492 147 492 147 490.5 234.5 c 128,-1,16
 489 322 489 322 489 404 c 2,17,-1
 489 606 l 1,18,19
 495 608 495 608 505 610.5 c 128,-1,20
 515 613 515 613 527 613 c 0,21,22
 549 613 549 613 560 604.5 c 128,-1,23
 571 596 571 596 571 577 c 2,24,-1
 571 69 l 1,13,-1
571 99 m 1,25,-1
 571 103 l 1,26,-1
 571 11 l 1,27,28
 562 4 562 4 548 -1 c 128,-1,29
 534 -6 534 -6 517 -6 c 0,30,31
 493 -6 493 -6 476 3.5 c 128,-1,32
 459 13 459 13 445 38 c 2,33,-1
 255 358 l 2,34,35
 240 385 240 385 222 417.5 c 128,-1,36
 204 450 204 450 188 479.5 c 128,-1,37
 172 509 172 509 163 528 c 1,38,-1
 89 509 l 1,39,-1
 89 596 l 1,40,41
 97 604 97 604 111.5 609 c 128,-1,42
 126 614 126 614 143 614 c 0,43,44
 167 614 167 614 184 604.5 c 128,-1,45
 201 595 201 595 215 570 c 2,46,-1
 406 250 l 2,47,48
 422 223 422 223 439.5 190.5 c 128,-1,49
 457 158 457 158 472 128.5 c 128,-1,50
 487 99 487 99 496 80 c 1,51,-1
 571 99 l 1,25,-1
EndSplineSet
EndChar

StartChar: O
Encoding: 79 79 50
Width: 689
Flags: W
LayerCount: 2
Fore
SplineSet
634 304 m 256,0,1
 634 200 634 200 596 129.5 c 128,-1,2
 558 59 558 59 492.5 23 c 128,-1,3
 427 -13 427 -13 344 -13 c 0,4,5
 262 -13 262 -13 196 23 c 128,-1,6
 130 59 130 59 92 129.5 c 128,-1,7
 54 200 54 200 54 304 c 256,8,9
 54 408 54 408 93 478.5 c 128,-1,10
 132 549 132 549 197.5 585 c 128,-1,11
 263 621 263 621 344 621 c 0,12,13
 426 621 426 621 491.5 585 c 128,-1,14
 557 549 557 549 595.5 478.5 c 128,-1,15
 634 408 634 408 634 304 c 256,0,1
551 304 m 256,16,17
 551 423 551 423 494.5 487.5 c 128,-1,18
 438 552 438 552 344 552 c 0,19,20
 251 552 251 552 194.5 487.5 c 128,-1,21
 138 423 138 423 138 304 c 256,22,23
 138 185 138 185 194 120.5 c 128,-1,24
 250 56 250 56 344 56 c 0,25,26
 439 56 439 56 495 120.5 c 128,-1,27
 551 185 551 185 551 304 c 256,16,17
EndSplineSet
Substitution2: "Single Substitution lookup 62 subtable" ordmasculine
EndChar

StartChar: P
Encoding: 80 80 51
Width: 567
Flags: W
LayerCount: 2
Fore
SplineSet
89 217 m 1,0,-1
 89 564 l 2,1,2
 89 580 89 580 97.5 588.5 c 128,-1,3
 106 597 106 597 122 602 c 0,4,5
 151 611 151 611 192.5 615 c 128,-1,6
 234 619 234 619 273 619 c 0,7,8
 400 619 400 619 458.5 565.5 c 128,-1,9
 517 512 517 512 517 421 c 0,10,11
 517 359 517 359 490.5 313 c 128,-1,12
 464 267 464 267 410 242 c 128,-1,13
 356 217 356 217 272 217 c 2,14,-1
 89 217 l 1,0,-1
133 -5 m 0,15,16
 111 -5 111 -5 100 4 c 128,-1,17
 89 13 89 13 89 32 c 2,18,-1
 89 256 l 1,19,-1
 171 256 l 1,20,-1
 171 2 l 1,21,22
 165 0 165 0 155 -2.5 c 128,-1,23
 145 -5 145 -5 133 -5 c 0,15,16
170 285 m 1,24,-1
 267 285 l 2,25,26
 347 285 347 285 391 318.5 c 128,-1,27
 435 352 435 352 435 420 c 256,28,29
 435 488 435 488 392.5 519.5 c 128,-1,30
 350 551 350 551 271 551 c 0,31,32
 244 551 244 551 217.5 548.5 c 128,-1,33
 191 546 191 546 170 542 c 1,34,-1
 170 285 l 1,24,-1
EndSplineSet
EndChar

StartChar: Q
Encoding: 81 81 52
Width: 680
Flags: W
LayerCount: 2
Fore
SplineSet
558 -7 m 1,0,1
 538 -7 538 -7 519 0 c 128,-1,2
 500 7 500 7 486 24 c 1,3,-1
 486 197 l 1,4,5
 458 172 458 172 421 156.5 c 128,-1,6
 384 141 384 141 334 141 c 0,7,8
 292 141 292 141 243 164 c 128,-1,9
 194 187 194 187 152 224 c 128,-1,10
 110 261 110 261 82 307 c 128,-1,11
 54 353 54 353 54 399 c 0,12,13
 54 447 54 447 71.5 484 c 128,-1,14
 89 521 89 521 119 546.5 c 128,-1,15
 149 572 149 572 189.5 585 c 128,-1,16
 230 598 230 598 276 598 c 0,17,18
 310 598 310 598 340 590 c 0,19,20
 389 577 389 577 396 568.5 c 0,21,22
 431 528 431 528 444.5 537.5 c 0,23,24
 448 540 448 540 486 624 c 1,25,-1
 484 623 l 1,26,-1
 560 623 l 2,27,-1
 558 -7 l 1,0,1
277 198 m 0,28,29
 315 198 315 198 351 210.5 c 128,-1,30
 387 223 387 223 417 246 c 1,31,-1
 184 486 l 1,32,33
 157 462 157 462 142 427.5 c 128,-1,34
 127 393 127 393 127 348 c 0,35,36
 127 312 127 312 138.5 284 c 128,-1,37
 150 256 150 256 170 237 c 128,-1,38
 190 218 190 218 217.5 208 c 128,-1,39
 245 198 245 198 277 198 c 0,28,29
486 477 m 1,40,41
 451 504 451 504 413.5 519.5 c 128,-1,42
 376 535 376 535 327 535 c 0,43,44
 255 535 255 535 204 502 c 1,45,-1
 435 262 l 1,46,47
 451 277 451 277 464 295 c 128,-1,48
 477 313 477 313 486 333 c 1,49,-1
 486 477 l 1,40,41
EndSplineSet
EndChar

StartChar: R
Encoding: 82 82 53
Width: 589
Flags: W
LayerCount: 2
Fore
SplineSet
170 298 m 1,0,-1
 285 298 l 2,1,2
 359 298 359 298 401 330 c 128,-1,3
 443 362 443 362 443 425 c 0,4,5
 443 487 443 487 399 519 c 128,-1,6
 355 551 355 551 273 551 c 0,7,8
 246 551 246 551 218.5 548.5 c 128,-1,9
 191 546 191 546 170 542 c 1,10,-1
 170 298 l 1,0,-1
285 230 m 2,11,-1
 89 230 l 1,12,-1
 89 564 l 2,13,14
 89 580 89 580 97.5 588.5 c 128,-1,15
 106 597 106 597 122 602 c 0,16,17
 151 611 151 611 193.5 615 c 128,-1,18
 236 619 236 619 276 619 c 0,19,20
 401 619 401 619 463 568 c 128,-1,21
 525 517 525 517 525 425 c 0,22,23
 525 366 525 366 498 322 c 128,-1,24
 471 278 471 278 418 254 c 128,-1,25
 365 230 365 230 285 230 c 2,11,-1
287 256 m 1,26,-1
 347 286 l 1,27,28
 375 251 375 251 405 213 c 128,-1,29
 435 175 435 175 463 139 c 128,-1,30
 491 103 491 103 513 74.5 c 128,-1,31
 535 46 535 46 547 30 c 1,32,33
 543 13 543 13 529.5 3 c 128,-1,34
 516 -7 516 -7 502 -7 c 0,35,36
 485 -7 485 -7 474 1.5 c 128,-1,37
 463 10 463 10 451 26 c 2,38,-1
 287 256 l 1,26,-1
89 252 m 1,39,-1
 171 252 l 1,40,-1
 171 2 l 1,41,42
 165 0 165 0 155 -2.5 c 128,-1,43
 145 -5 145 -5 133 -5 c 0,44,45
 111 -5 111 -5 100 4 c 128,-1,46
 89 13 89 13 89 32 c 2,47,-1
 89 252 l 1,39,-1
EndSplineSet
EndChar

StartChar: S
Encoding: 83 83 54
Width: 523
Flags: W
LayerCount: 2
Fore
SplineSet
257 55 m 0,0,1
 324 55 324 55 358.5 85.5 c 128,-1,2
 393 116 393 116 393 164 c 0,3,4
 393 205 393 205 366.5 232 c 128,-1,5
 340 259 340 259 283 275 c 2,6,-1
 196 301 l 2,7,8
 154 314 154 314 123 334.5 c 128,-1,9
 92 355 92 355 75.5 385.5 c 128,-1,10
 59 416 59 416 59 457 c 0,11,12
 59 534 59 534 115 577.5 c 128,-1,13
 171 621 171 621 264 621 c 0,14,15
 318 621 318 621 360.5 609.5 c 128,-1,16
 403 598 403 598 427.5 580 c 128,-1,17
 452 562 452 562 452 542 c 0,18,19
 452 529 452 529 445 518.5 c 128,-1,20
 438 508 438 508 427 502 c 1,21,22
 402 522 402 522 359.5 537 c 128,-1,23
 317 552 317 552 267 552 c 0,24,25
 209 552 209 552 175 526.5 c 128,-1,26
 141 501 141 501 141 457 c 0,27,28
 141 422 141 422 165.5 400 c 128,-1,29
 190 378 190 378 245 362 c 2,30,-1
 306 344 l 2,31,32
 385 322 385 322 430.5 280 c 128,-1,33
 476 238 476 238 476 164 c 0,34,35
 476 85 476 85 418.5 36 c 128,-1,36
 361 -13 361 -13 257 -13 c 0,37,38
 196 -13 196 -13 150.5 0.5 c 128,-1,39
 105 14 105 14 79.5 34.5 c 128,-1,40
 54 55 54 55 54 75 c 0,41,42
 54 92 54 92 64.5 103.5 c 128,-1,43
 75 115 75 115 89 120 c 1,44,45
 112 98 112 98 154 76.5 c 128,-1,46
 196 55 196 55 257 55 c 0,0,1
EndSplineSet
EndChar

StartChar: T
Encoding: 84 84 55
Width: 950
Flags: W
LayerCount: 2
Fore
SplineSet
333 564 m 0,0,1
 382 564 382 564 422 550.5 c 128,-1,2
 462 537 462 537 491 516 c 0,3,4
 498 513 498 513 503 509 c 128,-1,5
 508 505 508 505 511.5 502 c 128,-1,6
 515 499 515 499 515 499 c 1,7,8
 576 456 576 456 613.5 383 c 128,-1,9
 651 310 651 310 651 218 c 0,10,11
 651 111 651 111 604.5 51 c 128,-1,12
 558 -9 558 -9 475 -9 c 256,13,14
 392 -9 392 -9 345.5 51 c 128,-1,15
 299 111 299 111 299 218 c 0,16,17
 299 310 299 310 336.5 383 c 128,-1,18
 374 456 374 456 435 499 c 2,19,20
 435 499 435 499 439.5 502 c 128,-1,21
 444 505 444 505 450 509.5 c 128,-1,22
 456 514 456 514 459 516 c 0,23,24
 488 537 488 537 528 550.5 c 128,-1,25
 568 564 568 564 617 564 c 0,26,27
 698 564 698 564 760.5 528.5 c 128,-1,28
 823 493 823 493 858.5 424.5 c 128,-1,29
 894 356 894 356 894 257 c 0,30,31
 894 190 894 190 873.5 130.5 c 128,-1,32
 853 71 853 71 823 36 c 0,33,34
 808 18 808 18 792 7 c 128,-1,35
 776 -4 776 -4 759 -4 c 0,36,37
 743 -4 743 -4 732.5 6 c 128,-1,38
 722 16 722 16 720 32 c 1,39,40
 742 49 742 49 764.5 79.5 c 128,-1,41
 787 110 787 110 802.5 154.5 c 128,-1,42
 818 199 818 199 818 257 c 0,43,44
 818 334 818 334 792 389.5 c 128,-1,45
 766 445 766 445 719.5 474.5 c 128,-1,46
 673 504 673 504 611 504 c 0,47,48
 583 504 583 504 552.5 498 c 128,-1,49
 522 492 522 492 500 477 c 2,50,51
 500 477 500 477 496.5 474.5 c 128,-1,52
 493 472 493 472 489.5 469 c 128,-1,53
 486 466 486 466 486 466 c 1,54,55
 443 438 443 438 409 374.5 c 128,-1,56
 375 311 375 311 375 218 c 0,57,58
 375 145 375 145 401 100.5 c 128,-1,59
 427 56 427 56 475 56 c 256,60,61
 523 56 523 56 549 100.5 c 128,-1,62
 575 145 575 145 575 218 c 0,63,64
 575 311 575 311 541 374.5 c 128,-1,65
 507 438 507 438 464 466 c 1,66,67
 464 466 464 466 460.5 469 c 128,-1,68
 457 472 457 472 453.5 474.5 c 128,-1,69
 450 477 450 477 450 477 c 2,70,71
 428 492 428 492 398 498 c 128,-1,72
 368 504 368 504 339 504 c 0,73,74
 278 504 278 504 231 474.5 c 128,-1,75
 184 445 184 445 158 389.5 c 128,-1,76
 132 334 132 334 132 257 c 0,77,78
 132 199 132 199 147.5 154.5 c 128,-1,79
 163 110 163 110 186 79.5 c 128,-1,80
 209 49 209 49 230 32 c 1,81,82
 228 16 228 16 217.5 6 c 128,-1,83
 207 -4 207 -4 191 -4 c 0,84,85
 173 -4 173 -4 157.5 7 c 128,-1,86
 142 18 142 18 127 36 c 0,87,88
 97 71 97 71 76.5 130.5 c 128,-1,89
 56 190 56 190 56 257 c 0,90,91
 56 356 56 356 91.5 424.5 c 128,-1,92
 127 493 127 493 189.5 528.5 c 128,-1,93
 252 564 252 564 333 564 c 0,0,1
EndSplineSet
EndChar

StartChar: U
Encoding: 85 85 56
Width: 649
Flags: W
LayerCount: 2
Fore
SplineSet
324 -13 m 0,0,1
 249 -13 249 -13 196 14.5 c 128,-1,2
 143 42 143 42 115.5 92.5 c 128,-1,3
 88 143 88 143 88 210 c 2,4,-1
 88 292 l 1,5,-1
 169 292 l 1,6,-1
 169 217 l 2,7,8
 169 137 169 137 213.5 96.5 c 128,-1,9
 258 56 258 56 324 56 c 256,10,11
 390 56 390 56 434.5 96.5 c 128,-1,12
 479 137 479 137 479 217 c 2,13,-1
 479 292 l 1,14,-1
 561 292 l 1,15,-1
 561 210 l 2,16,17
 561 143 561 143 533.5 92.5 c 128,-1,18
 506 42 506 42 453 14.5 c 128,-1,19
 400 -13 400 -13 324 -13 c 0,0,1
169 251 m 1,20,-1
 88 251 l 1,21,-1
 88 606 l 1,22,23
 93 608 93 608 103.5 610.5 c 128,-1,24
 114 613 114 613 126 613 c 0,25,26
 148 613 148 613 158.5 604.5 c 128,-1,27
 169 596 169 596 169 576 c 2,28,-1
 169 251 l 1,20,-1
561 251 m 1,29,-1
 479 251 l 1,30,-1
 479 606 l 1,31,32
 484 608 484 608 494.5 610.5 c 128,-1,33
 505 613 505 613 517 613 c 0,34,35
 539 613 539 613 550 604.5 c 128,-1,36
 561 596 561 596 561 576 c 2,37,-1
 561 251 l 1,29,-1
EndSplineSet
EndChar

StartChar: V
Encoding: 86 86 57
Width: 583
Flags: W
LayerCount: 2
Fore
SplineSet
347 8 m 0,0,1
 342 4 342 4 328 -0.5 c 128,-1,2
 314 -5 314 -5 297 -5 c 0,3,4
 278 -5 278 -5 263 0.5 c 128,-1,5
 248 6 248 6 243 17 c 0,6,7
 227 48 227 48 205.5 100 c 128,-1,8
 184 152 184 152 159.5 216.5 c 128,-1,9
 135 281 135 281 111 348.5 c 128,-1,10
 87 416 87 416 66.5 479.5 c 128,-1,11
 46 543 46 543 31 592 c 1,12,13
 37 600 37 600 49 607 c 128,-1,14
 61 614 61 614 76 614 c 0,15,16
 95 614 95 614 104 605 c 128,-1,17
 113 596 113 596 119 578 c 0,18,19
 163 448 163 448 204.5 325 c 128,-1,20
 246 202 246 202 295 77 c 1,21,-1
 299 77 l 1,22,23
 328 153 328 153 359.5 241.5 c 128,-1,24
 391 330 391 330 420.5 424 c 128,-1,25
 450 518 450 518 473 607 c 1,26,27
 480 611 480 611 488.5 612.5 c 128,-1,28
 497 614 497 614 507 614 c 0,29,30
 525 614 525 614 536 605 c 128,-1,31
 547 596 547 596 547 578 c 0,32,33
 547 563 547 563 536 522 c 128,-1,34
 525 481 525 481 506.5 425 c 128,-1,35
 488 369 488 369 466 307 c 128,-1,36
 444 245 444 245 421 185.5 c 128,-1,37
 398 126 398 126 379 79.5 c 128,-1,38
 360 33 360 33 347 8 c 0,0,1
EndSplineSet
EndChar

StartChar: W
Encoding: 87 87 58
Width: 803
Flags: W
LayerCount: 2
Fore
SplineSet
493.469726562 622.385742188 m 260,0,1
 493.469726562 601.559570312 493.469726562 601.559570312 486.334960938 585.151367188 c 132,-1,2
 479.198242188 568.743164062 479.198242188 568.743164062 466.873046875 557.068359375 c 132,-1,3
 454.545898438 545.392578125 454.545898438 545.392578125 437.6796875 539.08203125 c 132,-1,4
 420.813476562 532.771484375 420.813476562 532.771484375 402 532.771484375 c 4,5,6
 382.538085938 532.771484375 382.538085938 532.771484375 365.99609375 539.08203125 c 132,-1,7
 349.453125 545.392578125 349.453125 545.392578125 337.127929688 557.068359375 c 132,-1,8
 324.80078125 568.743164062 324.80078125 568.743164062 317.666015625 585.151367188 c 132,-1,9
 310.530273438 601.559570312 310.530273438 601.559570312 310.530273438 622.385742188 c 260,10,11
 310.530273438 643.2109375 310.530273438 643.2109375 317.666015625 659.619140625 c 132,-1,12
 324.80078125 676.02734375 324.80078125 676.02734375 337.127929688 687.703125 c 132,-1,13
 349.453125 699.377929688 349.453125 699.377929688 365.99609375 705.689453125 c 132,-1,14
 382.538085938 712 382.538085938 712 402 712 c 4,15,16
 420.813476562 712 420.813476562 712 437.6796875 705.689453125 c 132,-1,17
 454.545898438 699.377929688 454.545898438 699.377929688 466.873046875 687.703125 c 132,-1,18
 479.198242188 676.02734375 479.198242188 676.02734375 486.334960938 659.619140625 c 132,-1,19
 493.469726562 643.2109375 493.469726562 643.2109375 493.469726562 622.385742188 c 260,0,1
356.58984375 622.385742188 m 260,20,21
 356.58984375 597.7734375 356.58984375 597.7734375 369.239257812 584.205078125 c 132,-1,22
 381.889648438 570.63671875 381.889648438 570.63671875 402 570.63671875 c 260,23,24
 422.110351562 570.63671875 422.110351562 570.63671875 434.759765625 584.205078125 c 132,-1,25
 447.411132812 597.7734375 447.411132812 597.7734375 447.411132812 622.385742188 c 260,26,27
 447.411132812 646.998046875 447.411132812 646.998046875 434.759765625 660.56640625 c 132,-1,28
 422.110351562 674.134765625 422.110351562 674.134765625 402 674.134765625 c 260,29,30
 381.889648438 674.134765625 381.889648438 674.134765625 369.239257812 660.56640625 c 132,-1,31
 356.58984375 646.998046875 356.58984375 646.998046875 356.58984375 622.385742188 c 260,20,21
359 457 m 1,32,-1
 359 457 l 1,33,34
 367 461 367 461 379 464 c 128,-1,35
 391 467 391 467 404 467 c 0,36,37
 424 467 424 467 437.5 460.5 c 128,-1,38
 451 454 451 454 455 441 c 0,39,40
 480 369 480 369 500.5 307.5 c 128,-1,41
 521 246 521 246 539.5 188.5 c 128,-1,42
 558 131 558 131 577 70 c 1,43,-1
 581 70 l 1,44,45
 600 160 600 160 618 245.5 c 128,-1,46
 636 331 636 331 653 419 c 128,-1,47
 670 507 670 507 684 607 c 1,48,49
 698 614 698 614 718 614 c 0,50,51
 737 614 737 614 748 605.5 c 128,-1,52
 759 597 759 597 759 580 c 0,53,54
 759 561 759 561 753.5 522.5 c 128,-1,55
 748 484 748 484 738.5 432.5 c 128,-1,56
 729 381 729 381 716.5 323.5 c 128,-1,57
 704 266 704 266 690 208.5 c 128,-1,58
 676 151 676 151 662 100 c 128,-1,59
 648 49 648 49 635 11 c 1,60,61
 626 6 626 6 612 1.5 c 128,-1,62
 598 -3 598 -3 580 -3 c 0,63,64
 558 -3 558 -3 543 4 c 128,-1,65
 528 11 528 11 523 23 c 0,66,67
 509 58 509 58 489 115.5 c 128,-1,68
 469 173 469 173 447.5 241.5 c 128,-1,69
 426 310 426 310 406 377 c 1,70,71
 387 311 387 311 365 240 c 128,-1,72
 343 169 343 169 322.5 108 c 128,-1,73
 302 47 302 47 286 10 c 1,74,75
 279 6 279 6 264.5 1.5 c 128,-1,76
 250 -3 250 -3 232 -3 c 0,77,78
 210 -3 210 -3 195.5 4.5 c 128,-1,79
 181 12 181 12 176 23 c 0,80,81
 166 48 166 48 151.5 98 c 128,-1,82
 137 148 137 148 121 212.5 c 128,-1,83
 105 277 105 277 89.5 346.5 c 128,-1,84
 74 416 74 416 60.5 480.5 c 128,-1,85
 47 545 47 545 39 595 c 1,86,87
 46 602 46 602 58 608 c 128,-1,88
 70 614 70 614 84 614 c 0,89,90
 102 614 102 614 112 605.5 c 128,-1,91
 122 597 122 597 126 577 c 0,92,93
 139 514 139 514 151 455 c 128,-1,94
 163 396 163 396 175.5 336 c 128,-1,95
 188 276 188 276 202 210.5 c 128,-1,96
 216 145 216 145 233 70 c 1,97,-1
 237 70 l 1,98,99
 251 115 251 115 264 156 c 128,-1,100
 277 197 277 197 291 240.5 c 128,-1,101
 305 284 305 284 321.5 336 c 128,-1,102
 338 388 338 388 359 457 c 1,32,-1
EndSplineSet
EndChar

StartChar: X
Encoding: 88 88 59
Width: 591
Flags: W
LayerCount: 2
Fore
SplineSet
268 289 m 1,0,-1
 254 295 l 1,1,-1
 49 574 l 1,2,3
 54 591 54 591 66 602.5 c 128,-1,4
 78 614 78 614 97 614 c 0,5,6
 113 614 113 614 124 604.5 c 128,-1,7
 135 595 135 595 147 578 c 2,8,-1
 311 343 l 1,9,-1
 334 323 l 1,10,-1
 544 32 l 1,11,12
 540 15 540 15 528.5 4 c 128,-1,13
 517 -7 517 -7 498 -7 c 0,14,15
 482 -7 482 -7 471.5 1 c 128,-1,16
 461 9 461 9 449 27 c 2,17,-1
 268 289 l 1,0,-1
336 301 m 1,18,-1
 314 281 l 1,19,-1
 109 -5 l 2,20,21
 105 -6 105 -6 99.5 -6.5 c 128,-1,22
 94 -7 94 -7 89 -7 c 0,23,24
 69 -7 69 -7 57 3 c 128,-1,25
 45 13 45 13 45 29 c 0,26,27
 45 42 45 42 51.5 53.5 c 128,-1,28
 58 65 58 65 68 78 c 2,29,-1
 255 323 l 1,30,-1
 282 348 l 1,31,-1
 472 611 l 2,32,33
 477 612 477 612 482 612.5 c 128,-1,34
 487 613 487 613 493 613 c 0,35,36
 514 613 514 613 524.5 603 c 128,-1,37
 535 593 535 593 535 578 c 0,38,39
 535 568 535 568 529.5 557 c 128,-1,40
 524 546 524 546 516 535 c 0,41,42
 473 477 473 477 428 418.5 c 128,-1,43
 383 360 383 360 336 301 c 1,18,-1
EndSplineSet
EndChar

StartChar: Y
Encoding: 89 89 60
Width: 550
Flags: W
LayerCount: 2
Fore
SplineSet
314 218 m 1,0,-1
 243 218 l 1,1,2
 215 260 215 260 184.5 306.5 c 128,-1,3
 154 353 154 353 124.5 401 c 128,-1,4
 95 449 95 449 68.5 495.5 c 128,-1,5
 42 542 42 542 21 582 c 1,6,7
 25 593 25 593 36 603.5 c 128,-1,8
 47 614 47 614 65 614 c 0,9,10
 84 614 84 614 94.5 604 c 128,-1,11
 105 594 105 594 116 574 c 0,12,13
 129 551 129 551 145.5 522.5 c 128,-1,14
 162 494 162 494 180 462.5 c 128,-1,15
 198 431 198 431 216 400 c 128,-1,16
 234 369 234 369 249.5 342 c 128,-1,17
 265 315 265 315 277 295 c 1,18,-1
 281 295 l 1,19,20
 316 353 316 353 345 405 c 128,-1,21
 374 457 374 457 401 507 c 128,-1,22
 428 557 428 557 454 607 c 0,23,24
 460 611 460 611 469 612.5 c 128,-1,25
 478 614 478 614 485 614 c 0,26,27
 504 614 504 614 513.5 605 c 128,-1,28
 523 596 523 596 523 580 c 0,29,30
 523 570 523 570 507.5 537.5 c 128,-1,31
 492 505 492 505 464 456.5 c 128,-1,32
 436 408 436 408 398 347 c 128,-1,33
 360 286 360 286 314 218 c 1,0,-1
238 257 m 1,34,-1
 319 257 l 1,35,-1
 319 2 l 1,36,37
 314 0 314 0 303.5 -2.5 c 128,-1,38
 293 -5 293 -5 282 -5 c 0,39,40
 260 -5 260 -5 249 4 c 128,-1,41
 238 13 238 13 238 32 c 2,42,-1
 238 257 l 1,34,-1
EndSplineSet
EndChar

StartChar: Z
Encoding: 90 90 61
Width: 557
Flags: W
LayerCount: 2
Fore
SplineSet
71 88 m 2,0,-1
 451 608 l 1,1,-1
 483 608 l 1,2,3
 502 592 502 592 502 570 c 0,4,5
 502 556 502 556 496.5 545 c 128,-1,6
 491 534 491 534 481 520 c 2,7,-1
 102 0 l 1,8,-1
 69 0 l 1,9,10
 61 7 61 7 55.5 17 c 128,-1,11
 50 27 50 27 50 38 c 0,12,13
 50 52 50 52 55.5 63.5 c 128,-1,14
 61 75 61 75 71 88 c 2,0,-1
90 0 m 1,15,-1
 93 69 l 1,16,-1
 499 69 l 1,17,18
 503 64 503 64 506 55.5 c 128,-1,19
 509 47 509 47 509 36 c 0,20,21
 509 20 509 20 500.5 10 c 128,-1,22
 492 0 492 0 478 0 c 2,23,-1
 90 0 l 1,15,-1
464 608 m 1,24,-1
 462 539 l 1,25,-1
 67 539 l 1,26,27
 64 544 64 544 60.5 553 c 128,-1,28
 57 562 57 562 57 572 c 0,29,30
 57 589 57 589 65.5 598.5 c 128,-1,31
 74 608 74 608 89 608 c 2,32,-1
 464 608 l 1,24,-1
EndSplineSet
EndChar

StartChar: bracketleft
Encoding: 91 91 62
Width: 268
Flags: W
LayerCount: 2
Fore
SplineSet
69 -60 m 1,0,-1
 69 597 l 1,1,-1
 142 597 l 1,2,-1
 142 -60 l 1,3,-1
 69 -60 l 1,0,-1
69 -46 m 1,4,-1
 252 -46 l 1,5,6
 254 -53 254 -53 256 -60 c 128,-1,7
 258 -67 258 -67 258 -77 c 0,8,9
 258 -93 258 -93 249.5 -101.5 c 128,-1,10
 241 -110 241 -110 224 -110 c 2,11,-1
 110 -110 l 2,12,13
 90 -110 90 -110 79.5 -99 c 128,-1,14
 69 -88 69 -88 69 -69 c 2,15,-1
 69 -46 l 1,4,-1
110 651 m 2,16,-1
 252 651 l 1,17,18
 254 645 254 645 256 638 c 128,-1,19
 258 631 258 631 258 621 c 0,20,21
 258 605 258 605 249.5 596.5 c 128,-1,22
 241 588 241 588 224 588 c 2,23,-1
 69 588 l 1,24,-1
 69 611 l 2,25,26
 69 630 69 630 79.5 640.5 c 128,-1,27
 90 651 90 651 110 651 c 2,16,-1
EndSplineSet
EndChar

StartChar: backslash
Encoding: 92 92 63
Width: 341
Flags: W
LayerCount: 2
Fore
SplineSet
110 639 m 2,0,-1
 300 -46 l 1,1,2
 293 -53 293 -53 281 -58.5 c 128,-1,3
 269 -64 269 -64 258 -64 c 0,4,5
 245 -64 245 -64 236 -58 c 128,-1,6
 227 -52 227 -52 223 -38 c 2,7,-1
 33 647 l 1,8,9
 41 655 41 655 52.5 660 c 128,-1,10
 64 665 64 665 75 665 c 0,11,12
 88 665 88 665 97 659 c 128,-1,13
 106 653 106 653 110 639 c 2,0,-1
EndSplineSet
EndChar

StartChar: bracketright
Encoding: 93 93 64
Width: 269
Flags: W
LayerCount: 2
Fore
SplineSet
199 602 m 1,0,-1
 199 -56 l 1,1,-1
 126 -56 l 1,2,-1
 126 602 l 1,3,-1
 199 602 l 1,0,-1
199 588 m 1,4,-1
 16 588 l 1,5,6
 14 594 14 594 12 601.5 c 128,-1,7
 10 609 10 609 10 618 c 0,8,9
 10 635 10 635 19 643 c 128,-1,10
 28 651 28 651 45 651 c 2,11,-1
 158 651 l 2,12,13
 178 651 178 651 188.5 640.5 c 128,-1,14
 199 630 199 630 199 611 c 2,15,-1
 199 588 l 1,4,-1
158 -110 m 2,16,-1
 16 -110 l 1,17,18
 14 -104 14 -104 12 -96.5 c 128,-1,19
 10 -89 10 -89 10 -80 c 0,20,21
 10 -63 10 -63 19 -54.5 c 128,-1,22
 28 -46 28 -46 45 -46 c 2,23,-1
 199 -46 l 1,24,-1
 199 -69 l 2,25,26
 199 -88 199 -88 188.5 -99 c 128,-1,27
 178 -110 178 -110 158 -110 c 2,16,-1
EndSplineSet
EndChar

StartChar: asciicircum
Encoding: 94 94 65
Width: 463
Flags: W
LayerCount: 2
Fore
SplineSet
194 646 m 0,0,1
 199 650 199 650 209 652.5 c 128,-1,2
 219 655 219 655 230 655 c 0,3,4
 260 655 260 655 267 641 c 0,5,6
 281 616 281 616 300.5 578 c 128,-1,7
 320 540 320 540 340.5 497 c 128,-1,8
 361 454 361 454 379.5 413.5 c 128,-1,9
 398 373 398 373 409 343 c 1,10,11
 404 336 404 336 394 330 c 128,-1,12
 384 324 384 324 372 324 c 0,13,14
 356 324 356 324 346.5 331 c 128,-1,15
 337 338 337 338 329 357 c 2,16,-1
 232 573 l 1,17,-1
 225 573 l 1,18,19
 221 564 221 564 209 537.5 c 128,-1,20
 197 511 197 511 181 475 c 128,-1,21
 165 439 165 439 149.5 401.5 c 128,-1,22
 134 364 134 364 123 332 c 1,23,24
 116 328 116 328 107.5 325.5 c 128,-1,25
 99 323 99 323 88 323 c 0,26,27
 75 323 75 323 64.5 330 c 128,-1,28
 54 337 54 337 54 353 c 0,29,30
 54 362 54 362 66.5 391.5 c 128,-1,31
 79 421 79 421 98 460.5 c 128,-1,32
 117 500 117 500 137 539.5 c 128,-1,33
 157 579 157 579 173 608.5 c 128,-1,34
 189 638 189 638 194 646 c 0,0,1
EndSplineSet
EndChar

StartChar: underscore
Encoding: 95 95 66
Width: 465
Flags: W
LayerCount: 2
Fore
SplineSet
430 -123 m 2,0,-1
 6 -123 l 1,1,2
 4 -117 4 -117 2 -109.5 c 128,-1,3
 0 -102 0 -102 0 -92 c 0,4,5
 0 -75 0 -75 9 -66.5 c 128,-1,6
 18 -58 18 -58 35 -58 c 2,7,-1
 458 -58 l 1,8,9
 460 -64 460 -64 462.5 -72 c 128,-1,10
 465 -80 465 -80 465 -89 c 0,11,12
 465 -105 465 -105 456 -114 c 128,-1,13
 447 -123 447 -123 430 -123 c 2,0,-1
EndSplineSet
EndChar

StartChar: grave
Encoding: 96 96 67
Width: 302
Flags: W
LayerCount: 2
Fore
SplineSet
153 534 m 2,0,-1
 59 634 l 2,1,2
 58 638 58 638 57.5 641.5 c 128,-1,3
 57 645 57 645 57 647 c 0,4,5
 57 663 57 663 68 673 c 128,-1,6
 79 683 79 683 95 683 c 0,7,8
 106 683 106 683 114.5 678.5 c 128,-1,9
 123 674 123 674 130 666 c 2,10,-1
 220 553 l 1,11,12
 219 537 219 537 210 527.5 c 128,-1,13
 201 518 201 518 187 518 c 0,14,15
 176 518 176 518 168.5 522.5 c 128,-1,16
 161 527 161 527 153 534 c 2,0,-1
EndSplineSet
EndChar

StartChar: a
Encoding: 97 97 68
Width: 499
Flags: W
LayerCount: 2
Fore
SplineSet
240 -14 m 0,0,1
 146 -14 146 -14 94.5 23 c 128,-1,2
 43 60 43 60 43 130 c 0,3,4
 43 195 43 195 86.5 229.5 c 128,-1,5
 130 264 130 264 207 271 c 2,6,-1
 349 285 l 1,7,-1
 349 313 l 2,8,9
 349 363 349 363 319 386 c 128,-1,10
 289 409 289 409 238 409 c 0,11,12
 197 409 197 409 159.5 397 c 128,-1,13
 122 385 122 385 93 370 c 1,14,15
 85 377 85 377 78.5 386.5 c 128,-1,16
 72 396 72 396 72 406 c 0,17,18
 72 432 72 432 101 446 c 0,19,20
 128 460 128 460 163.5 467.5 c 128,-1,21
 199 475 199 475 239 475 c 0,22,23
 326 475 326 475 377 436 c 128,-1,24
 428 397 428 397 428 313 c 2,25,-1
 428 76 l 2,26,27
 428 54 428 54 419.5 42.5 c 128,-1,28
 411 31 411 31 394 21 c 0,29,30
 370 8 370 8 330 -3 c 128,-1,31
 290 -14 290 -14 240 -14 c 0,0,1
240 52 m 0,32,33
 282 52 282 52 309.5 60.5 c 128,-1,34
 337 69 337 69 349 77 c 1,35,-1
 349 222 l 1,36,-1
 225 209 l 2,37,38
 173 205 173 205 148 186 c 128,-1,39
 123 167 123 167 123 131 c 0,40,41
 123 94 123 94 152.5 73 c 128,-1,42
 182 52 182 52 240 52 c 0,32,33
EndSplineSet
Substitution2: "Single Substitution lookup 62 subtable" ordfeminine
EndChar

StartChar: b
Encoding: 98 98 69
Width: 1276
Flags: W
LayerCount: 2
Fore
SplineSet
244 -9 m 0,0,1
 180 -9 180 -9 138 25 c 128,-1,2
 96 59 96 59 76 117.5 c 128,-1,3
 56 176 56 176 56 251 c 0,4,5
 56 352 56 352 92.5 422 c 128,-1,6
 129 492 129 492 191.5 529 c 128,-1,7
 254 566 254 566 332 566 c 0,8,9
 400 566 400 566 453.5 539.5 c 128,-1,10
 507 513 507 513 538 461.5 c 128,-1,11
 569 410 569 410 569 335 c 1,12,-1
 532 385 l 1,13,14
 532 443 532 443 557 483 c 128,-1,15
 582 523 582 523 623.5 544 c 128,-1,16
 665 565 665 565 712 565 c 0,17,18
 779 565 779 565 831.5 533 c 128,-1,19
 884 501 884 501 914.5 439 c 128,-1,20
 945 377 945 377 945 288 c 0,21,22
 945 203 945 203 912 139 c 128,-1,23
 879 75 879 75 837 43 c 1,24,-1
 796 63 l 1,25,-1
 1190 63 l 1,26,-1
 1190 56 l 2,27,28
 1190 30 1190 30 1176 15 c 128,-1,29
 1162 0 1162 0 1132 0 c 2,30,-1
 794 0 l 2,31,32
 775 0 775 0 761.5 13 c 128,-1,33
 748 26 748 26 748 50 c 1,34,35
 803 88 803 88 836 145 c 128,-1,36
 869 202 869 202 869 286 c 0,37,38
 869 391 869 391 823.5 445.5 c 128,-1,39
 778 500 778 500 710 500 c 0,40,41
 654 500 654 500 620.5 463.5 c 128,-1,42
 587 427 587 427 587 361 c 2,43,-1
 587 4 l 1,44,45
 583 2 583 2 573 -0.5 c 128,-1,46
 563 -3 563 -3 553 -3 c 0,47,48
 531 -3 531 -3 522 7 c 128,-1,49
 513 17 513 17 513 39 c 2,50,-1
 513 325 l 2,51,52
 513 381 513 381 489.5 420 c 128,-1,53
 466 459 466 459 425 480 c 128,-1,54
 384 501 384 501 332 501 c 0,55,56
 285 501 285 501 246.5 482.5 c 128,-1,57
 208 464 208 464 180.5 430.5 c 128,-1,58
 153 397 153 397 138.5 351 c 128,-1,59
 124 305 124 305 124 250 c 0,60,61
 124 236 124 236 124.5 223.5 c 128,-1,62
 125 211 125 211 126 199 c 1,63,-1
 112 206 l 1,64,65
 122 255 122 255 161 283.5 c 128,-1,66
 200 312 200 312 249 312 c 0,67,68
 300 312 300 312 335 291 c 128,-1,69
 370 270 370 270 388.5 233.5 c 128,-1,70
 407 197 407 197 407 152 c 0,71,72
 407 105 407 105 386.5 68.5 c 128,-1,73
 366 32 366 32 329 11.5 c 128,-1,74
 292 -9 292 -9 244 -9 c 0,0,1
241 53 m 0,75,76
 282 53 282 53 308.5 80.5 c 128,-1,77
 335 108 335 108 335 151 c 256,78,79
 335 194 335 194 309 222.5 c 128,-1,80
 283 251 283 251 241 251 c 256,81,82
 199 251 199 251 173 222.5 c 128,-1,83
 147 194 147 194 147 151 c 0,84,85
 147 109 147 109 173 81 c 128,-1,86
 199 53 199 53 241 53 c 0,75,76
1116 61 m 1,87,-1
 1116 553 l 1,88,89
 1120 555 1120 555 1131 557.5 c 128,-1,90
 1142 560 1142 560 1150 560 c 0,91,92
 1173 560 1173 560 1181.5 550 c 128,-1,93
 1190 540 1190 540 1190 518 c 2,94,-1
 1190 61 l 1,95,-1
 1116 61 l 1,87,-1
EndSplineSet
EndChar

StartChar: c
Encoding: 99 99 70
Width: 553
Flags: W
LayerCount: 2
Fore
SplineSet
335.120117188 159.58984375 m 5,0,-1
 283.166015625 159.58984375 l 5,1,-1
 283.166015625 502.51953125 l 5,2,-1
 335.120117188 502.51953125 l 5,3,-1
 335.120117188 357.620117188 l 5,4,5
 333 377 333 377 343.71875 380.803710938 c 4,6,7
 367 390 367 390 395.174804688 389.98046875 c 4,8,9
 418 390 418 390 435.321289062 384.42578125 c 4,10,11
 459 377 459 377 463.366210938 368.969726562 c 4,12,13
 472 354 472 354 479.897460938 345.544921875 c 4,14,15
 485.506835938 340.448242188 485.506835938 340.448242188 485.506835938 316.08203125 c 6,16,-1
 485.506835938 159.58984375 l 5,17,-1
 433.55078125 159.58984375 l 5,18,-1
 433.55078125 285.456054688 l 6,19,20
 434 312 434 312 420.561523438 323.37109375 c 4,21,22
 408 335 408 335 381.005859375 335.205078125 c 4,23,24
 361 335 361 335 358 327 c 132,-1,25
 355 319 355 319 335.120117188 303.809570312 c 5,26,-1
 335.120117188 159.58984375 l 5,0,-1
533 541 m 0,27,28
 533 528 533 528 524.5 517.5 c 128,-1,29
 516 507 516 507 505 502 c 1,30,31
 480 520 480 520 444.5 536 c 128,-1,32
 409 552 409 552 353 552 c 0,33,34
 292 552 292 552 243.5 524 c 128,-1,35
 195 496 195 496 166.5 440.5 c 128,-1,36
 138 385 138 385 138 303 c 0,37,38
 138 180 138 180 198.5 118 c 128,-1,39
 259 56 259 56 356 56 c 0,40,41
 408 56 408 56 447 71 c 128,-1,42
 486 86 486 86 511 105 c 1,43,44
 521 101 521 101 530 90.5 c 128,-1,45
 539 80 539 80 539 66 c 0,46,47
 539 56 539 56 533.5 46.5 c 128,-1,48
 528 37 528 37 515 28 c 0,49,50
 492 12 492 12 452 -0.5 c 128,-1,51
 412 -13 412 -13 350 -13 c 0,52,53
 267 -13 267 -13 199.5 22.5 c 128,-1,54
 132 58 132 58 93 128 c 128,-1,55
 54 198 54 198 54 303 c 256,56,57
 54 408 54 408 94.5 479 c 128,-1,58
 135 550 135 550 201.5 585.5 c 128,-1,59
 268 621 268 621 347 621 c 0,60,61
 402 621 402 621 444 609 c 128,-1,62
 486 597 486 597 509.5 578.5 c 128,-1,63
 533 560 533 560 533 541 c 0,27,28
EndSplineSet
EndChar

StartChar: d
Encoding: 100 100 71
Width: 1183
Flags: W
LayerCount: 2
Fore
SplineSet
749 169 m 1,0,1
 749 112 749 112 725 72.5 c 128,-1,2
 701 33 701 33 661.5 13 c 128,-1,3
 622 -7 622 -7 577 -7 c 0,4,5
 523 -7 523 -7 481.5 16 c 128,-1,6
 440 39 440 39 417 82.5 c 128,-1,7
 394 126 394 126 394 185 c 2,8,-1
 394 363 l 2,9,10
 394 428 394 428 363.5 464 c 128,-1,11
 333 500 333 500 278 500 c 0,12,13
 216 500 216 500 174 446 c 128,-1,14
 132 392 132 392 132 291 c 0,15,16
 132 203 132 203 172.5 138 c 128,-1,17
 213 73 213 73 279 35 c 1,18,19
 277 19 277 19 267.5 7.5 c 128,-1,20
 258 -4 258 -4 239 -4 c 0,21,22
 223 -4 223 -4 209 2.5 c 128,-1,23
 195 9 195 9 177 23 c 0,24,25
 128 61 128 61 92 130.5 c 128,-1,26
 56 200 56 200 56 291 c 0,27,28
 56 381 56 381 85.5 442 c 128,-1,29
 115 503 115 503 165.5 534 c 128,-1,30
 216 565 216 565 278 565 c 0,31,32
 336 565 336 565 378.5 541 c 128,-1,33
 421 517 421 517 444.5 473 c 128,-1,34
 468 429 468 429 468 368 c 2,35,-1
 468 192 l 2,36,37
 468 128 468 128 498 93 c 128,-1,38
 528 58 528 58 579 58 c 0,39,40
 632 58 632 58 663.5 93.5 c 128,-1,41
 695 129 695 129 695 193 c 2,42,-1
 695 552 l 1,43,44
 700 554 700 554 709.5 556.5 c 128,-1,45
 719 559 719 559 729 559 c 0,46,47
 752 559 752 559 760.5 549 c 128,-1,48
 769 539 769 539 769 517 c 2,49,-1
 769 197 l 2,50,51
 769 131 769 131 802.5 94.5 c 128,-1,52
 836 58 836 58 892 58 c 0,53,54
 960 58 960 58 1005.5 112.5 c 128,-1,55
 1051 167 1051 167 1051 272 c 0,56,57
 1051 358 1051 358 1013.5 421 c 128,-1,58
 976 484 976 484 914 522 c 1,59,60
 916 538 916 538 925.5 549.5 c 128,-1,61
 935 561 935 561 954 561 c 0,62,63
 970 561 970 561 985 554 c 128,-1,64
 1000 547 1000 547 1017 532 c 0,65,66
 1062 494 1062 494 1094.5 428 c 128,-1,67
 1127 362 1127 362 1127 272 c 256,68,69
 1127 182 1127 182 1096.5 120 c 128,-1,70
 1066 58 1066 58 1013.5 25.5 c 128,-1,71
 961 -7 961 -7 894 -7 c 0,72,73
 847 -7 847 -7 805.5 14 c 128,-1,74
 764 35 764 35 739 75 c 128,-1,75
 714 115 714 115 714 173 c 1,76,-1
 749 169 l 1,0,1
EndSplineSet
EndChar

StartChar: e
Encoding: 101 101 72
Width: 519
Flags: W
LayerCount: 2
Fore
SplineSet
104 180 m 1,0,-1
 100 243 l 1,1,-1
 402 284 l 1,2,3
 398 339 398 339 364 374.5 c 128,-1,4
 330 410 330 410 270 410 c 0,5,6
 208 410 208 410 167.5 365.5 c 128,-1,7
 127 321 127 321 127 238 c 2,8,-1
 127 216 l 1,9,10
 134 136 134 136 179.5 94.5 c 128,-1,11
 225 53 225 53 304 53 c 0,12,13
 346 53 346 53 380 67 c 128,-1,14
 414 81 414 81 434 97 c 1,15,16
 445 90 445 90 451.5 80.5 c 128,-1,17
 458 71 458 71 458 59 c 0,18,19
 458 40 458 40 436.5 23.5 c 128,-1,20
 415 7 415 7 379.5 -3 c 128,-1,21
 344 -13 344 -13 300 -13 c 0,22,23
 223 -13 223 -13 166.5 15 c 128,-1,24
 110 43 110 43 79.5 98.5 c 128,-1,25
 49 154 49 154 49 234 c 0,26,27
 49 291 49 291 65.5 335.5 c 128,-1,28
 82 380 82 380 111.5 411 c 128,-1,29
 141 442 141 442 182 458.5 c 128,-1,30
 223 475 223 475 271 475 c 0,31,32
 332 475 332 475 378.5 449 c 128,-1,33
 425 423 425 423 451.5 376.5 c 128,-1,34
 478 330 478 330 478 270 c 0,35,36
 478 248 478 248 468 238.5 c 128,-1,37
 458 229 458 229 440 227 c 2,38,-1
 104 180 l 1,0,-1
EndSplineSet
EndChar

StartChar: f
Encoding: 102 102 73
Width: 1078
Flags: W
LayerCount: 2
Fore
SplineSet
383 62 m 1,0,-1
 931 62 l 1,1,-1
 931 362 l 2,2,3
 931 430 931 430 896 465 c 128,-1,4
 861 500 861 500 802 500 c 0,5,6
 744 500 744 500 708.5 465 c 128,-1,7
 673 430 673 430 673 363 c 2,8,-1
 673 36 l 1,9,-1
 599 36 l 1,10,-1
 599 363 l 2,11,12
 599 457 599 457 655 511 c 128,-1,13
 711 565 711 565 802 565 c 256,14,15
 893 565 893 565 949 511 c 128,-1,16
 1005 457 1005 457 1005 362 c 2,17,-1
 1005 56 l 2,18,19
 1005 30 1005 30 991 15 c 128,-1,20
 977 0 977 0 947 0 c 2,21,-1
 353 0 l 2,22,23
 334 0 334 0 320.5 13 c 128,-1,24
 307 26 307 26 307 49 c 1,25,26
 327 66 327 66 341 94.5 c 128,-1,27
 355 123 355 123 355 163 c 0,28,29
 355 213 355 213 325 249.5 c 128,-1,30
 295 286 295 286 237 286 c 256,31,32
 179 286 179 286 149 249 c 128,-1,33
 119 212 119 212 119 159 c 0,34,35
 119 110 119 110 137 79 c 128,-1,36
 155 48 155 48 176 32 c 1,37,38
 175 18 175 18 164.5 7 c 128,-1,39
 154 -4 154 -4 137 -4 c 0,40,41
 114 -4 114 -4 92.5 17.5 c 128,-1,42
 71 39 71 39 57.5 76 c 128,-1,43
 44 113 44 113 44 159 c 0,44,45
 44 215 44 215 67.5 258 c 128,-1,46
 91 301 91 301 134.5 325.5 c 128,-1,47
 178 350 178 350 237 350 c 256,48,49
 296 350 296 350 339.5 325.5 c 128,-1,50
 383 301 383 301 406.5 260 c 128,-1,51
 430 219 430 219 430 167 c 0,52,53
 430 129 430 129 415 93.5 c 128,-1,54
 400 58 400 58 380 40 c 1,55,-1
 383 62 l 1,0,-1
EndSplineSet
EndChar

StartChar: g
Encoding: 103 103 74
Width: 537
Flags: W
LayerCount: 2
Fore
SplineSet
267 210 m 5,0,-1
 267 210 l 5,1,2
 209 210 209 210 160 232.5 c 132,-1,3
 111 255 111 255 81 306 c 132,-1,4
 51 357 51 357 51 441 c 4,5,6
 51 517 51 517 80.5 568 c 132,-1,7
 110 619 110 619 162 645 c 132,-1,8
 214 671 214 671 281 671 c 4,9,10
 327 671 327 671 365.5 659.5 c 132,-1,11
 404 648 404 648 430 631 c 4,12,13
 445 621 445 621 454.5 608.5 c 132,-1,14
 464 596 464 596 464 578 c 6,15,-1
 464 269 l 5,16,-1
 384 269 l 5,17,-1
 384 577 l 5,18,19
 367 588 367 588 341.5 596.5 c 132,-1,20
 316 605 316 605 281 605 c 4,21,22
 214 605 214 605 173 564 c 132,-1,23
 132 523 132 523 132 442 c 4,24,25
 132 352 132 352 173.5 314 c 132,-1,26
 215 276 215 276 276 276 c 4,27,28
 320 276 320 276 347 291 c 132,-1,29
 374 306 374 306 390 324 c 5,30,-1
 394 253 l 5,31,32
 379 237 379 237 346.5 223.5 c 132,-1,33
 314 210 314 210 267 210 c 5,0,-1
384 181 m 6,34,-1
 384 286 l 5,35,-1
 464 286 l 5,36,-1
 464 176 l 6,37,38
 464 110 464 110 435.5 70 c 132,-1,39
 407 30 407 30 357.5 12 c 132,-1,40
 308 -6 308 -6 246 -6 c 4,41,42
 196 -6 196 -6 160 5 c 132,-1,43
 124 16 124 16 111 23 c 4,44,45
 81 40 81 40 81 66 c 4,46,47
 81 80 81 80 87.5 89.5 c 132,-1,48
 94 99 94 99 104 104 c 5,49,50
 125 88 125 88 163.5 74.5 c 132,-1,51
 202 61 202 61 246 61 c 4,52,53
 313 61 313 61 348.5 90 c 132,-1,54
 384 119 384 119 384 181 c 6,34,-1
EndSplineSet
EndChar

StartChar: h
Encoding: 104 104 75
Width: 551
Flags: W
LayerCount: 2
Fore
SplineSet
476 199 m 1,0,-1
 396 199 l 1,1,-1
 396 291 l 2,2,3
 396 351 396 351 362.5 380 c 128,-1,4
 329 409 329 409 276 409 c 0,5,6
 237 409 237 409 203.5 394 c 128,-1,7
 170 379 170 379 147 358 c 1,8,-1
 132 423 l 1,9,10
 156 440 156 440 195.5 457.5 c 128,-1,11
 235 475 235 475 287 475 c 0,12,13
 370 475 370 475 423 430 c 128,-1,14
 476 385 476 385 476 293 c 2,15,-1
 476 199 l 1,0,-1
77 264 m 1,16,-1
 157 264 l 1,17,-1
 157 2 l 1,18,19
 152 0 152 0 142 -2.5 c 128,-1,20
 132 -5 132 -5 120 -5 c 0,21,22
 99 -5 99 -5 88 3.5 c 128,-1,23
 77 12 77 12 77 31 c 2,24,-1
 77 264 l 1,16,-1
396 263 m 1,25,-1
 476 262 l 1,26,-1
 476 2 l 1,27,28
 471 0 471 0 460.5 -2.5 c 128,-1,29
 450 -5 450 -5 439 -5 c 0,30,31
 417 -5 417 -5 406.5 3.5 c 128,-1,32
 396 12 396 12 396 31 c 2,33,-1
 396 263 l 1,25,-1
157 225 m 1,34,-1
 77 225 l 1,35,-1
 77 648 l 1,36,37
 82 650 82 650 92.5 652.5 c 128,-1,38
 103 655 103 655 115 655 c 0,39,40
 136 655 136 655 146.5 646.5 c 128,-1,41
 157 638 157 638 157 619 c 2,42,-1
 157 225 l 1,34,-1
EndSplineSet
EndChar

StartChar: i
Encoding: 105 105 76
Width: 241
Flags: W
LayerCount: 2
Fore
SplineSet
68 608 m 256,0,1
 68 629 68 629 83 643.5 c 128,-1,2
 98 658 98 658 120 658 c 0,3,4
 143 658 143 658 157 643.5 c 128,-1,5
 171 629 171 629 171 608 c 256,6,7
 171 587 171 587 157 572.5 c 128,-1,8
 143 558 143 558 120 558 c 0,9,10
 98 558 98 558 83 572.5 c 128,-1,11
 68 587 68 587 68 608 c 256,0,1
80 264 m 1,12,-1
 160 264 l 1,13,-1
 160 2 l 1,14,15
 155 0 155 0 145 -2.5 c 128,-1,16
 135 -5 135 -5 123 -5 c 0,17,18
 102 -5 102 -5 91 3.5 c 128,-1,19
 80 12 80 12 80 31 c 2,20,-1
 80 264 l 1,12,-1
160 225 m 1,21,-1
 80 225 l 1,22,-1
 80 460 l 1,23,24
 85 462 85 462 95.5 464.5 c 128,-1,25
 106 467 106 467 118 467 c 0,26,27
 139 467 139 467 149.5 458.5 c 128,-1,28
 160 450 160 450 160 430 c 2,29,-1
 160 225 l 1,21,-1
EndSplineSet
Substitution2: "Single Substitution lookup 70 subtable" i.loclTRK
EndChar

StartChar: j
Encoding: 106 106 77
Width: 385
Flags: W
LayerCount: 2
Fore
SplineSet
215 289 m 1,0,-1
 296 289 l 1,1,-1
 296 148 l 2,2,3
 296 88 296 88 273.5 53 c 128,-1,4
 251 18 251 18 214 3.5 c 128,-1,5
 177 -11 177 -11 134 -11 c 0,6,7
 78 -11 78 -11 51.5 2.5 c 128,-1,8
 25 16 25 16 25 38 c 0,9,10
 25 52 25 52 31 62 c 128,-1,11
 37 72 37 72 42 77 c 1,12,13
 57 70 57 70 78.5 64 c 128,-1,14
 100 58 100 58 122 58 c 0,15,16
 167 58 167 58 191 80 c 128,-1,17
 215 102 215 102 215 152 c 2,18,-1
 215 289 l 1,0,-1
296 265 m 1,19,-1
 215 265 l 1,20,-1
 215 606 l 1,21,22
 220 608 220 608 230.5 610.5 c 128,-1,23
 241 613 241 613 252 613 c 0,24,25
 274 613 274 613 285 604.5 c 128,-1,26
 296 596 296 596 296 576 c 2,27,-1
 296 265 l 1,19,-1
EndSplineSet
EndChar

StartChar: k
Encoding: 107 107 78
Width: 962
Flags: W
LayerCount: 2
Fore
SplineSet
486 -7 m 0,0,1
 440 -7 440 -7 403.5 11.5 c 128,-1,2
 367 30 367 30 342 65 c 0,3,4
 340 68 340 68 336.5 71.5 c 128,-1,5
 333 75 333 75 331 78 c 0,6,7
 312 112 312 112 300 154 c 128,-1,8
 288 196 288 196 288 255 c 2,9,-1
 288 332 l 2,10,11
 288 407 288 407 314 459.5 c 128,-1,12
 340 512 340 512 384.5 540 c 128,-1,13
 429 568 429 568 486 568 c 256,14,15
 543 568 543 568 588 540 c 128,-1,16
 633 512 633 512 658.5 459.5 c 128,-1,17
 684 407 684 407 684 332 c 2,18,-1
 684 255 l 2,19,20
 684 171 684 171 659 112.5 c 128,-1,21
 634 54 634 54 589.5 23.5 c 128,-1,22
 545 -7 545 -7 486 -7 c 0,0,1
219 -7 m 0,23,24
 182 -7 182 -7 150.5 4.5 c 128,-1,25
 119 16 119 16 95.5 38.5 c 128,-1,26
 72 61 72 61 59 93 c 128,-1,27
 46 125 46 125 46 166 c 0,28,29
 46 249 46 249 99 294 c 128,-1,30
 152 339 152 339 233 339 c 2,31,-1
 315 339 l 1,32,-1
 315 277 l 1,33,-1
 237 277 l 2,34,35
 186 277 186 277 153.5 248.5 c 128,-1,36
 121 220 121 220 121 167 c 256,37,38
 121 114 121 114 149.5 85.5 c 128,-1,39
 178 57 178 57 222 57 c 0,40,41
 260 57 260 57 287 73 c 128,-1,42
 314 89 314 89 327 110 c 1,43,44
 327 110 327 110 333 103 c 128,-1,45
 339 96 339 96 346.5 87.5 c 128,-1,46
 354 79 354 79 360 72 c 128,-1,47
 366 65 366 65 366 65 c 1,48,49
 346 36 346 36 308 14.5 c 128,-1,50
 270 -7 270 -7 219 -7 c 0,23,24
486 58 m 0,51,52
 542 58 542 58 577 104.5 c 128,-1,53
 612 151 612 151 612 255 c 2,54,-1
 612 332 l 2,55,56
 612 420 612 420 575.5 461.5 c 128,-1,57
 539 503 539 503 486 503 c 256,58,59
 433 503 433 503 396.5 461.5 c 128,-1,60
 360 420 360 420 360 332 c 2,61,-1
 360 255 l 2,62,63
 360 151 360 151 394.5 104.5 c 128,-1,64
 429 58 429 58 486 58 c 0,51,52
348 277 m 1,65,-1
 348 339 l 1,66,-1
 621 339 l 1,67,-1
 621 277 l 1,68,-1
 348 277 l 1,65,-1
753 -5 m 0,69,70
 711 -5 711 -5 711 28 c 0,71,72
 711 36 711 36 713 43 c 128,-1,73
 715 50 715 50 719 57 c 1,74,75
 781 57 781 57 811 84.5 c 128,-1,76
 841 112 841 112 841 167 c 0,77,78
 841 220 841 220 808.5 248.5 c 128,-1,79
 776 277 776 277 725 277 c 2,80,-1
 670 277 l 1,81,-1
 670 339 l 1,82,-1
 729 339 l 2,83,84
 810 339 810 339 863 294 c 128,-1,85
 916 249 916 249 916 166 c 0,86,87
 916 113 916 113 894 74.5 c 128,-1,88
 872 36 872 36 835 15.5 c 128,-1,89
 798 -5 798 -5 753 -5 c 0,69,70
EndSplineSet
EndChar

StartChar: l
Encoding: 108 108 79
Width: 821
Flags: W
LayerCount: 2
Fore
SplineSet
139 0 m 2,0,1
 109 0 109 0 95 15 c 128,-1,2
 81 30 81 30 81 56 c 2,3,-1
 81 358 l 2,4,5
 81 422 81 422 107 468 c 128,-1,6
 133 514 133 514 180 539.5 c 128,-1,7
 227 565 227 565 289 565 c 256,8,9
 351 565 351 565 398 539.5 c 128,-1,10
 445 514 445 514 471 468 c 128,-1,11
 497 422 497 422 497 358 c 2,12,-1
 497 271 l 2,13,14
 497 247 497 247 485 234 c 128,-1,15
 473 221 473 221 445 221 c 2,16,-1
 155 221 l 1,17,-1
 155 62 l 1,18,-1
 661 62 l 1,19,-1
 661 553 l 1,20,21
 666 555 666 555 675.5 557.5 c 128,-1,22
 685 560 685 560 695 560 c 0,23,24
 715 560 715 560 725 551.5 c 128,-1,25
 735 543 735 543 735 521 c 2,26,-1
 735 56 l 2,27,28
 735 30 735 30 721 15 c 128,-1,29
 707 0 707 0 677 0 c 2,30,-1
 139 0 l 2,0,1
155 283 m 1,31,-1
 423 283 l 1,32,-1
 423 357 l 2,33,34
 423 426 423 426 386.5 463 c 128,-1,35
 350 500 350 500 289 500 c 256,36,37
 228 500 228 500 191.5 463 c 128,-1,38
 155 426 155 426 155 358 c 2,39,-1
 155 283 l 1,31,-1
EndSplineSet
EndChar

StartChar: m
Encoding: 109 109 80
Width: 647
Flags: W
LayerCount: 2
Fore
SplineSet
522 352 m 2,0,1
 548 352 548 352 559.5 340 c 128,-1,2
 571 328 571 328 571 305 c 2,3,-1
 571 56 l 2,4,5
 571 30 571 30 557 15 c 128,-1,6
 543 0 543 0 513 0 c 2,7,-1
 108 0 l 2,8,9
 84 0 84 0 70 14.5 c 128,-1,10
 56 29 56 29 56 54 c 0,11,12
 56 62 56 62 58 71 c 128,-1,13
 60 80 60 80 64 90 c 1,14,-1
 233 175 l 2,15,16
 296 207 296 207 344.5 236.5 c 128,-1,17
 393 266 393 266 421 299 c 128,-1,18
 449 332 449 332 449 374 c 0,19,20
 449 424 449 424 411.5 462.5 c 128,-1,21
 374 501 374 501 297 501 c 0,22,23
 221 501 221 501 177 456.5 c 128,-1,24
 133 412 133 412 133 335 c 0,25,26
 133 297 133 297 139 273.5 c 128,-1,27
 145 250 145 250 157 230 c 1,28,29
 153 222 153 222 142.5 215 c 128,-1,30
 132 208 132 208 120 208 c 0,31,32
 107 208 107 208 96 214.5 c 128,-1,33
 85 221 85 221 77 236 c 0,34,35
 57 268 57 268 57 335 c 0,36,37
 57 406 57 406 87 458 c 128,-1,38
 117 510 117 510 171 538 c 128,-1,39
 225 566 225 566 297 566 c 0,40,41
 373 566 373 566 423 539 c 128,-1,42
 473 512 473 512 497.5 468 c 128,-1,43
 522 424 522 424 522 373 c 0,44,45
 522 365 522 365 521 356 c 128,-1,46
 520 347 520 347 518 339 c 2,47,48
 518 339 518 339 515 334.5 c 128,-1,49
 512 330 512 330 512 330 c 1,50,51
 506 297 506 297 485.5 270 c 128,-1,52
 465 243 465 243 432 219 c 128,-1,53
 399 195 399 195 355.5 172 c 128,-1,54
 312 149 312 149 261 123 c 2,55,-1
 127 56 l 1,56,-1
 128 51 l 1,57,58
 153 53 153 53 187.5 54.5 c 128,-1,59
 222 56 222 56 259.5 57.5 c 128,-1,60
 297 59 297 59 330.5 60 c 128,-1,61
 364 61 364 61 387 61 c 2,62,-1
 501 61 l 1,63,-1
 501 144 l 2,64,65
 501 200 501 200 503 249.5 c 128,-1,66
 505 299 505 299 508 352 c 1,67,-1
 522 352 l 2,0,1
EndSplineSet
EndChar

StartChar: n
Encoding: 110 110 81
Width: 902
Flags: W
LayerCount: 2
Fore
SplineSet
414 361 m 2,0,1
 414 427 414 427 380.5 463.5 c 128,-1,2
 347 500 347 500 291 500 c 0,3,4
 224 500 224 500 178 445.5 c 128,-1,5
 132 391 132 391 132 286 c 0,6,7
 132 200 132 200 169.5 136.5 c 128,-1,8
 207 73 207 73 269 35 c 1,9,10
 267 19 267 19 257.5 7.5 c 128,-1,11
 248 -4 248 -4 229 -4 c 0,12,13
 213 -4 213 -4 198 3 c 128,-1,14
 183 10 183 10 166 25 c 0,15,16
 121 63 121 63 88.5 129.5 c 128,-1,17
 56 196 56 196 56 286 c 256,18,19
 56 376 56 376 86.5 438 c 128,-1,20
 117 500 117 500 170 532.5 c 128,-1,21
 223 565 223 565 289 565 c 0,22,23
 337 565 337 565 378 544 c 128,-1,24
 419 523 419 523 444 483 c 128,-1,25
 469 443 469 443 469 385 c 1,26,-1
 433 385 l 1,27,28
 433 443 433 443 458 483 c 128,-1,29
 483 523 483 523 524.5 544 c 128,-1,30
 566 565 566 565 613 565 c 0,31,32
 680 565 680 565 732.5 532.5 c 128,-1,33
 785 500 785 500 815.5 438 c 128,-1,34
 846 376 846 376 846 286 c 256,35,36
 846 196 846 196 813.5 129.5 c 128,-1,37
 781 63 781 63 736 25 c 0,38,39
 719 10 719 10 704 3 c 128,-1,40
 689 -4 689 -4 673 -4 c 0,41,42
 654 -4 654 -4 644.5 7.5 c 128,-1,43
 635 19 635 19 633 35 c 1,44,45
 695 73 695 73 732.5 136.5 c 128,-1,46
 770 200 770 200 770 286 c 0,47,48
 770 391 770 391 724.5 445.5 c 128,-1,49
 679 500 679 500 611 500 c 0,50,51
 555 500 555 500 521.5 463.5 c 128,-1,52
 488 427 488 427 488 361 c 2,53,-1
 488 4 l 1,54,55
 484 2 484 2 474 -0.5 c 128,-1,56
 464 -3 464 -3 454 -3 c 0,57,58
 432 -3 432 -3 423 7 c 128,-1,59
 414 17 414 17 414 39 c 2,60,-1
 414 361 l 2,0,1
EndSplineSet
Substitution2: "'sups' Superscript lookup 58 subtable" n.superior
EndChar

StartChar: o
Encoding: 111 111 82
Width: 553
Flags: W
LayerCount: 2
Fore
SplineSet
504 231 m 0,0,1
 504 157 504 157 476 102 c 128,-1,2
 448 47 448 47 397 17 c 128,-1,3
 346 -13 346 -13 277 -13 c 256,4,5
 208 -13 208 -13 156.5 17 c 128,-1,6
 105 47 105 47 77 102 c 128,-1,7
 49 157 49 157 49 231 c 0,8,9
 49 306 49 306 77.5 360.5 c 128,-1,10
 106 415 106 415 157.5 445 c 128,-1,11
 209 475 209 475 277 475 c 256,12,13
 345 475 345 475 396 445 c 128,-1,14
 447 415 447 415 475.5 360.5 c 128,-1,15
 504 306 504 306 504 231 c 0,0,1
277 409 m 0,16,17
 210 409 210 409 170.5 361.5 c 128,-1,18
 131 314 131 314 131 231 c 0,19,20
 131 147 131 147 169.5 100 c 128,-1,21
 208 53 208 53 277 53 c 0,22,23
 345 53 345 53 383.5 100.5 c 128,-1,24
 422 148 422 148 422 231 c 256,25,26
 422 314 422 314 383.5 361.5 c 128,-1,27
 345 409 345 409 277 409 c 0,16,17
EndSplineSet
Substitution2: "Single Substitution lookup 62 subtable" ordmasculine
EndChar

StartChar: p
Encoding: 112 112 83
Width: 876
Flags: W
LayerCount: 2
Fore
SplineSet
790 56 m 2,0,1
 790 30 790 30 776 15 c 128,-1,2
 762 0 762 0 732 0 c 2,3,-1
 353 0 l 2,4,5
 334 0 334 0 320.5 13 c 128,-1,6
 307 26 307 26 307 49 c 1,7,8
 327 66 327 66 341 94.5 c 128,-1,9
 355 123 355 123 355 163 c 0,10,11
 355 213 355 213 325 249.5 c 128,-1,12
 295 286 295 286 237 286 c 256,13,14
 179 286 179 286 149 249 c 128,-1,15
 119 212 119 212 119 159 c 0,16,17
 119 110 119 110 137 79 c 128,-1,18
 155 48 155 48 176 32 c 1,19,20
 175 18 175 18 164.5 7 c 128,-1,21
 154 -4 154 -4 137 -4 c 0,22,23
 114 -4 114 -4 92.5 17.5 c 128,-1,24
 71 39 71 39 57.5 76 c 128,-1,25
 44 113 44 113 44 159 c 0,26,27
 44 215 44 215 67.5 258 c 128,-1,28
 91 301 91 301 134.5 325.5 c 128,-1,29
 178 350 178 350 237 350 c 256,30,31
 296 350 296 350 339.5 325.5 c 128,-1,32
 383 301 383 301 406.5 260 c 128,-1,33
 430 219 430 219 430 167 c 0,34,35
 430 129 430 129 415 93.5 c 128,-1,36
 400 58 400 58 380 40 c 1,37,-1
 381 62 l 1,38,-1
 716 62 l 1,39,-1
 716 553 l 1,40,41
 721 555 721 555 730.5 557.5 c 128,-1,42
 740 560 740 560 750 560 c 0,43,44
 772 560 772 560 781 550.5 c 128,-1,45
 790 541 790 541 790 518 c 2,46,-1
 790 56 l 2,0,1
EndSplineSet
EndChar

StartChar: q
Encoding: 113 113 84
Width: 546
Flags: W
LayerCount: 2
Fore
SplineSet
471 248 m 5,0,-1
 391 249 l 5,1,-1
 391 566 l 5,2,3
 374 577 374 577 348.5 585.5 c 132,-1,4
 323 594 323 594 288 594 c 4,5,6
 245 594 245 594 209.5 576 c 132,-1,7
 174 558 174 558 152.5 518 c 132,-1,8
 131 478 131 478 131 413 c 4,9,10
 131 321 131 321 174 279.5 c 132,-1,11
 217 238 217 238 287 238 c 4,12,13
 323 238 323 238 353 250.5 c 132,-1,14
 383 263 383 263 400 280 c 5,15,-1
 400 207 l 5,16,17
 380 193 380 193 349.5 182.5 c 132,-1,18
 319 172 319 172 275 172 c 4,19,20
 210 172 210 172 158.5 197 c 132,-1,21
 107 222 107 222 78 275.5 c 132,-1,22
 49 329 49 329 49 413 c 260,23,24
 49 497 49 497 80.5 552 c 132,-1,25
 112 607 112 607 165.5 633.5 c 132,-1,26
 219 660 219 660 286 660 c 4,27,28
 334 660 334 660 373 648 c 132,-1,29
 412 636 412 636 438 620 c 4,30,31
 453 611 453 611 462 598 c 132,-1,32
 471 585 471 585 471 567 c 6,33,-1
 471 248 l 5,0,-1
391 263 m 5,34,-1
 471 265 l 5,35,-1
 471 2 l 5,36,37
 466 0 466 0 455.5 -2.5 c 132,-1,38
 445 -5 445 -5 434 -5 c 4,39,40
 412 -5 412 -5 401.5 4 c 132,-1,41
 391 13 391 13 391 32 c 6,42,-1
 391 263 l 5,34,-1
EndSplineSet
EndChar

StartChar: r
Encoding: 114 114 85
Width: 707
Flags: W
LayerCount: 2
Fore
SplineSet
352 567 m 0,0,1
 443 567 443 567 510 525.5 c 128,-1,2
 577 484 577 484 614 411 c 128,-1,3
 651 338 651 338 651 243 c 0,4,5
 651 155 651 155 626.5 99.5 c 128,-1,6
 602 44 602 44 561 17.5 c 128,-1,7
 520 -9 520 -9 469 -9 c 0,8,9
 417 -9 417 -9 379.5 13 c 128,-1,10
 342 35 342 35 322 75.5 c 128,-1,11
 302 116 302 116 302 169 c 0,12,13
 302 244 302 244 335 298 c 128,-1,14
 368 352 368 352 422.5 383.5 c 128,-1,15
 477 415 477 415 542 422 c 1,16,-1
 588 369 l 1,17,18
 480 362 480 362 428.5 306.5 c 128,-1,19
 377 251 377 251 377 169 c 0,20,21
 377 117 377 117 402 86.5 c 128,-1,22
 427 56 427 56 470 56 c 0,23,24
 520 56 520 56 547.5 104.5 c 128,-1,25
 575 153 575 153 575 244 c 0,26,27
 575 293 575 293 567.5 327.5 c 128,-1,28
 560 362 560 362 551 381 c 2,29,-1
 535 412 l 1,30,31
 504 456 504 456 458.5 479 c 128,-1,32
 413 502 413 502 352 502 c 0,33,34
 287 502 287 502 237.5 473 c 128,-1,35
 188 444 188 444 160 389 c 128,-1,36
 132 334 132 334 132 256 c 0,37,38
 132 198 132 198 147.5 154 c 128,-1,39
 163 110 163 110 186 79.5 c 128,-1,40
 209 49 209 49 230 32 c 1,41,42
 228 16 228 16 217.5 6 c 128,-1,43
 207 -4 207 -4 191 -4 c 0,44,45
 173 -4 173 -4 157.5 7 c 128,-1,46
 142 18 142 18 127 36 c 0,47,48
 97 71 97 71 76.5 130 c 128,-1,49
 56 189 56 189 56 256 c 0,50,51
 56 355 56 355 93.5 424.5 c 128,-1,52
 131 494 131 494 198 530.5 c 128,-1,53
 265 567 265 567 352 567 c 0,0,1
EndSplineSet
EndChar

StartChar: s
Encoding: 115 115 86
Width: 1183
Flags: W
LayerCount: 2
Fore
SplineSet
789 196 m 2,0,1
 789 131 789 131 819.5 94.5 c 128,-1,2
 850 58 850 58 905 58 c 0,3,4
 967 58 967 58 1009 112 c 128,-1,5
 1051 166 1051 166 1051 267 c 0,6,7
 1051 355 1051 355 1010.5 419.5 c 128,-1,8
 970 484 970 484 904 522 c 1,9,10
 906 538 906 538 915.5 549.5 c 128,-1,11
 925 561 925 561 944 561 c 0,12,13
 960 561 960 561 974 554.5 c 128,-1,14
 988 548 988 548 1006 534 c 0,15,16
 1055 496 1055 496 1091 427.5 c 128,-1,17
 1127 359 1127 359 1127 267 c 0,18,19
 1127 178 1127 178 1097 116.5 c 128,-1,20
 1067 55 1067 55 1017 24 c 128,-1,21
 967 -7 967 -7 905 -7 c 0,22,23
 847 -7 847 -7 804.5 17 c 128,-1,24
 762 41 762 41 738.5 85.5 c 128,-1,25
 715 130 715 130 715 190 c 2,26,-1
 715 366 l 2,27,28
 715 431 715 431 685 465.5 c 128,-1,29
 655 500 655 500 604 500 c 0,30,31
 552 500 552 500 520 465 c 128,-1,32
 488 430 488 430 488 365 c 2,33,-1
 488 4 l 1,34,35
 484 2 484 2 474 -0.5 c 128,-1,36
 464 -3 464 -3 454 -3 c 0,37,38
 432 -3 432 -3 423 7 c 128,-1,39
 414 17 414 17 414 39 c 2,40,-1
 414 361 l 2,41,42
 414 427 414 427 380.5 463.5 c 128,-1,43
 347 500 347 500 291 500 c 0,44,45
 224 500 224 500 178 445.5 c 128,-1,46
 132 391 132 391 132 286 c 0,47,48
 132 200 132 200 169.5 136.5 c 128,-1,49
 207 73 207 73 269 35 c 1,50,51
 267 19 267 19 257.5 7.5 c 128,-1,52
 248 -4 248 -4 229 -4 c 0,53,54
 213 -4 213 -4 198 3 c 128,-1,55
 183 10 183 10 166 25 c 0,56,57
 121 63 121 63 88.5 129.5 c 128,-1,58
 56 196 56 196 56 286 c 256,59,60
 56 376 56 376 86.5 438 c 128,-1,61
 117 500 117 500 170 532.5 c 128,-1,62
 223 565 223 565 289 565 c 0,63,64
 337 565 337 565 378 544 c 128,-1,65
 419 523 419 523 444 483 c 128,-1,66
 469 443 469 443 469 385 c 1,67,-1
 434 389 l 1,68,69
 434 446 434 446 458.5 485.5 c 128,-1,70
 483 525 483 525 522 545 c 128,-1,71
 561 565 561 565 606 565 c 0,72,73
 661 565 661 565 702 542 c 128,-1,74
 743 519 743 519 766 476 c 128,-1,75
 789 433 789 433 789 373 c 2,76,-1
 789 196 l 2,0,1
EndSplineSet
EndChar

StartChar: t
Encoding: 116 116 87
Width: 372
Flags: W
LayerCount: 2
Fore
SplineSet
76 264 m 1,0,-1
 156 264 l 1,1,-1
 156 126 l 2,2,3
 156 86 156 86 179 69.5 c 128,-1,4
 202 53 202 53 242 53 c 0,5,6
 259 53 259 53 280 59 c 128,-1,7
 301 65 301 65 315 73 c 1,8,9
 321 67 321 67 326 58 c 128,-1,10
 331 49 331 49 331 37 c 0,11,12
 331 15 331 15 305 1 c 128,-1,13
 279 -13 279 -13 233 -13 c 0,14,15
 163 -13 163 -13 119.5 18 c 128,-1,16
 76 49 76 49 76 121 c 2,17,-1
 76 264 l 1,0,-1
117 386 m 1,18,-1
 117 452 l 1,19,-1
 320 452 l 1,20,21
 323 448 323 448 326 439 c 128,-1,22
 329 430 329 430 329 420 c 0,23,24
 329 404 329 404 321 395 c 128,-1,25
 313 386 313 386 299 386 c 2,26,-1
 117 386 l 1,18,-1
156 234 m 1,27,-1
 76 234 l 1,28,-1
 76 596 l 1,29,30
 81 598 81 598 91.5 600.5 c 128,-1,31
 102 603 102 603 114 603 c 0,32,33
 135 603 135 603 145.5 594.5 c 128,-1,34
 156 586 156 586 156 567 c 2,35,-1
 156 234 l 1,27,-1
EndSplineSet
EndChar

StartChar: u
Encoding: 117 117 88
Width: 550
Flags: W
LayerCount: 2
Fore
SplineSet
75 169 m 2,0,-1
 75 260 l 1,1,-1
 155 260 l 1,2,-1
 155 173 l 2,3,4
 155 109 155 109 189 81 c 128,-1,5
 223 53 223 53 283 53 c 0,6,7
 323 53 323 53 351 61.5 c 128,-1,8
 379 70 379 70 395 79 c 1,9,-1
 395 260 l 1,10,-1
 475 260 l 1,11,-1
 475 82 l 2,12,13
 475 61 475 61 469.5 48.5 c 128,-1,14
 464 36 464 36 443 24 c 0,15,16
 421 11 421 11 380 -1 c 128,-1,17
 339 -13 339 -13 282 -13 c 0,18,19
 216 -13 216 -13 169.5 6.5 c 128,-1,20
 123 26 123 26 99 66.5 c 128,-1,21
 75 107 75 107 75 169 c 2,0,-1
475 208 m 1,22,-1
 395 208 l 1,23,-1
 395 460 l 1,24,25
 400 462 400 462 410.5 464.5 c 128,-1,26
 421 467 421 467 432 467 c 0,27,28
 454 467 454 467 464.5 458.5 c 128,-1,29
 475 450 475 450 475 430 c 2,30,-1
 475 208 l 1,22,-1
155 208 m 1,31,-1
 75 208 l 1,32,-1
 75 460 l 1,33,34
 80 462 80 462 90.5 464.5 c 128,-1,35
 101 467 101 467 113 467 c 0,36,37
 134 467 134 467 144.5 458.5 c 128,-1,38
 155 450 155 450 155 430 c 2,39,-1
 155 208 l 1,31,-1
EndSplineSet
EndChar

StartChar: v
Encoding: 118 118 89
Width: 918
Flags: W
LayerCount: 2
Fore
SplineSet
758 553 m 1,0,1
 762 555 762 555 773 557.5 c 128,-1,2
 784 560 784 560 792 560 c 0,3,4
 815 560 815 560 823.5 550 c 128,-1,5
 832 540 832 540 832 518 c 2,6,-1
 832 56 l 2,7,8
 832 30 832 30 818 15 c 128,-1,9
 804 0 804 0 774 0 c 2,10,-1
 446 0 l 2,11,12
 427 0 427 0 414.5 12 c 128,-1,13
 402 24 402 24 402 48 c 1,14,15
 450 82 450 82 481 138.5 c 128,-1,16
 512 195 512 195 512 275 c 0,17,18
 512 347 512 347 487 397.5 c 128,-1,19
 462 448 462 448 419.5 474.5 c 128,-1,20
 377 501 377 501 322 501 c 0,21,22
 268 501 268 501 225 474.5 c 128,-1,23
 182 448 182 448 157 397.5 c 128,-1,24
 132 347 132 347 132 275 c 0,25,26
 132 192 132 192 164 132 c 128,-1,27
 196 72 196 72 249 36 c 1,28,29
 248 20 248 20 238.5 8 c 128,-1,30
 229 -4 229 -4 209 -4 c 0,31,32
 193 -4 193 -4 177 6 c 128,-1,33
 161 16 161 16 145 32 c 0,34,35
 108 70 108 70 82 131 c 128,-1,36
 56 192 56 192 56 275 c 0,37,38
 56 366 56 366 90 431 c 128,-1,39
 124 496 124 496 184 531 c 128,-1,40
 244 566 244 566 322 566 c 256,41,42
 400 566 400 566 460 531 c 128,-1,43
 520 496 520 496 554 431.5 c 128,-1,44
 588 367 588 367 588 277 c 0,45,46
 588 222 588 222 572.5 174.5 c 128,-1,47
 557 127 557 127 532.5 91 c 128,-1,48
 508 55 508 55 480 35 c 1,49,-1
 453 62 l 1,50,-1
 758 62 l 1,51,-1
 758 553 l 1,0,1
EndSplineSet
EndChar

StartChar: w
Encoding: 119 119 90
Width: 729
Flags: W
LayerCount: 2
Fore
SplineSet
366 344 m 1,0,-1
 366 344 l 1,1,2
 348 281 348 281 327.5 218 c 128,-1,3
 307 155 307 155 288 100 c 128,-1,4
 269 45 269 45 253 5 c 1,5,6
 245 0 245 0 235 -3 c 128,-1,7
 225 -6 225 -6 208 -6 c 0,8,9
 192 -6 192 -6 178.5 -0.5 c 128,-1,10
 165 5 165 5 160 17 c 0,11,12
 150 37 150 37 137.5 75 c 128,-1,13
 125 113 125 113 111.5 162 c 128,-1,14
 98 211 98 211 84 263.5 c 128,-1,15
 70 316 70 316 58.5 365 c 128,-1,16
 47 414 47 414 39 452 c 1,17,18
 46 459 46 459 56.5 465 c 128,-1,19
 67 471 67 471 82 471 c 0,20,21
 101 471 101 471 110.5 460.5 c 128,-1,22
 120 450 120 450 124 427 c 0,23,24
 133 385 133 385 144.5 332 c 128,-1,25
 156 279 156 279 168.5 227 c 128,-1,26
 181 175 181 175 191.5 133.5 c 128,-1,27
 202 92 202 92 207 72 c 1,28,-1
 211 72 l 1,29,30
 219 96 219 96 236 150.5 c 128,-1,31
 253 205 253 205 276.5 275 c 128,-1,32
 300 345 300 345 324 417 c 1,33,34
 332 422 332 422 343 424.5 c 128,-1,35
 354 427 354 427 367 427 c 0,36,37
 385 427 385 427 397 420.5 c 128,-1,38
 409 414 409 414 413 401 c 0,39,40
 437 332 437 332 458 265.5 c 128,-1,41
 479 199 479 199 495 147.5 c 128,-1,42
 511 96 511 96 518 71 c 1,43,-1
 523 71 l 1,44,45
 546 160 546 160 573 262 c 128,-1,46
 600 364 600 364 617 462 c 1,47,48
 631 471 631 471 651 471 c 0,49,50
 668 471 668 471 678 463 c 128,-1,51
 688 455 688 455 688 438 c 0,52,53
 688 427 688 427 681.5 396 c 128,-1,54
 675 365 675 365 664 323 c 128,-1,55
 653 281 653 281 639.5 233.5 c 128,-1,56
 626 186 626 186 612 141.5 c 128,-1,57
 598 97 598 97 585.5 61 c 128,-1,58
 573 25 573 25 564 5 c 0,59,60
 559 1 559 1 547.5 -2.5 c 128,-1,61
 536 -6 536 -6 521 -6 c 0,62,63
 480 -6 480 -6 473 13 c 0,64,65
 459 49 459 49 441 102.5 c 128,-1,66
 423 156 423 156 404 218.5 c 128,-1,67
 385 281 385 281 366 344 c 1,0,-1
EndSplineSet
EndChar

StartChar: x
Encoding: 120 120 91
Width: 482
Flags: W
LayerCount: 2
Fore
SplineSet
214 261 m 1,0,-1
 229 268 l 1,1,2
 270 321 270 321 306 367 c 128,-1,3
 342 413 342 413 380 468 c 0,4,5
 384 469 384 469 386 469 c 128,-1,6
 388 469 388 469 391 469 c 0,7,8
 412 469 412 469 424 459.5 c 128,-1,9
 436 450 436 450 436 434 c 0,10,11
 436 423 436 423 431.5 413 c 128,-1,12
 427 403 427 403 417 390 c 0,13,14
 383 348 383 348 347.5 305 c 128,-1,15
 312 262 312 262 278 221 c 1,16,-1
 252 199 l 1,17,18
 215 150 215 150 176 97.5 c 128,-1,19
 137 45 137 45 101 -5 c 0,20,21
 100 -5 100 -5 94.5 -5 c 128,-1,22
 89 -5 89 -5 87 -5 c 0,23,24
 64 -5 64 -5 52.5 5 c 128,-1,25
 41 15 41 15 41 30 c 0,26,27
 41 38 41 38 44.5 47 c 128,-1,28
 48 56 48 56 61 72 c 0,29,30
 97 120 97 120 137 166.5 c 128,-1,31
 177 213 177 213 214 261 c 1,0,-1
263 259 m 1,32,-1
 281 247 l 1,33,34
 322 193 322 193 363.5 140.5 c 128,-1,35
 405 88 405 88 446 35 c 1,36,37
 444 16 444 16 433 5 c 128,-1,38
 422 -6 422 -6 404 -6 c 0,39,40
 388 -6 388 -6 377 2.5 c 128,-1,41
 366 11 366 11 352 29 c 0,42,43
 322 71 322 71 288.5 118 c 128,-1,44
 255 165 255 165 225 206 c 1,45,-1
 202 227 l 1,46,47
 158 280 158 280 120 328 c 128,-1,48
 82 376 82 376 42 427 c 1,49,50
 46 447 46 447 57 458 c 128,-1,51
 68 469 68 469 84 469 c 0,52,53
 101 469 101 469 111 460.5 c 128,-1,54
 121 452 121 452 131 438 c 0,55,56
 161 398 161 398 194 350.5 c 128,-1,57
 227 303 227 303 263 259 c 1,32,-1
EndSplineSet
EndChar

StartChar: y
Encoding: 121 121 92
Width: 973
Flags: W
LayerCount: 2
Fore
SplineSet
366 -5 m 0,0,1
 275 -5 275 -5 205 35 c 128,-1,2
 135 75 135 75 95.5 152.5 c 128,-1,3
 56 230 56 230 56 341 c 0,4,5
 56 409 56 409 78.5 458.5 c 128,-1,6
 101 508 101 508 140.5 535.5 c 128,-1,7
 180 563 180 563 231 563 c 0,8,9
 273 563 273 563 304.5 545.5 c 128,-1,10
 336 528 336 528 354.5 495 c 128,-1,11
 373 462 373 462 374 416 c 1,12,-1
 344 405 l 1,13,14
 347 449 347 449 366.5 484.5 c 128,-1,15
 386 520 386 520 421 541.5 c 128,-1,16
 456 563 456 563 503 563 c 0,17,18
 554 563 554 563 594.5 540.5 c 128,-1,19
 635 518 635 518 659 470 c 128,-1,20
 683 422 683 422 683 346 c 0,21,22
 683 251 683 251 653 175.5 c 128,-1,23
 623 100 623 100 557 56 c 0,24,25
 555 55 555 55 551 53 c 128,-1,26
 547 51 547 51 542 48.5 c 128,-1,27
 537 46 537 46 532.5 43.5 c 128,-1,28
 528 41 528 41 525 39 c 0,29,30
 493 21 493 21 457 8 c 128,-1,31
 421 -5 421 -5 366 -5 c 0,0,1
462 46 m 1,32,33
 457 49 457 49 452.5 52 c 128,-1,34
 448 55 448 55 445 56 c 0,35,36
 382 105 382 105 350.5 178.5 c 128,-1,37
 319 252 319 252 319 352 c 2,38,-1
 319 387 l 2,39,40
 319 440 319 440 296.5 469 c 128,-1,41
 274 498 274 498 236 498 c 0,42,43
 192 498 192 498 162 461.5 c 128,-1,44
 132 425 132 425 132 341 c 0,45,46
 132 251 132 251 162.5 187 c 128,-1,47
 193 123 193 123 246.5 89 c 128,-1,48
 300 55 300 55 370 55 c 0,49,50
 405 55 405 55 429 61.5 c 128,-1,51
 453 68 453 68 475 75 c 0,52,53
 478 76 478 76 481.5 78 c 128,-1,54
 485 80 485 80 489 81.5 c 128,-1,55
 493 83 493 83 495 84 c 0,56,57
 547 116 547 116 577 187 c 128,-1,58
 607 258 607 258 607 346 c 0,59,60
 607 425 607 425 577.5 461.5 c 128,-1,61
 548 498 548 498 501 498 c 0,62,63
 455 498 455 498 425 461.5 c 128,-1,64
 395 425 395 425 395 346 c 0,65,66
 395 258 395 258 425 187 c 128,-1,67
 455 116 455 116 507 84 c 0,68,69
 509 83 509 83 512 82.5 c 128,-1,70
 515 82 515 82 519 80 c 2,71,-1
 462 46 l 1,32,33
636 -5 m 0,72,73
 581 -5 581 -5 545 8 c 128,-1,74
 509 21 509 21 477 39 c 0,75,76
 473 41 473 41 469.5 43 c 128,-1,77
 466 45 466 45 462 46 c 2,78,-1
 519 80 l 2,79,80
 522 79 522 79 525 77.5 c 128,-1,81
 528 76 528 76 531 74 c 0,82,83
 546 68 546 68 571.5 61.5 c 128,-1,84
 597 55 597 55 632 55 c 0,85,86
 696 55 696 55 743 84.5 c 128,-1,87
 790 114 790 114 815.5 169 c 128,-1,88
 841 224 841 224 841 302 c 0,89,90
 841 382 841 382 811.5 438 c 128,-1,91
 782 494 782 494 743 525 c 1,92,93
 745 542 745 542 756 551.5 c 128,-1,94
 767 561 767 561 784 561 c 0,95,96
 803 561 803 561 825.5 542 c 128,-1,97
 848 523 848 523 869 488.5 c 128,-1,98
 890 454 890 454 903.5 406.5 c 128,-1,99
 917 359 917 359 917 302 c 0,100,101
 917 203 917 203 882 134.5 c 128,-1,102
 847 66 847 66 784 30.5 c 128,-1,103
 721 -5 721 -5 636 -5 c 0,72,73
EndSplineSet
EndChar

StartChar: z
Encoding: 122 122 93
Width: 890
Flags: W
LayerCount: 2
Fore
SplineSet
530 184 m 1,0,1
 523 177 523 177 514 174 c 128,-1,2
 505 171 505 171 493 171 c 256,3,4
 481 171 481 171 472 174.5 c 128,-1,5
 463 178 463 178 456 184 c 1,6,-1
 456 331 l 2,7,8
 456 408 456 408 413 454 c 128,-1,9
 370 500 370 500 292 500 c 0,10,11
 217 500 217 500 177 465 c 128,-1,12
 137 430 137 430 123 381 c 1,13,-1
 126 380 l 1,14,15
 137 395 137 395 161 410 c 128,-1,16
 185 425 185 425 220 425 c 0,17,18
 279 425 279 425 315 385.5 c 128,-1,19
 351 346 351 346 351 287 c 0,20,21
 351 223 351 223 309.5 184.5 c 128,-1,22
 268 146 268 146 202 146 c 256,23,24
 136 146 136 146 93.5 191.5 c 128,-1,25
 51 237 51 237 51 321 c 0,26,27
 51 393 51 393 80.5 447.5 c 128,-1,28
 110 502 110 502 164 533 c 128,-1,29
 218 564 218 564 292 564 c 0,30,31
 355 564 355 564 403.5 539.5 c 128,-1,32
 452 515 452 515 480 471 c 128,-1,33
 508 427 508 427 508 370 c 1,34,-1
 475 387 l 1,35,36
 475 446 475 446 498.5 485 c 128,-1,37
 522 524 522 524 560.5 544 c 128,-1,38
 599 564 599 564 642 564 c 0,39,40
 700 564 700 564 744.5 538 c 128,-1,41
 789 512 789 512 814 461.5 c 128,-1,42
 839 411 839 411 839 337 c 0,43,44
 839 248 839 248 808.5 189 c 128,-1,45
 778 130 778 130 731 98 c 128,-1,46
 684 66 684 66 633 58 c 1,47,-1
 592 45 l 2,48,49
 563 39 563 39 530 35.5 c 128,-1,50
 497 32 497 32 460 30.5 c 128,-1,51
 423 29 423 29 381 29 c 2,52,-1
 203 29 l 2,53,54
 169 29 169 29 148.5 12 c 128,-1,55
 128 -5 128 -5 128 -34 c 0,56,57
 128 -68 128 -68 153 -87.5 c 128,-1,58
 178 -107 178 -107 233 -107 c 0,59,60
 295 -107 295 -107 359 -84.5 c 128,-1,61
 423 -62 423 -62 480 -27 c 128,-1,62
 537 8 537 8 578 43 c 0,63,64
 597 61 597 61 613.5 72.5 c 128,-1,65
 630 84 630 84 643 90 c 128,-1,66
 656 96 656 96 666 98.5 c 128,-1,67
 676 101 676 101 682 101.5 c 128,-1,68
 688 102 688 102 690 102 c 0,69,70
 737 102 737 102 769 85 c 128,-1,71
 801 68 801 68 818 39 c 128,-1,72
 835 10 835 10 835 -28 c 0,73,74
 835 -88 835 -88 797.5 -129 c 128,-1,75
 760 -170 760 -170 689 -170 c 0,76,77
 642 -170 642 -170 610.5 -150.5 c 128,-1,78
 579 -131 579 -131 564.5 -98 c 128,-1,79
 550 -65 550 -65 552 -27 c 1,80,81
 552 -27 552 -27 556.5 -14 c 128,-1,82
 561 -1 561 -1 569 6 c 1,83,-1
 601 -15 l 1,84,-1
 570 -30 l 1,85,86
 549 -49 549 -49 515 -73 c 128,-1,87
 481 -97 481 -97 436 -119 c 128,-1,88
 391 -141 391 -141 339 -155 c 128,-1,89
 287 -169 287 -169 231 -169 c 0,90,91
 177 -169 177 -169 137.5 -154 c 128,-1,92
 98 -139 98 -139 76.5 -108.5 c 128,-1,93
 55 -78 55 -78 55 -34 c 0,94,95
 55 6 55 6 73.5 33.5 c 128,-1,96
 92 61 92 61 124.5 75.5 c 128,-1,97
 157 90 157 90 200 90 c 2,98,-1
 543 90 l 2,99,100
 644 90 644 90 703.5 152 c 128,-1,101
 763 214 763 214 763 337 c 0,102,103
 763 416 763 416 729 457.5 c 128,-1,104
 695 499 695 499 640 499 c 0,105,106
 590 499 590 499 560 465.5 c 128,-1,107
 530 432 530 432 530 371 c 2,108,-1
 530 332 l 1,109,-1
 530 184 l 1,0,1
202 365 m 0,110,111
 168 365 168 365 146.5 343 c 128,-1,112
 125 321 125 321 125 286 c 256,113,114
 125 251 125 251 146.5 229 c 128,-1,115
 168 207 168 207 202 207 c 0,116,117
 237 207 237 207 258 229 c 128,-1,118
 279 251 279 251 279 286 c 256,119,120
 279 321 279 321 258 343 c 128,-1,121
 237 365 237 365 202 365 c 0,110,111
688 -113 m 0,122,123
 724 -113 724 -113 745 -89 c 128,-1,124
 766 -65 766 -65 766 -28 c 0,125,126
 766 6 766 6 745 29.5 c 128,-1,127
 724 53 724 53 688 53 c 0,128,129
 651 53 651 53 630 29.5 c 128,-1,130
 609 6 609 6 609 -29 c 0,131,132
 609 -66 609 -66 630 -89.5 c 128,-1,133
 651 -113 651 -113 688 -113 c 0,122,123
EndSplineSet
EndChar

StartChar: braceleft
Encoding: 123 123 94
Width: 281
Flags: W
LayerCount: 2
Fore
SplineSet
122 275 m 1,0,1
 155 258 155 258 173.5 223.5 c 128,-1,2
 192 189 192 189 192 136 c 2,3,-1
 192 5 l 2,4,5
 192 -30 192 -30 205.5 -44.5 c 128,-1,6
 219 -59 219 -59 248 -60 c 1,7,8
 250 -66 250 -66 250.5 -71.5 c 128,-1,9
 251 -77 251 -77 251 -83 c 0,10,11
 251 -97 251 -97 242 -106 c 128,-1,12
 233 -115 233 -115 215 -115 c 0,13,14
 173 -115 173 -115 146.5 -85 c 128,-1,15
 120 -55 120 -55 120 5 c 2,16,-1
 120 128 l 2,17,18
 120 181 120 181 101 209.5 c 128,-1,19
 82 238 82 238 44 244 c 1,20,21
 40 249 40 249 38.5 258.5 c 128,-1,22
 37 268 37 268 37 275 c 256,23,24
 37 282 37 282 39 291 c 128,-1,25
 41 300 41 300 44 306 c 1,26,27
 82 312 82 312 101 340.5 c 128,-1,28
 120 369 120 369 120 421 c 2,29,-1
 120 537 l 2,30,31
 120 597 120 597 146.5 626.5 c 128,-1,32
 173 656 173 656 215 656 c 0,33,34
 233 656 233 656 242 647.5 c 128,-1,35
 251 639 251 639 251 624 c 0,36,37
 251 618 251 618 250.5 612.5 c 128,-1,38
 250 607 250 607 248 601 c 1,39,40
 219 601 219 601 205.5 586.5 c 128,-1,41
 192 572 192 572 192 536 c 2,42,-1
 192 414 l 2,43,44
 192 361 192 361 173.5 326.5 c 128,-1,45
 155 292 155 292 122 275 c 1,0,1
EndSplineSet
EndChar

StartChar: bar
Encoding: 124 124 95
Width: 251
Flags: W
LayerCount: 2
Fore
SplineSet
162 641 m 2,0,-1
 162 -180 l 1,1,2
 155 -183 155 -183 146.5 -185 c 128,-1,3
 138 -187 138 -187 127 -187 c 0,4,5
 108 -187 108 -187 98.5 -178 c 128,-1,6
 89 -169 89 -169 89 -147 c 2,7,-1
 89 674 l 1,8,9
 97 677 97 677 105 679 c 128,-1,10
 113 681 113 681 124 681 c 0,11,12
 144 681 144 681 153 672 c 128,-1,13
 162 663 162 663 162 641 c 2,0,-1
EndSplineSet
EndChar

StartChar: braceright
Encoding: 125 125 96
Width: 281
Flags: W
LayerCount: 2
Fore
SplineSet
159 275 m 1,0,1
 126 292 126 292 107.5 326.5 c 128,-1,2
 89 361 89 361 89 414 c 2,3,-1
 89 536 l 2,4,5
 89 572 89 572 75.5 586.5 c 128,-1,6
 62 601 62 601 33 601 c 1,7,8
 32 607 32 607 31 612.5 c 128,-1,9
 30 618 30 618 30 624 c 0,10,11
 30 639 30 639 39 647.5 c 128,-1,12
 48 656 48 656 66 656 c 0,13,14
 108 656 108 656 134.5 626.5 c 128,-1,15
 161 597 161 597 161 537 c 2,16,-1
 161 421 l 2,17,18
 161 369 161 369 180 340.5 c 128,-1,19
 199 312 199 312 237 306 c 1,20,21
 240 300 240 300 242 291 c 128,-1,22
 244 282 244 282 244 275 c 256,23,24
 244 268 244 268 242.5 258.5 c 128,-1,25
 241 249 241 249 237 244 c 1,26,27
 199 238 199 238 180 209.5 c 128,-1,28
 161 181 161 181 161 128 c 2,29,-1
 161 5 l 2,30,31
 161 -55 161 -55 134.5 -85 c 128,-1,32
 108 -115 108 -115 66 -115 c 0,33,34
 48 -115 48 -115 39 -106 c 128,-1,35
 30 -97 30 -97 30 -83 c 0,36,37
 30 -77 30 -77 31 -71.5 c 128,-1,38
 32 -66 32 -66 33 -60 c 1,39,40
 62 -59 62 -59 75.5 -44.5 c 128,-1,41
 89 -30 89 -30 89 5 c 2,42,-1
 89 136 l 2,43,44
 89 189 89 189 107.5 223.5 c 128,-1,45
 126 258 126 258 159 275 c 1,0,1
EndSplineSet
EndChar

StartChar: asciitilde
Encoding: 126 126 97
Width: 448
Flags: W
LayerCount: 2
Fore
SplineSet
312 282 m 0,0,1
 339 282 339 282 350.5 296.5 c 128,-1,2
 362 311 362 311 370 327 c 1,3,4
 392 327 392 327 407.5 315 c 128,-1,5
 423 303 423 303 423 283 c 0,6,7
 423 252 423 252 397 232.5 c 128,-1,8
 371 213 371 213 329 213 c 0,9,10
 289 213 289 213 255 223.5 c 128,-1,11
 221 234 221 234 192 244 c 128,-1,12
 163 254 163 254 136 254 c 256,13,14
 109 254 109 254 97.5 239.5 c 128,-1,15
 86 225 86 225 78 209 c 1,16,17
 56 209 56 209 40.5 221 c 128,-1,18
 25 233 25 233 25 253 c 0,19,20
 25 274 25 274 37 290 c 128,-1,21
 49 306 49 306 70.5 314.5 c 128,-1,22
 92 323 92 323 119 323 c 0,23,24
 160 323 160 323 194 313 c 128,-1,25
 228 303 228 303 257 292.5 c 128,-1,26
 286 282 286 282 312 282 c 0,0,1
EndSplineSet
EndChar

StartChar: exclamdown
Encoding: 161 161 99
Width: 250
Flags: W
LayerCount: 2
Fore
SplineSet
86 -126 m 0,0,1
 86 -96 86 -96 86.5 -47.5 c 128,-1,2
 87 1 87 1 88.5 57.5 c 128,-1,3
 90 114 90 114 92 169.5 c 128,-1,4
 94 225 94 225 96 269 c 1,5,6
 102 274 102 274 110.5 276.5 c 128,-1,7
 119 279 119 279 129 279 c 0,8,9
 143 279 143 279 152 273 c 128,-1,10
 161 267 161 267 162 254 c 0,11,12
 164 225 164 225 166 174 c 128,-1,13
 168 123 168 123 169 62.5 c 128,-1,14
 170 2 170 2 170.5 -56 c 128,-1,15
 171 -114 171 -114 171 -156 c 1,16,17
 150 -169 150 -169 126 -169 c 0,18,19
 107 -169 107 -169 96.5 -158.5 c 128,-1,20
 86 -148 86 -148 86 -126 c 0,0,1
184 411 m 256,21,22
 184 387 184 387 169 371 c 128,-1,23
 154 355 154 355 128 355 c 256,24,25
 102 355 102 355 87 371 c 128,-1,26
 72 387 72 387 72 411 c 256,27,28
 72 435 72 435 87 451 c 128,-1,29
 102 467 102 467 128 467 c 256,30,31
 154 467 154 467 169 451 c 128,-1,32
 184 435 184 435 184 411 c 256,21,22
EndSplineSet
EndChar

StartChar: cent
Encoding: 162 162 100
Width: 719
Flags: W
LayerCount: 2
Fore
SplineSet
562 568 m 1,0,-1
 633 568 l 1,1,-1
 633 -7 l 1,2,3
 627 -8 627 -8 619.5 -9.5 c 128,-1,4
 612 -11 612 -11 604 -11 c 0,5,6
 583 -11 583 -11 572.5 -2.5 c 128,-1,7
 562 6 562 6 562 23 c 2,8,-1
 562 568 l 1,0,-1
743 552 m 1,9,-1
 479 552 l 2,10,11
 465 552 465 552 458 559.5 c 128,-1,12
 451 567 451 567 451 582 c 0,13,14
 451 588 451 588 452 595.5 c 128,-1,15
 453 603 453 603 455 610 c 1,16,-1
 719 610 l 2,17,18
 747 610 747 610 747 580 c 0,19,20
 747 574 747 574 746 567 c 128,-1,21
 745 560 745 560 743 552 c 1,9,-1
127 294 m 1,22,23
 123 301 123 301 121 307.5 c 128,-1,24
 119 314 119 314 119 324 c 0,25,26
 119 332 119 332 121 340.5 c 128,-1,27
 123 349 123 349 127 357 c 1,28,-1
 216 357 l 2,29,30
 263 357 263 357 290.5 383.5 c 128,-1,31
 318 410 318 410 318 455 c 0,32,33
 318 496 318 496 290.5 523.5 c 128,-1,34
 263 551 263 551 212 551 c 0,35,36
 169 551 169 551 140 536.5 c 128,-1,37
 111 522 111 522 94 505 c 1,38,39
 81 511 81 511 72 521 c 128,-1,40
 63 531 63 531 63 545 c 0,41,42
 63 563 63 563 82.5 579.5 c 128,-1,43
 102 596 102 596 136 606 c 128,-1,44
 170 616 170 616 212 616 c 0,45,46
 262 616 262 616 303 597.5 c 128,-1,47
 344 579 344 579 368.5 544.5 c 128,-1,48
 393 510 393 510 393 461 c 0,49,50
 393 417 393 417 374 387 c 128,-1,51
 355 357 355 357 332 341 c 1,52,53
 341 337 341 337 360.5 333 c 128,-1,54
 380 329 380 329 403 326.5 c 128,-1,55
 426 324 426 324 444 324 c 0,56,57
 513 324 513 324 563 343 c 1,58,-1
 582 274 l 1,59,60
 563 268 563 268 543.5 265 c 128,-1,61
 524 262 524 262 489 262 c 0,62,63
 457 262 457 262 418 269 c 128,-1,64
 379 276 379 276 358 283 c 1,65,-1
 356 280 l 1,66,67
 376 264 376 264 389 235.5 c 128,-1,68
 402 207 402 207 402 177 c 0,69,70
 402 110 402 110 349.5 67 c 128,-1,71
 297 24 297 24 205 24 c 0,72,73
 173 24 173 24 144 29 c 128,-1,74
 115 34 115 34 92.5 43.5 c 128,-1,75
 70 53 70 53 57 66.5 c 128,-1,76
 44 80 44 80 44 96 c 0,77,78
 44 113 44 113 52.5 122.5 c 128,-1,79
 61 132 61 132 71 136 c 1,80,81
 96 114 96 114 128 101.5 c 128,-1,82
 160 89 160 89 205 89 c 0,83,84
 261 89 261 89 294.5 116.5 c 128,-1,85
 328 144 328 144 328 190 c 0,86,87
 328 238 328 238 297.5 266 c 128,-1,88
 267 294 267 294 220 294 c 2,89,-1
 127 294 l 1,22,23
EndSplineSet
EndChar

StartChar: sterling
Encoding: 163 163 101
Width: 276
Flags: W
LayerCount: 2
Fore
SplineSet
373 229 m 1,0,-1
 399 181 l 1,1,2
 391 164 391 164 371 144 c 128,-1,3
 351 124 351 124 318.5 110.5 c 128,-1,4
 286 97 286 97 239 97 c 0,5,6
 191 97 191 97 148.5 117 c 128,-1,7
 106 137 106 137 79 176.5 c 128,-1,8
 52 216 52 216 52 275 c 0,9,10
 52 327 52 327 76 365 c 128,-1,11
 100 403 100 403 140 423.5 c 128,-1,12
 180 444 180 444 228 444 c 0,13,14
 272 444 272 444 290.5 431.5 c 128,-1,15
 309 419 309 419 309 401 c 0,16,17
 309 391 309 391 305.5 384.5 c 128,-1,18
 302 378 302 378 297 372 c 1,19,20
 284 377 284 377 273 379.5 c 128,-1,21
 262 382 262 382 246 382 c 0,22,23
 192 382 192 382 159.5 353 c 128,-1,24
 127 324 127 324 127 271 c 0,25,26
 127 222 127 222 159.5 191 c 128,-1,27
 192 160 192 160 247 160 c 0,28,29
 287 160 287 160 313 172.5 c 128,-1,30
 339 185 339 185 353.5 201.5 c 128,-1,31
 368 218 368 218 373 229 c 1,0,-1
425 304 m 1,32,-1
 394 342 l 1,33,34
 417 383 417 383 457.5 412.5 c 128,-1,35
 498 442 498 442 565 442 c 0,36,37
 619 442 619 442 659.5 419.5 c 128,-1,38
 700 397 700 397 722.5 358 c 128,-1,39
 745 319 745 319 745 269 c 0,40,41
 745 214 745 214 721 174.5 c 128,-1,42
 697 135 697 135 657 114 c 128,-1,43
 617 93 617 93 569 93 c 0,44,45
 537 93 537 93 520.5 102.5 c 128,-1,46
 504 112 504 112 504 132 c 0,47,48
 504 142 504 142 506.5 148.5 c 128,-1,49
 509 155 509 155 511 159 c 1,50,51
 517 158 517 158 530 156.5 c 128,-1,52
 543 155 543 155 551 155 c 0,53,54
 601 155 601 155 635.5 184 c 128,-1,55
 670 213 670 213 670 270 c 0,56,57
 670 318 670 318 638 348.5 c 128,-1,58
 606 379 606 379 551 379 c 0,59,60
 511 379 511 379 476 355.5 c 128,-1,61
 441 332 441 332 425 304 c 1,32,-1
801 552 m 1,62,-1
 0 552 l 2,63,64
 -14 552 -14 552 -21 559.5 c 128,-1,65
 -28 567 -28 567 -28 582 c 0,66,67
 -28 588 -28 588 -27 595.5 c 128,-1,68
 -26 603 -26 603 -24 610 c 1,69,-1
 777 610 l 2,70,71
 805 610 805 610 805 580 c 0,72,73
 805 574 805 574 804 567 c 128,-1,74
 803 560 803 560 801 552 c 1,62,-1
367 568 m 1,75,-1
 438 568 l 1,76,-1
 438 -7 l 1,77,78
 432 -8 432 -8 424.5 -9.5 c 128,-1,79
 417 -11 417 -11 409 -11 c 0,80,81
 388 -11 388 -11 377.5 -2.5 c 128,-1,82
 367 6 367 6 367 23 c 2,83,-1
 367 568 l 1,75,-1
EndSplineSet
EndChar

StartChar: currency
Encoding: 164 164 102
Width: 272
Flags: W
LayerCount: 2
Fore
SplineSet
148 555 m 1,0,-1
 215 570 l 1,1,2
 247 549 247 549 271.5 509.5 c 128,-1,3
 296 470 296 470 296 413 c 0,4,5
 296 353 296 353 257.5 306 c 128,-1,6
 219 259 219 259 145 247 c 1,7,8
 171 185 171 185 214 142.5 c 128,-1,9
 257 100 257 100 310 77.5 c 128,-1,10
 363 55 363 55 418 53 c 1,11,12
 423 43 423 43 423 29 c 0,13,14
 423 7 423 7 410.5 -1.5 c 128,-1,15
 398 -10 398 -10 379 -10 c 0,16,17
 313 -10 313 -10 252.5 23 c 128,-1,18
 192 56 192 56 145.5 113 c 128,-1,19
 99 170 99 170 75 241 c 1,20,21
 48 243 48 243 36.5 252.5 c 128,-1,22
 25 262 25 262 25 277 c 0,23,24
 25 287 25 287 28 296 c 128,-1,25
 31 305 31 305 36 312 c 1,26,27
 47 310 47 310 63.5 308 c 128,-1,28
 80 306 80 306 95 306 c 0,29,30
 154 306 154 306 189 336 c 128,-1,31
 224 366 224 366 224 423 c 0,32,33
 224 464 224 464 202 499 c 128,-1,34
 180 534 180 534 148 555 c 1,0,-1
424 304 m 0,35,36
 424 264 424 264 453 240 c 128,-1,37
 482 216 482 216 533 216 c 0,38,39
 563 216 563 216 590.5 229 c 128,-1,40
 618 242 618 242 631 261 c 1,41,-1
 657 212 l 1,42,43
 636 184 636 184 605 168.5 c 128,-1,44
 574 153 574 153 524 153 c 0,45,46
 478 153 478 153 439.5 173 c 128,-1,47
 401 193 401 193 378 228 c 128,-1,48
 355 263 355 263 355 309 c 0,49,50
 355 357 355 357 377 389 c 128,-1,51
 399 421 399 421 433.5 437.5 c 128,-1,52
 468 454 468 454 504 454 c 0,53,54
 542 454 542 454 561 441.5 c 128,-1,55
 580 429 580 429 580 409 c 0,56,57
 580 401 580 401 576.5 394 c 128,-1,58
 573 387 573 387 568 383 c 1,59,60
 546 392 546 392 512 392 c 0,61,62
 474 392 474 392 449 368.5 c 128,-1,63
 424 345 424 345 424 304 c 0,35,36
666 552 m 1,64,-1
 0 552 l 2,65,66
 -14 552 -14 552 -21 559.5 c 128,-1,67
 -28 567 -28 567 -28 582 c 0,68,69
 -28 588 -28 588 -27 595.5 c 128,-1,70
 -26 603 -26 603 -24 610 c 1,71,-1
 642 610 l 2,72,73
 670 610 670 610 670 580 c 0,74,75
 670 574 670 574 669 567 c 128,-1,76
 668 560 668 560 666 552 c 1,64,-1
625 568 m 1,77,-1
 696 568 l 1,78,-1
 696 -7 l 1,79,80
 690 -8 690 -8 682.5 -9.5 c 128,-1,81
 675 -11 675 -11 667 -11 c 0,82,83
 646 -11 646 -11 635.5 -2.5 c 128,-1,84
 625 6 625 6 625 23 c 2,85,-1
 625 568 l 1,77,-1
806 552 m 1,86,-1
 533 552 l 2,87,88
 519 552 519 552 512 559.5 c 128,-1,89
 505 567 505 567 505 582 c 0,90,91
 505 588 505 588 506 595.5 c 128,-1,92
 507 603 507 603 509 610 c 1,93,-1
 782 610 l 2,94,95
 810 610 810 610 810 580 c 0,96,97
 810 574 810 574 809 567 c 128,-1,98
 808 560 808 560 806 552 c 1,86,-1
EndSplineSet
EndChar

StartChar: yen
Encoding: 165 165 103
Width: 567
Flags: W
LayerCount: 2
Fore
SplineSet
117 560 m 1,0,-1
 173 580 l 1,1,2
 196 558 196 558 215.5 521 c 128,-1,3
 235 484 235 484 247 440 c 128,-1,4
 259 396 259 396 259 351 c 0,5,6
 259 286 259 286 236 245 c 128,-1,7
 213 204 213 204 177 185.5 c 128,-1,8
 141 167 141 167 102 167 c 0,9,10
 74 167 74 167 58.5 178 c 128,-1,11
 43 189 43 189 43 209 c 0,12,13
 43 218 43 218 45 225.5 c 128,-1,14
 47 233 47 233 51 240 c 1,15,16
 58 239 58 239 64.5 238 c 128,-1,17
 71 237 71 237 76 237 c 0,18,19
 127 237 127 237 156 267 c 128,-1,20
 185 297 185 297 185 370 c 0,21,22
 185 427 185 427 165 476.5 c 128,-1,23
 145 526 145 526 117 560 c 1,0,-1
451 552 m 1,24,-1
 0 552 l 2,25,26
 -14 552 -14 552 -21 559.5 c 128,-1,27
 -28 567 -28 567 -28 582 c 0,28,29
 -28 588 -28 588 -27 595.5 c 128,-1,30
 -26 603 -26 603 -24 610 c 1,31,-1
 427 610 l 2,32,33
 455 610 455 610 455 580 c 0,34,35
 455 574 455 574 454 567 c 128,-1,36
 453 560 453 560 451 552 c 1,24,-1
410 568 m 1,37,-1
 481 568 l 1,38,-1
 481 -7 l 1,39,40
 475 -8 475 -8 467.5 -9.5 c 128,-1,41
 460 -11 460 -11 452 -11 c 0,42,43
 431 -11 431 -11 420.5 -2.5 c 128,-1,44
 410 6 410 6 410 23 c 2,45,-1
 410 568 l 1,37,-1
591 552 m 1,46,-1
 318 552 l 2,47,48
 304 552 304 552 297 559.5 c 128,-1,49
 290 567 290 567 290 582 c 0,50,51
 290 588 290 588 291 595.5 c 128,-1,52
 292 603 292 603 294 610 c 1,53,-1
 567 610 l 2,54,55
 595 610 595 610 595 580 c 0,56,57
 595 574 595 574 594 567 c 128,-1,58
 593 560 593 560 591 552 c 1,46,-1
EndSplineSet
EndChar

StartChar: brokenbar
Encoding: 166 166 104
Width: 618
Flags: W
LayerCount: 2
Fore
SplineSet
239 399 m 2,0,-1
 313 399 l 1,1,2
 316 392 316 392 317.5 384.5 c 128,-1,3
 319 377 319 377 319 366 c 0,4,5
 319 356 319 356 317.5 348 c 128,-1,6
 316 340 316 340 313 333 c 1,7,-1
 242 333 l 2,8,9
 196 333 196 333 170 311 c 128,-1,10
 144 289 144 289 144 254 c 0,11,12
 144 210 144 210 180.5 187.5 c 128,-1,13
 217 165 217 165 287 165 c 0,14,15
 349 165 349 165 398.5 187 c 128,-1,16
 448 209 448 209 472 229 c 1,17,-1
 502 179 l 1,18,19
 483 161 483 161 450.5 143 c 128,-1,20
 418 125 418 125 374 113 c 128,-1,21
 330 101 330 101 275 101 c 0,22,23
 185 101 185 101 127.5 137 c 128,-1,24
 70 173 70 173 70 246 c 0,25,26
 70 284 70 284 91 315.5 c 128,-1,27
 112 347 112 347 158 363 c 1,28,29
 115 371 115 371 86.5 402.5 c 128,-1,30
 58 434 58 434 58 481 c 0,31,32
 58 507 58 507 72.5 531 c 128,-1,33
 87 555 87 555 105 564 c 1,34,-1
 199 564 l 1,35,36
 176 557 176 557 154.5 535.5 c 128,-1,37
 133 514 133 514 133 478 c 0,38,39
 133 444 133 444 160 421.5 c 128,-1,40
 187 399 187 399 239 399 c 2,0,-1
502 552 m 1,41,-1
 0 552 l 2,42,43
 -14 552 -14 552 -21 562 c 128,-1,44
 -28 572 -28 572 -28 582 c 0,45,46
 -28 588 -28 588 -27 595.5 c 128,-1,47
 -26 603 -26 603 -24 610 c 1,48,-1
 478 610 l 2,49,50
 506 610 506 610 506 580 c 0,51,52
 506 574 506 574 505 567 c 128,-1,53
 504 560 504 560 502 552 c 1,41,-1
461 568 m 1,54,-1
 532 568 l 1,55,-1
 532 -7 l 1,56,57
 526 -8 526 -8 518.5 -9.5 c 128,-1,58
 511 -11 511 -11 503 -11 c 0,59,60
 482 -11 482 -11 471.5 -2.5 c 128,-1,61
 461 6 461 6 461 23 c 2,62,-1
 461 568 l 1,54,-1
642 552 m 1,63,-1
 369 552 l 2,64,65
 355 552 355 552 348 559.5 c 128,-1,66
 341 567 341 567 341 582 c 0,67,68
 341 588 341 588 342 595.5 c 128,-1,69
 343 603 343 603 345 610 c 1,70,-1
 618 610 l 2,71,72
 646 610 646 610 646 580 c 0,73,74
 646 574 646 574 645 567 c 128,-1,75
 644 560 644 560 642 552 c 1,63,-1
EndSplineSet
EndChar

StartChar: section
Encoding: 167 167 105
Width: 141
Flags: W
LayerCount: 2
Fore
SplineSet
34 419 m 1,0,-1
 353 419 l 2,1,2
 367 419 367 419 374.5 411.5 c 128,-1,3
 382 404 382 404 382 386 c 0,4,5
 382 376 382 376 380 368.5 c 128,-1,6
 378 361 378 361 374 355 c 1,7,-1
 241 355 l 1,8,-1
 213 356 l 1,9,-1
 55 356 l 2,10,11
 43 356 43 356 35.5 365 c 128,-1,12
 28 374 28 374 28 389 c 0,13,14
 28 397 28 397 29.5 405 c 128,-1,15
 31 413 31 413 34 419 c 1,0,-1
194 377 m 0,16,17
 201 377 201 377 211 373.5 c 128,-1,18
 221 370 221 370 230.5 365.5 c 128,-1,19
 240 361 240 361 246.5 358 c 128,-1,20
 253 355 253 355 253 355 c 1,21,22
 222 345 222 345 203.5 319 c 128,-1,23
 185 293 185 293 185 258 c 0,24,25
 185 215 185 215 220.5 187 c 128,-1,26
 256 159 256 159 322 159 c 0,27,28
 368 159 368 159 410.5 176.5 c 128,-1,29
 453 194 453 194 487 228 c 1,30,-1
 511 177 l 1,31,32
 475 139 475 139 425.5 117.5 c 128,-1,33
 376 96 376 96 311 96 c 0,34,35
 256 96 256 96 210.5 115 c 128,-1,36
 165 134 165 134 138 169.5 c 128,-1,37
 111 205 111 205 111 253 c 0,38,39
 111 292 111 292 124.5 317 c 128,-1,40
 138 342 138 342 157.5 356.5 c 128,-1,41
 177 371 177 371 194 377 c 0,16,17
514 552 m 1,42,-1
 0 552 l 2,43,44
 -14 552 -14 552 -21 559.5 c 128,-1,45
 -28 567 -28 567 -28 582 c 0,46,47
 -28 588 -28 588 -27 595.5 c 128,-1,48
 -26 603 -26 603 -24 610 c 1,49,-1
 490 610 l 2,50,51
 518 610 518 610 518 580 c 0,52,53
 518 574 518 574 517 567 c 128,-1,54
 516 560 516 560 514 552 c 1,42,-1
473 568 m 1,55,-1
 544 568 l 1,56,-1
 544 -7 l 1,57,58
 538 -8 538 -8 530.5 -9.5 c 128,-1,59
 523 -11 523 -11 515 -11 c 0,60,61
 494 -11 494 -11 483.5 -2.5 c 128,-1,62
 473 6 473 6 473 23 c 2,63,-1
 473 568 l 1,55,-1
654 552 m 1,64,-1
 381 552 l 2,65,66
 367 552 367 552 360 559.5 c 128,-1,67
 353 567 353 567 353 582 c 0,68,69
 353 588 353 588 354 595.5 c 128,-1,70
 355 603 355 603 357 610 c 1,71,-1
 630 610 l 2,72,73
 658 610 658 610 658 580 c 0,74,75
 658 574 658 574 657 567 c 128,-1,76
 656 560 656 560 654 552 c 1,64,-1
EndSplineSet
EndChar

StartChar: dieresis
Encoding: 168 168 106
Width: 692
Flags: W
LayerCount: 2
Fore
SplineSet
565 416 m 1,0,-1
 494 416 l 1,1,-1
 494 569 l 1,2,-1
 565 569 l 1,3,-1
 565 416 l 1,0,-1
296 285 m 1,4,-1
 255 285 l 2,5,6
 217 285 217 285 192.5 270 c 128,-1,7
 168 255 168 255 156.5 231.5 c 128,-1,8
 145 208 145 208 145 183 c 0,9,10
 145 125 145 125 196.5 90 c 128,-1,11
 248 55 248 55 333 55 c 256,12,13
 418 55 418 55 475 91 c 128,-1,14
 532 127 532 127 562 182 c 1,15,-1
 567 183 l 1,16,17
 578 209 578 209 583.5 236 c 128,-1,18
 589 263 589 263 589 291 c 0,19,20
 589 342 589 342 566 369 c 128,-1,21
 543 396 543 396 510 396 c 0,22,23
 482 396 482 396 463 376 c 128,-1,24
 444 356 444 356 444 322 c 0,25,26
 444 268 444 268 485.5 237 c 128,-1,27
 527 206 527 206 594 199 c 1,28,-1
 565 148 l 1,29,30
 520 150 520 150 476.5 170.5 c 128,-1,31
 433 191 433 191 404 230.5 c 128,-1,32
 375 270 375 270 375 328 c 0,33,34
 375 384 375 384 412.5 420.5 c 128,-1,35
 450 457 450 457 507 457 c 0,36,37
 556 457 556 457 588.5 434 c 128,-1,38
 621 411 621 411 637.5 373.5 c 128,-1,39
 654 336 654 336 654 291 c 0,40,41
 654 230 654 230 632 176 c 128,-1,42
 610 122 610 122 568.5 80 c 128,-1,43
 527 38 527 38 467.5 14 c 128,-1,44
 408 -10 408 -10 333 -10 c 0,45,46
 249 -10 249 -10 190.5 15 c 128,-1,47
 132 40 132 40 101 83 c 128,-1,48
 70 126 70 126 70 181 c 0,49,50
 70 231 70 231 94.5 268.5 c 128,-1,51
 119 306 119 306 165 319 c 1,52,53
 118 329 118 329 88 364 c 128,-1,54
 58 399 58 399 58 449 c 0,55,56
 58 490 58 490 77 517.5 c 128,-1,57
 96 545 96 545 117 556 c 1,58,-1
 212 556 l 1,59,60
 178 546 178 546 155.5 520 c 128,-1,61
 133 494 133 494 133 452 c 0,62,63
 133 408 133 408 165 379.5 c 128,-1,64
 197 351 197 351 246 351 c 2,65,-1
 296 351 l 1,66,67
 301 344 301 344 302 334.5 c 128,-1,68
 303 325 303 325 303 319 c 0,69,70
 303 312 303 312 301.5 302 c 128,-1,71
 300 292 300 292 296 285 c 1,4,-1
716 552 m 1,72,-1
 0 552 l 2,73,74
 -14 552 -14 552 -21 559.5 c 128,-1,75
 -28 567 -28 567 -28 582 c 0,76,77
 -28 588 -28 588 -27 595.5 c 128,-1,78
 -26 603 -26 603 -24 610 c 1,79,-1
 692 610 l 2,80,81
 720 610 720 610 720 580 c 0,82,83
 720 574 720 574 719 567 c 128,-1,84
 718 560 718 560 716 552 c 1,72,-1
EndSplineSet
EndChar

StartChar: copyright
Encoding: 169 169 107
Width: 211
Flags: W
LayerCount: 2
Fore
SplineSet
246 342 m 1,0,-1
 120 342 l 2,1,2
 100 342 100 342 100 371 c 0,3,4
 100 380 100 380 101 387.5 c 128,-1,5
 102 395 102 395 105 405 c 1,6,-1
 534 405 l 1,7,-1
 534 345 l 1,8,-1
 275 345 l 1,9,-1
 246 342 l 1,0,-1
227 343 m 1,10,-1
 295 360 l 1,11,12
 320 352 320 352 342.5 332 c 128,-1,13
 365 312 365 312 380 282.5 c 128,-1,14
 395 253 395 253 395 216 c 0,15,16
 395 171 395 171 372 137.5 c 128,-1,17
 349 104 349 104 306.5 85 c 128,-1,18
 264 66 264 66 205 66 c 0,19,20
 155 66 155 66 114 79 c 128,-1,21
 73 92 73 92 49.5 111 c 128,-1,22
 26 130 26 130 26 148 c 0,23,24
 26 165 26 165 36 175.5 c 128,-1,25
 46 186 46 186 60 189 c 1,26,27
 89 161 89 161 124 146 c 128,-1,28
 159 131 159 131 205 131 c 0,29,30
 265 131 265 131 293 160.5 c 128,-1,31
 321 190 321 190 321 229 c 0,32,33
 321 272 321 272 293 303.5 c 128,-1,34
 265 335 265 335 227 343 c 1,10,-1
559 552 m 1,35,-1
 0 552 l 2,36,37
 -14 552 -14 552 -21 559.5 c 128,-1,38
 -28 567 -28 567 -28 582 c 0,39,40
 -28 588 -28 588 -27 595.5 c 128,-1,41
 -26 603 -26 603 -24 610 c 1,42,-1
 559 610 l 1,43,-1
 559 552 l 1,35,-1
515 568 m 1,44,-1
 586 568 l 1,45,-1
 586 -7 l 1,46,47
 580 -8 580 -8 572.5 -9.5 c 128,-1,48
 565 -11 565 -11 557 -11 c 0,49,50
 536 -11 536 -11 525.5 -2.5 c 128,-1,51
 515 6 515 6 515 23 c 2,52,-1
 515 568 l 1,44,-1
696 552 m 1,53,-1
 423 552 l 2,54,55
 409 552 409 552 402 559.5 c 128,-1,56
 395 567 395 567 395 582 c 0,57,58
 395 588 395 588 396 595.5 c 128,-1,59
 397 603 397 603 399 610 c 1,60,-1
 672 610 l 2,61,62
 700 610 700 610 700 580 c 0,63,64
 700 574 700 574 699 567 c 128,-1,65
 698 560 698 560 696 552 c 1,53,-1
EndSplineSet
EndChar

StartChar: ordfeminine
Encoding: 170 170 108
Width: 772
Flags: W
LayerCount: 2
Fore
SplineSet
441 190 m 1,0,-1
 420 243 l 1,1,2
 441 238 441 238 466 235.5 c 128,-1,3
 491 233 491 233 513 233 c 0,4,5
 544 233 544 233 568.5 237 c 128,-1,6
 593 241 593 241 618 248 c 1,7,-1
 632 180 l 1,8,9
 614 176 614 176 598.5 173.5 c 128,-1,10
 583 171 583 171 565 171 c 0,11,12
 522 171 522 171 491.5 177.5 c 128,-1,13
 461 184 461 184 441 190 c 1,0,-1
666 552 m 1,14,-1
 0 552 l 2,15,16
 -14 552 -14 552 -21 559.5 c 128,-1,17
 -28 567 -28 567 -28 582 c 0,18,19
 -28 588 -28 588 -27 595.5 c 128,-1,20
 -26 603 -26 603 -24 610 c 1,21,-1
 642 610 l 2,22,23
 670 610 670 610 670 580 c 0,24,25
 670 574 670 574 669 567 c 128,-1,26
 668 560 668 560 666 552 c 1,14,-1
132 27 m 1,27,-1
 192 30 l 1,28,29
 224 -10 224 -10 254 -50.5 c 128,-1,30
 284 -91 284 -91 325 -119 c 1,31,32
 324 -137 324 -137 313.5 -149 c 128,-1,33
 303 -161 303 -161 283 -161 c 0,34,35
 264 -161 264 -161 248 -151 c 128,-1,36
 232 -141 232 -141 216 -115 c 2,37,-1
 132 27 l 1,27,-1
182 257 m 1,38,39
 208 265 208 265 239 271 c 128,-1,40
 270 277 270 277 307 277 c 0,41,42
 391 277 391 277 435.5 236.5 c 128,-1,43
 480 196 480 196 480 137 c 0,44,45
 480 90 480 90 455 57 c 128,-1,46
 430 24 430 24 385 7 c 128,-1,47
 340 -10 340 -10 279 -10 c 0,48,49
 254 -10 254 -10 235.5 -7.5 c 128,-1,50
 217 -5 217 -5 200 -1 c 0,51,52
 198 -1 198 -1 185.5 -0.5 c 128,-1,53
 173 0 173 0 165 2 c 0,54,55
 120 13 120 13 89 35 c 128,-1,56
 58 57 58 57 58 81 c 0,57,58
 58 98 58 98 67.5 108.5 c 128,-1,59
 77 119 77 119 88 122 c 1,60,61
 123 92 123 92 170.5 73.5 c 128,-1,62
 218 55 218 55 277 55 c 0,63,64
 339 55 339 55 372 78 c 128,-1,65
 405 101 405 101 405 137 c 0,66,67
 405 176 405 176 376.5 195.5 c 128,-1,68
 348 215 348 215 295 215 c 0,69,70
 264 215 264 215 232 208 c 128,-1,71
 200 201 200 201 172 192 c 1,72,73
 149 202 149 202 123.5 221 c 128,-1,74
 98 240 98 240 80.5 267 c 128,-1,75
 63 294 63 294 63 328 c 0,76,77
 63 381 63 381 98 417.5 c 128,-1,78
 133 454 133 454 218 454 c 2,79,-1
 368 454 l 1,80,-1
 368 584 l 1,81,-1
 439 584 l 1,82,-1
 439 426 l 2,83,84
 439 404 439 404 429.5 396 c 128,-1,85
 420 388 420 388 396 388 c 2,86,-1
 217 388 l 2,87,88
 174 388 174 388 155.5 371 c 128,-1,89
 137 354 137 354 137 328 c 256,90,91
 137 302 137 302 151 285 c 128,-1,92
 165 268 165 268 182 257 c 1,38,39
615 568 m 1,93,-1
 686 568 l 1,94,-1
 686 -7 l 1,95,96
 680 -8 680 -8 672.5 -9.5 c 128,-1,97
 665 -11 665 -11 657 -11 c 0,98,99
 636 -11 636 -11 625.5 -2.5 c 128,-1,100
 615 6 615 6 615 23 c 2,101,-1
 615 568 l 1,93,-1
796 552 m 1,102,-1
 523 552 l 2,103,104
 509 552 509 552 502 559.5 c 128,-1,105
 495 567 495 567 495 582 c 0,106,107
 495 588 495 588 496 595.5 c 128,-1,108
 497 603 497 603 499 610 c 1,109,-1
 772 610 l 2,110,111
 800 610 800 610 800 580 c 0,112,113
 800 574 800 574 799 567 c 128,-1,114
 798 560 798 560 796 552 c 1,102,-1
EndSplineSet
EndChar

StartChar: guillemotleft
Encoding: 171 171 109
Width: 504
Flags: W
LayerCount: 2
Fore
SplineSet
438 115 m 1,0,1
 451 109 451 109 458.5 98.5 c 128,-1,2
 466 88 466 88 466 74 c 0,3,4
 466 57 466 57 444.5 40 c 128,-1,5
 423 23 423 23 384 12 c 128,-1,6
 345 1 345 1 292 1 c 0,7,8
 230 1 230 1 173 23 c 128,-1,9
 116 45 116 45 80 91.5 c 128,-1,10
 44 138 44 138 44 212 c 0,11,12
 44 276 44 276 71.5 323 c 128,-1,13
 99 370 99 370 150.5 396 c 128,-1,14
 202 422 202 422 272 422 c 2,15,-1
 365 422 l 1,16,-1
 365 551 l 2,17,18
 365 561 365 561 371 568.5 c 128,-1,19
 377 576 377 576 392 576 c 2,20,-1
 436 576 l 1,21,-1
 436 394 l 2,22,23
 436 372 436 372 427 364 c 128,-1,24
 418 356 418 356 393 356 c 2,25,-1
 276 356 l 2,26,27
 203 356 203 356 161 318 c 128,-1,28
 119 280 119 280 119 212 c 0,29,30
 119 161 119 161 144 128.5 c 128,-1,31
 169 96 169 96 209.5 81 c 128,-1,32
 250 66 250 66 296 66 c 0,33,34
 343 66 343 66 378 79.5 c 128,-1,35
 413 93 413 93 438 115 c 1,0,1
528 552 m 1,36,-1
 0 552 l 2,37,38
 -14 552 -14 552 -21 559.5 c 128,-1,39
 -28 567 -28 567 -28 582 c 0,40,41
 -28 588 -28 588 -27 595.5 c 128,-1,42
 -26 603 -26 603 -24 610 c 1,43,-1
 504 610 l 2,44,45
 532 610 532 610 532 580 c 0,46,47
 532 574 532 574 531 567 c 128,-1,48
 530 560 530 560 528 552 c 1,36,-1
EndSplineSet
EndChar

StartChar: logicalnot
Encoding: 172 172 110
Width: 571
Flags: W
LayerCount: 2
Fore
SplineSet
334 572 m 1,0,-1
 405 572 l 1,1,-1
 405 406 l 1,2,3
 438 390 438 390 467 364 c 128,-1,4
 496 338 496 338 514.5 300 c 128,-1,5
 533 262 533 262 533 209 c 0,6,7
 533 147 533 147 503 100 c 128,-1,8
 473 53 473 53 419.5 26.5 c 128,-1,9
 366 0 366 0 293 0 c 0,10,11
 222 0 222 0 165.5 26 c 128,-1,12
 109 52 109 52 76.5 100.5 c 128,-1,13
 44 149 44 149 44 216 c 256,14,15
 44 283 44 283 76 328.5 c 128,-1,16
 108 374 108 374 159.5 398 c 128,-1,17
 211 422 211 422 269 422 c 2,18,-1
 334 422 l 1,19,-1
 334 572 l 1,0,-1
355 356 m 1,20,-1
 277 356 l 2,21,22
 205 356 205 356 162 317.5 c 128,-1,23
 119 279 119 279 119 215 c 0,24,25
 119 148 119 148 167.5 108.5 c 128,-1,26
 216 69 216 69 295 69 c 0,27,28
 338 69 338 69 375 85.5 c 128,-1,29
 412 102 412 102 435 133 c 128,-1,30
 458 164 458 164 458 209 c 0,31,32
 458 265 458 265 428.5 301.5 c 128,-1,33
 399 338 399 338 355 356 c 1,20,-1
595 552 m 1,34,-1
 0 552 l 2,35,36
 -14 552 -14 552 -21 559.5 c 128,-1,37
 -28 567 -28 567 -28 583 c 0,38,39
 -28 588 -28 588 -27 595.5 c 128,-1,40
 -26 603 -26 603 -24 610 c 1,41,-1
 571 610 l 2,42,43
 599 610 599 610 599 579 c 0,44,45
 599 574 599 574 598 567 c 128,-1,46
 597 560 597 560 595 552 c 1,34,-1
EndSplineSet
EndChar

StartChar: uni00AD
Encoding: 173 173 111
Width: 534
Flags: W
LayerCount: 2
Fore
SplineSet
558 552 m 1,0,-1
 0 552 l 2,1,2
 -14 552 -14 552 -21 559.5 c 128,-1,3
 -28 567 -28 567 -28 582 c 0,4,5
 -28 588 -28 588 -27 595.5 c 128,-1,6
 -26 603 -26 603 -24 610 c 1,7,-1
 534 610 l 2,8,9
 562 610 562 610 562 580 c 0,10,11
 562 574 562 574 561 567 c 128,-1,12
 560 560 560 560 558 552 c 1,0,-1
182 257 m 1,13,14
 208 265 208 265 239 271 c 128,-1,15
 270 277 270 277 307 277 c 0,16,17
 391 277 391 277 435.5 236.5 c 128,-1,18
 480 196 480 196 480 137 c 0,19,20
 480 67 480 67 425.5 28.5 c 128,-1,21
 371 -10 371 -10 279 -10 c 0,22,23
 223 -10 223 -10 172 2.5 c 128,-1,24
 121 15 121 15 89.5 36 c 128,-1,25
 58 57 58 57 58 81 c 0,26,27
 58 98 58 98 66.5 108 c 128,-1,28
 75 118 75 118 88 122 c 1,29,30
 122 93 122 93 170 74 c 128,-1,31
 218 55 218 55 277 55 c 0,32,33
 339 55 339 55 372 78 c 128,-1,34
 405 101 405 101 405 137 c 0,35,36
 405 176 405 176 376.5 195.5 c 128,-1,37
 348 215 348 215 295 215 c 0,38,39
 264 215 264 215 232 208 c 128,-1,40
 200 201 200 201 172 192 c 1,41,42
 149 202 149 202 123.5 221 c 128,-1,43
 98 240 98 240 80.5 267 c 128,-1,44
 63 294 63 294 63 328 c 0,45,46
 63 381 63 381 98 417.5 c 128,-1,47
 133 454 133 454 218 454 c 2,48,-1
 368 454 l 1,49,-1
 368 574 l 1,50,-1
 439 574 l 1,51,-1
 439 426 l 2,52,53
 439 404 439 404 429.5 396 c 128,-1,54
 420 388 420 388 396 388 c 2,55,-1
 217 388 l 2,56,57
 174 388 174 388 155.5 371 c 128,-1,58
 137 354 137 354 137 328 c 256,59,60
 137 302 137 302 151 285 c 128,-1,61
 165 268 165 268 182 257 c 1,13,14
EndSplineSet
EndChar

StartChar: registered
Encoding: 174 174 112
Width: 560
Flags: W
LayerCount: 2
Fore
SplineSet
486 576 m 1,0,-1
 486 415 l 2,1,2
 486 392 486 392 474.5 384.5 c 128,-1,3
 463 377 463 377 443 377 c 2,4,-1
 286 377 l 2,5,6
 241 377 241 377 204.5 362 c 128,-1,7
 168 347 168 347 146.5 315 c 128,-1,8
 125 283 125 283 125 232 c 0,9,10
 125 176 125 176 153.5 136 c 128,-1,11
 182 96 182 96 224 75.5 c 128,-1,12
 266 55 266 55 305 55 c 2,13,-1
 334 55 l 2,14,15
 338 55 338 55 342 55 c 128,-1,16
 346 55 346 55 350 55 c 0,17,18
 377 55 377 55 402 66.5 c 128,-1,19
 427 78 427 78 443 98.5 c 128,-1,20
 459 119 459 119 459 146 c 0,21,22
 459 182 459 182 437 198.5 c 128,-1,23
 415 215 415 215 392 215 c 0,24,25
 364 215 364 215 344 196 c 128,-1,26
 324 177 324 177 324 143 c 0,27,28
 324 96 324 96 360 49 c 1,29,30
 348 42 348 42 336 34.5 c 128,-1,31
 324 27 324 27 316 31 c 0,32,33
 306 37 306 37 291.5 52 c 128,-1,34
 277 67 277 67 266 92.5 c 128,-1,35
 255 118 255 118 255 152 c 0,36,37
 255 202 255 202 290 239.5 c 128,-1,38
 325 277 325 277 392 277 c 0,39,40
 453 277 453 277 490.5 240.5 c 128,-1,41
 528 204 528 204 528 145 c 0,42,43
 528 97 528 97 502 62 c 128,-1,44
 476 27 476 27 429.5 8.5 c 128,-1,45
 383 -10 383 -10 321 -10 c 0,46,47
 271 -10 271 -10 222.5 6 c 128,-1,48
 174 22 174 22 135 53 c 128,-1,49
 96 84 96 84 73 130 c 128,-1,50
 50 176 50 176 50 236 c 0,51,52
 50 301 50 301 78 347.5 c 128,-1,53
 106 394 106 394 159 418.5 c 128,-1,54
 212 443 212 443 286 443 c 2,55,-1
 415 443 l 1,56,-1
 415 561 l 2,57,58
 415 571 415 571 422 573.5 c 128,-1,59
 429 576 429 576 445 576 c 2,60,-1
 486 576 l 1,0,-1
584 552 m 1,61,-1
 0 552 l 2,62,63
 -14 552 -14 552 -21 559.5 c 128,-1,64
 -28 567 -28 567 -28 582 c 0,65,66
 -28 588 -28 588 -27 595.5 c 128,-1,67
 -26 603 -26 603 -24 610 c 1,68,-1
 560 610 l 2,69,70
 588 610 588 610 588 580 c 0,71,72
 588 574 588 574 587 567 c 128,-1,73
 586 560 586 560 584 552 c 1,61,-1
EndSplineSet
EndChar

StartChar: macron
Encoding: 175 175 113
Width: 592
Flags: W
LayerCount: 2
Fore
SplineSet
428 398 m 1,0,-1
 426 333 l 1,1,2
 395 341 395 341 364 345.5 c 128,-1,3
 333 350 333 350 299 350 c 0,4,5
 226 350 226 350 180.5 314.5 c 128,-1,6
 135 279 135 279 135 209 c 0,7,8
 135 145 135 145 164.5 99.5 c 128,-1,9
 194 54 194 54 231 22 c 1,10,11
 227 5 227 5 215.5 -3 c 128,-1,12
 204 -11 204 -11 189 -11 c 0,13,14
 172 -11 172 -11 150 6 c 128,-1,15
 128 23 128 23 107.5 53 c 128,-1,16
 87 83 87 83 73.5 124 c 128,-1,17
 60 165 60 165 60 213 c 0,18,19
 60 279 60 279 90 324 c 128,-1,20
 120 369 120 369 172 392 c 128,-1,21
 224 415 224 415 288 415 c 0,22,23
 329 415 329 415 366 410 c 128,-1,24
 403 405 403 405 428 398 c 1,0,-1
456 552 m 1,25,-1
 0 552 l 2,26,27
 -14 552 -14 552 -21 559.5 c 128,-1,28
 -28 567 -28 567 -28 582 c 0,29,30
 -28 588 -28 588 -27 595.5 c 128,-1,31
 -26 603 -26 603 -24 610 c 1,32,-1
 432 610 l 2,33,34
 460 610 460 610 460 580 c 0,35,36
 460 574 460 574 459 567 c 128,-1,37
 458 560 458 560 456 552 c 1,25,-1
415 568 m 1,38,-1
 486 568 l 1,39,-1
 486 -7 l 1,40,41
 480 -8 480 -8 472.5 -9.5 c 128,-1,42
 465 -11 465 -11 457 -11 c 0,43,44
 436 -11 436 -11 425.5 -2.5 c 128,-1,45
 415 6 415 6 415 23 c 2,46,-1
 415 568 l 1,38,-1
596 552 m 1,47,-1
 323 552 l 2,48,49
 309 552 309 552 302 559.5 c 128,-1,50
 295 567 295 567 295 582 c 0,51,52
 295 588 295 588 296 595.5 c 128,-1,53
 297 603 297 603 299 610 c 1,54,-1
 572 610 l 2,55,56
 600 610 600 610 600 580 c 0,57,58
 600 574 600 574 599 567 c 128,-1,59
 598 560 598 560 596 552 c 1,47,-1
EndSplineSet
EndChar

StartChar: degree
Encoding: 176 176 114
Width: 639
Flags: W
LayerCount: 2
Fore
SplineSet
494 255 m 1,0,-1
 513 185 l 1,1,2
 484 148 484 148 436.5 123.5 c 128,-1,3
 389 99 389 99 312 99 c 0,4,5
 237 99 237 99 174.5 134.5 c 128,-1,6
 112 170 112 170 80 231 c 0,7,8
 67 255 67 255 61 277 c 128,-1,9
 55 299 55 299 55 317 c 0,10,11
 55 332 55 332 61.5 339.5 c 128,-1,12
 68 347 68 347 83 349 c 0,13,14
 157 358 157 358 203 376 c 128,-1,15
 249 394 249 394 270.5 421 c 128,-1,16
 292 448 292 448 292 484 c 0,17,18
 292 522 292 522 268 543.5 c 128,-1,19
 244 565 244 565 210 565 c 0,20,21
 174 565 174 565 152.5 546 c 128,-1,22
 131 527 131 527 131 492 c 0,23,24
 131 469 131 469 137 456 c 128,-1,25
 143 443 143 443 150 433 c 1,26,27
 139 413 139 413 114 413 c 0,28,29
 95 413 95 413 75.5 431.5 c 128,-1,30
 56 450 56 450 56 496 c 0,31,32
 56 534 56 534 75 564 c 128,-1,33
 94 594 94 594 129 612 c 128,-1,34
 164 630 164 630 211 630 c 0,35,36
 284 630 284 630 325.5 586.5 c 128,-1,37
 367 543 367 543 367 478 c 0,38,39
 367 424 367 424 335 385.5 c 128,-1,40
 303 347 303 347 248.5 324.5 c 128,-1,41
 194 302 194 302 127 293 c 1,42,43
 136 261 136 261 160.5 231 c 128,-1,44
 185 201 185 201 224 182 c 128,-1,45
 263 163 263 163 315 163 c 0,46,47
 380 163 380 163 426.5 188.5 c 128,-1,48
 473 214 473 214 494 255 c 1,0,-1
663 552 m 1,49,-1
 482 552 l 1,50,-1
 482 584 l 2,51,52
 482 596 482 596 488 603 c 128,-1,53
 494 610 494 610 503 610 c 2,54,-1
 639 610 l 2,55,56
 667 610 667 610 667 580 c 0,57,58
 667 574 667 574 666 567 c 128,-1,59
 665 560 665 560 663 552 c 1,49,-1
482 568 m 1,60,-1
 553 568 l 1,61,-1
 553 -7 l 1,62,63
 547 -8 547 -8 539.5 -9.5 c 128,-1,64
 532 -11 532 -11 524 -11 c 0,65,66
 503 -11 503 -11 492.5 -2.5 c 128,-1,67
 482 6 482 6 482 23 c 2,68,-1
 482 568 l 1,60,-1
EndSplineSet
EndChar

StartChar: plusminus
Encoding: 177 177 115
Width: 592
Flags: W
LayerCount: 2
Fore
SplineSet
426 64 m 1,0,-1
 402 57 l 1,1,2
 383 46 383 46 355 38.5 c 128,-1,3
 327 31 327 31 288 31 c 0,4,5
 229 31 229 31 176.5 55.5 c 128,-1,6
 124 80 124 80 91 127.5 c 128,-1,7
 58 175 58 175 58 244 c 0,8,9
 58 301 58 301 82.5 346 c 128,-1,10
 107 391 107 391 156.5 417 c 128,-1,11
 206 443 206 443 280 443 c 2,12,-1
 380 443 l 1,13,-1
 380 573 l 1,14,-1
 451 573 l 1,15,-1
 451 415 l 2,16,17
 451 393 451 393 441.5 385 c 128,-1,18
 432 377 432 377 409 377 c 2,19,-1
 288 377 l 2,20,21
 224 377 224 377 178.5 343.5 c 128,-1,22
 133 310 133 310 133 240 c 0,23,24
 133 196 133 196 154.5 163.5 c 128,-1,25
 176 131 176 131 211 113.5 c 128,-1,26
 246 96 246 96 287 96 c 0,27,28
 334 96 334 96 354 110.5 c 128,-1,29
 374 125 374 125 374 161 c 0,30,31
 374 175 374 175 372 188 c 128,-1,32
 370 201 370 201 366 214 c 1,33,34
 373 220 373 220 384 225 c 128,-1,35
 395 230 395 230 411 230 c 0,36,37
 434 230 434 230 457 214 c 128,-1,38
 480 198 480 198 480 157 c 0,39,40
 480 124 480 124 463 99.5 c 128,-1,41
 446 75 446 75 426 64 c 1,0,-1
428 96 m 1,42,43
 439 71 439 71 456 43 c 128,-1,44
 473 15 473 15 492 -10.5 c 128,-1,45
 511 -36 511 -36 527 -54 c 1,46,47
 526 -70 526 -70 513.5 -81.5 c 128,-1,48
 501 -93 501 -93 482 -93 c 0,49,50
 458 -93 458 -93 442 -77 c 128,-1,51
 426 -61 426 -61 413 -24 c 2,52,-1
 377 77 l 1,53,-1
 428 96 l 1,42,43
576 552 m 1,54,-1
 0 552 l 2,55,56
 -14 552 -14 552 -21 559.5 c 128,-1,57
 -28 567 -28 567 -28 582 c 0,58,59
 -28 588 -28 588 -27 595.5 c 128,-1,60
 -26 603 -26 603 -24 610 c 1,61,-1
 552 610 l 2,62,63
 580 610 580 610 580 580 c 0,64,65
 580 574 580 574 579 567 c 128,-1,66
 578 560 578 560 576 552 c 1,54,-1
EndSplineSet
EndChar

StartChar: uni00B2
Encoding: 178 178 116
Width: 592
Flags: W
LayerCount: 2
Fore
SplineSet
259 369 m 2,0,-1
 336 369 l 1,1,2
 339 365 339 365 340.5 355.5 c 128,-1,3
 342 346 342 346 342 335 c 0,4,5
 342 327 342 327 340 317.5 c 128,-1,6
 338 308 338 308 336 303 c 1,7,-1
 240 303 l 2,8,9
 188 303 188 303 165 280.5 c 128,-1,10
 142 258 142 258 142 235 c 0,11,12
 142 195 142 195 178 173 c 128,-1,13
 214 151 214 151 293 151 c 0,14,15
 327 151 327 151 368.5 162 c 128,-1,16
 410 173 410 173 446.5 195 c 128,-1,17
 483 217 483 217 500 248 c 1,18,-1
 528 192 l 1,19,20
 498 148 498 148 434.5 117.5 c 128,-1,21
 371 87 371 87 281 87 c 0,22,23
 181 87 181 87 124 124.5 c 128,-1,24
 67 162 67 162 67 229 c 0,25,26
 67 269 67 269 93 299.5 c 128,-1,27
 119 330 119 330 156 338 c 1,28,29
 129 342 129 342 102 357.5 c 128,-1,30
 75 373 75 373 57 402.5 c 128,-1,31
 39 432 39 432 39 476 c 0,32,33
 39 522 39 522 60.5 556.5 c 128,-1,34
 82 591 82 591 120 610.5 c 128,-1,35
 158 630 158 630 205 630 c 0,36,37
 263 630 263 630 299 609.5 c 128,-1,38
 335 589 335 589 352.5 558.5 c 128,-1,39
 370 528 370 528 370 497 c 256,40,41
 370 466 370 466 359.5 452.5 c 128,-1,42
 349 439 349 439 328 439 c 0,43,44
 318 439 318 439 307.5 443 c 128,-1,45
 297 447 297 447 292 454 c 1,46,47
 294 461 294 461 295 469 c 128,-1,48
 296 477 296 477 296 486 c 0,49,50
 296 519 296 519 273.5 542 c 128,-1,51
 251 565 251 565 207 565 c 0,52,53
 162 565 162 565 138 538 c 128,-1,54
 114 511 114 511 114 474 c 0,55,56
 114 419 114 419 155.5 394 c 128,-1,57
 197 369 197 369 259 369 c 2,0,-1
668 552 m 1,58,-1
 487 552 l 1,59,-1
 487 584 l 2,60,61
 487 596 487 596 493 603 c 128,-1,62
 499 610 499 610 508 610 c 2,63,-1
 644 610 l 2,64,65
 672 610 672 610 672 580 c 0,66,67
 672 574 672 574 671 567 c 128,-1,68
 670 560 670 560 668 552 c 1,58,-1
487 568 m 1,69,-1
 558 568 l 1,70,-1
 558 -7 l 1,71,72
 552 -8 552 -8 544.5 -9.5 c 128,-1,73
 537 -11 537 -11 529 -11 c 0,74,75
 508 -11 508 -11 497.5 -2.5 c 128,-1,76
 487 6 487 6 487 23 c 2,77,-1
 487 568 l 1,69,-1
EndSplineSet
EndChar

StartChar: uni00B3
Encoding: 179 179 117
Width: 592
Flags: W
LayerCount: 2
Fore
SplineSet
143 352 m 2,0,-1
 407 352 l 1,1,-1
 407 288 l 1,2,-1
 194 288 l 2,3,4
 173 288 173 288 161 277.5 c 128,-1,5
 149 267 149 267 149 242 c 2,6,-1
 149 199 l 1,7,8
 142 195 142 195 132.5 192 c 128,-1,9
 123 189 123 189 112 189 c 0,10,11
 84 189 84 189 63 209 c 128,-1,12
 42 229 42 229 42 272 c 0,13,14
 42 311 42 311 68 331.5 c 128,-1,15
 94 352 94 352 143 352 c 2,0,-1
426 552 m 1,16,-1
 0 552 l 2,17,18
 -14 552 -14 552 -21 559.5 c 128,-1,19
 -28 567 -28 567 -28 582 c 0,20,21
 -28 588 -28 588 -27 595.5 c 128,-1,22
 -26 603 -26 603 -24 610 c 1,23,-1
 402 610 l 2,24,25
 430 610 430 610 430 580 c 0,26,27
 430 574 430 574 429 567 c 128,-1,28
 428 560 428 560 426 552 c 1,16,-1
385 568 m 1,29,-1
 456 568 l 1,30,-1
 456 -7 l 1,31,32
 450 -8 450 -8 442.5 -9.5 c 128,-1,33
 435 -11 435 -11 427 -11 c 0,34,35
 406 -11 406 -11 395.5 -2.5 c 128,-1,36
 385 6 385 6 385 23 c 2,37,-1
 385 568 l 1,29,-1
566 552 m 1,38,-1
 293 552 l 2,39,40
 279 552 279 552 272 559.5 c 128,-1,41
 265 567 265 567 265 582 c 0,42,43
 265 588 265 588 266 595.5 c 128,-1,44
 267 603 267 603 269 610 c 1,45,-1
 542 610 l 2,46,47
 570 610 570 610 570 580 c 0,48,49
 570 574 570 574 569 567 c 128,-1,50
 568 560 568 560 566 552 c 1,38,-1
EndSplineSet
EndChar

StartChar: acute
Encoding: 180 180 118
Width: 588
Flags: W
LayerCount: 2
Fore
SplineSet
435 552 m 1,0,-1
 0 552 l 2,1,2
 -14 552 -14 552 -21 559.5 c 128,-1,3
 -28 567 -28 567 -28 582 c 0,4,5
 -28 588 -28 588 -27 595.5 c 128,-1,6
 -26 603 -26 603 -24 610 c 1,7,-1
 411 610 l 2,8,9
 439 610 439 610 439 580 c 0,10,11
 439 574 439 574 438 567 c 128,-1,12
 437 560 437 560 435 552 c 1,0,-1
63 565 m 1,13,-1
 133 565 l 1,14,-1
 133 374 l 2,15,16
 133 297 133 297 168.5 268.5 c 128,-1,17
 204 240 204 240 269 240 c 0,18,19
 307 240 307 240 339.5 253 c 128,-1,20
 372 266 372 266 391 283 c 1,21,-1
 417 236 l 1,22,23
 393 211 393 211 352 194 c 128,-1,24
 311 177 311 177 254 177 c 0,25,26
 171 177 171 177 117 223 c 128,-1,27
 63 269 63 269 63 370 c 2,28,-1
 63 565 l 1,13,-1
384 568 m 1,29,-1
 455 568 l 1,30,-1
 455 -7 l 1,31,32
 449 -8 449 -8 441.5 -9.5 c 128,-1,33
 434 -11 434 -11 426 -11 c 0,34,35
 405 -11 405 -11 394.5 -2.5 c 128,-1,36
 384 6 384 6 384 23 c 2,37,-1
 384 568 l 1,29,-1
565 552 m 1,38,-1
 292 552 l 2,39,40
 278 552 278 552 271 559.5 c 128,-1,41
 264 567 264 567 264 582 c 0,42,43
 264 588 264 588 265 595.5 c 128,-1,44
 266 603 266 603 268 610 c 1,45,-1
 541 610 l 2,46,47
 569 610 569 610 569 580 c 0,48,49
 569 574 569 574 568 567 c 128,-1,50
 567 560 567 560 565 552 c 1,38,-1
EndSplineSet
EndChar

StartChar: uni03BC
Encoding: 181 181 119
Width: 778
Flags: W
LayerCount: 2
Fore
SplineSet
421 281 m 1,0,-1
 390 319 l 1,1,2
 413 363 413 363 455.5 391 c 128,-1,3
 498 419 498 419 562 419 c 0,4,5
 621 419 621 419 662 394 c 128,-1,6
 703 369 703 369 724.5 328.5 c 128,-1,7
 746 288 746 288 746 241 c 0,8,9
 746 187 746 187 722 146 c 128,-1,10
 698 105 698 105 657.5 82.5 c 128,-1,11
 617 60 617 60 568 60 c 0,12,13
 543 60 543 60 533 71 c 128,-1,14
 523 82 523 82 523 97 c 0,15,16
 523 105 523 105 525 111.5 c 128,-1,17
 527 118 527 118 529 122 c 1,18,19
 600 122 600 122 635.5 153 c 128,-1,20
 671 184 671 184 671 242 c 0,21,22
 671 289 671 289 637.5 322.5 c 128,-1,23
 604 356 604 356 548 356 c 0,24,25
 508 356 508 356 473.5 333.5 c 128,-1,26
 439 311 439 311 421 281 c 1,0,-1
370 568 m 1,27,-1
 441 568 l 1,28,-1
 441 -7 l 1,29,30
 435 -8 435 -8 427.5 -9.5 c 128,-1,31
 420 -11 420 -11 412 -11 c 0,32,33
 391 -11 391 -11 380.5 -2.5 c 128,-1,34
 370 6 370 6 370 23 c 2,35,-1
 370 568 l 1,27,-1
802 552 m 1,36,-1
 0 552 l 2,37,38
 -14 552 -14 552 -21 559.5 c 128,-1,39
 -28 567 -28 567 -28 582 c 0,40,41
 -28 588 -28 588 -27 595.5 c 128,-1,42
 -26 603 -26 603 -24 610 c 1,43,-1
 778 610 l 2,44,45
 806 610 806 610 806 580 c 0,46,47
 806 574 806 574 805 567 c 128,-1,48
 804 560 804 560 802 552 c 1,36,-1
63 565 m 1,49,-1
 133 565 l 1,50,-1
 133 374 l 2,51,52
 133 297 133 297 168.5 268.5 c 128,-1,53
 204 240 204 240 269 240 c 0,54,55
 307 240 307 240 339.5 253 c 128,-1,56
 372 266 372 266 391 283 c 1,57,-1
 417 237 l 1,58,59
 393 212 393 212 352 194.5 c 128,-1,60
 311 177 311 177 254 177 c 0,61,62
 171 177 171 177 117 223 c 128,-1,63
 63 269 63 269 63 370 c 2,64,-1
 63 565 l 1,49,-1
EndSplineSet
EndChar

StartChar: paragraph
Encoding: 182 182 120
Width: 574
Flags: W
LayerCount: 2
Fore
SplineSet
448 552 m 1,0,-1
 0 552 l 2,1,2
 -14 552 -14 552 -21 559.5 c 128,-1,3
 -28 567 -28 567 -28 582 c 0,4,5
 -28 588 -28 588 -27 595.5 c 128,-1,6
 -26 603 -26 603 -24 610 c 1,7,-1
 424 610 l 2,8,9
 452 610 452 610 452 580 c 0,10,11
 452 574 452 574 451 567 c 128,-1,12
 450 560 450 560 448 552 c 1,0,-1
436 224 m 1,13,-1
 471 183 l 1,14,15
 453 157 453 157 425.5 132.5 c 128,-1,16
 398 108 398 108 359 93 c 128,-1,17
 320 78 320 78 266 78 c 0,18,19
 214 78 214 78 166 99.5 c 128,-1,20
 118 121 118 121 88 164.5 c 128,-1,21
 58 208 58 208 58 272 c 0,22,23
 58 328 58 328 85 368 c 128,-1,24
 112 408 112 408 157 429.5 c 128,-1,25
 202 451 202 451 255 451 c 0,26,27
 306 451 306 451 329.5 437.5 c 128,-1,28
 353 424 353 424 353 406 c 0,29,30
 353 398 353 398 350 391 c 128,-1,31
 347 384 347 384 342 379 c 1,32,33
 332 382 332 382 311 385.5 c 128,-1,34
 290 389 290 389 269 389 c 0,35,36
 205 389 205 389 169 355.5 c 128,-1,37
 133 322 133 322 133 269 c 0,38,39
 133 211 133 211 173 176.5 c 128,-1,40
 213 142 213 142 275 142 c 0,41,42
 338 142 338 142 377.5 169 c 128,-1,43
 417 196 417 196 436 224 c 1,13,-1
412 145 m 2,44,-1
 142 359 l 1,45,-1
 153 380 l 1,46,47
 153 380 153 380 160.5 381.5 c 128,-1,48
 168 383 168 383 175 384.5 c 128,-1,49
 182 386 182 386 182 386 c 1,50,-1
 429 191 l 1,51,-1
 435 168 l 1,52,53
 435 168 435 168 429.5 162 c 128,-1,54
 424 156 424 156 418.5 150.5 c 128,-1,55
 413 145 413 145 412 145 c 2,44,-1
417 568 m 1,56,-1
 488 568 l 1,57,-1
 488 -7 l 1,58,59
 482 -8 482 -8 474.5 -9.5 c 128,-1,60
 467 -11 467 -11 459 -11 c 0,61,62
 438 -11 438 -11 427.5 -2.5 c 128,-1,63
 417 6 417 6 417 23 c 2,64,-1
 417 568 l 1,56,-1
598 552 m 1,65,-1
 325 552 l 2,66,67
 311 552 311 552 304 559.5 c 128,-1,68
 297 567 297 567 297 582 c 0,69,70
 297 588 297 588 298 595.5 c 128,-1,71
 299 603 299 603 301 610 c 1,72,-1
 574 610 l 2,73,74
 602 610 602 610 602 580 c 0,75,76
 602 574 602 574 601 567 c 128,-1,77
 600 560 600 560 598 552 c 1,65,-1
EndSplineSet
EndChar

StartChar: periodcentered
Encoding: 183 183 121
Width: 590
Flags: W
LayerCount: 2
Fore
SplineSet
455 304 m 1,0,-1
 455 241 l 1,1,-1
 191 241 l 1,2,-1
 191 304 l 1,3,-1
 455 304 l 1,0,-1
54 526 m 0,4,5
 50 525 50 525 45 524 c 128,-1,6
 40 523 40 523 35 523 c 0,7,8
 19 523 19 523 6.5 530.5 c 128,-1,9
 -6 538 -6 538 -6 560 c 0,10,11
 -6 592 -6 592 24.5 611 c 128,-1,12
 55 630 55 630 98 630 c 0,13,14
 129 630 129 630 155.5 620 c 128,-1,15
 182 610 182 610 199 587 c 128,-1,16
 216 564 216 564 216 526 c 2,17,-1
 216 253 l 2,18,19
 216 209 216 209 195.5 185.5 c 128,-1,20
 175 162 175 162 136 162 c 0,21,22
 98 162 98 162 80.5 179.5 c 128,-1,23
 63 197 63 197 63 224 c 0,24,25
 63 244 63 244 73 265 c 1,26,-1
 109 265 l 2,27,28
 145 265 145 265 145 300 c 2,29,-1
 145 519 l 2,30,31
 145 543 145 543 131.5 554 c 128,-1,32
 118 565 118 565 100 565 c 0,33,34
 57 565 57 565 54 526 c 0,4,5
614 552 m 1,35,-1
 320 552 l 2,36,37
 306 552 306 552 299 559.5 c 128,-1,38
 292 567 292 567 292 582 c 0,39,40
 292 588 292 588 293 595.5 c 128,-1,41
 294 603 294 603 296 610 c 1,42,-1
 590 610 l 2,43,44
 618 610 618 610 618 580 c 0,45,46
 618 574 618 574 617 567 c 128,-1,47
 616 560 616 560 614 552 c 1,35,-1
433 568 m 1,48,-1
 504 568 l 1,49,-1
 504 -7 l 1,50,51
 498 -8 498 -8 490.5 -9.5 c 128,-1,52
 483 -11 483 -11 475 -11 c 0,53,54
 454 -11 454 -11 443.5 -2.5 c 128,-1,55
 433 6 433 6 433 23 c 2,56,-1
 433 568 l 1,48,-1
EndSplineSet
Substitution2: "Single Substitution lookup 68 subtable" periodcentered.loclCAT.case
Substitution2: "Single Substitution lookup 67 subtable" periodcentered.loclCAT
EndChar

StartChar: cedilla
Encoding: 184 184 122
Width: 584
Flags: W
LayerCount: 2
Fore
SplineSet
465 304 m 1,0,-1
 465 241 l 1,1,-1
 197 241 l 1,2,3
 195 207 195 207 176.5 184.5 c 128,-1,4
 158 162 158 162 119 162 c 0,5,6
 81 162 81 162 63.5 179.5 c 128,-1,7
 46 197 46 197 46 223 c 0,8,9
 46 234 46 234 49 246 c 128,-1,10
 52 258 52 258 56 265 c 1,11,-1
 92 265 l 2,12,13
 128 265 128 265 128 300 c 2,14,-1
 128 558 l 1,15,-1
 199 558 l 1,16,-1
 199 304 l 1,17,-1
 465 304 l 1,0,-1
468 552 m 1,18,-1
 0 552 l 2,19,20
 -14 552 -14 552 -21 559.5 c 128,-1,21
 -28 567 -28 567 -28 582 c 0,22,23
 -28 588 -28 588 -27 595.5 c 128,-1,24
 -26 603 -26 603 -24 610 c 1,25,-1
 444 610 l 2,26,27
 472 610 472 610 472 580 c 0,28,29
 472 574 472 574 471 567 c 128,-1,30
 470 560 470 560 468 552 c 1,18,-1
427 568 m 1,31,-1
 498 568 l 1,32,-1
 498 -7 l 1,33,34
 492 -8 492 -8 484.5 -9.5 c 128,-1,35
 477 -11 477 -11 469 -11 c 0,36,37
 448 -11 448 -11 437.5 -2.5 c 128,-1,38
 427 6 427 6 427 23 c 2,39,-1
 427 568 l 1,31,-1
608 552 m 1,40,-1
 335 552 l 2,41,42
 321 552 321 552 314 559.5 c 128,-1,43
 307 567 307 567 307 582 c 0,44,45
 307 588 307 588 308 595.5 c 128,-1,46
 309 603 309 603 311 610 c 1,47,-1
 584 610 l 2,48,49
 612 610 612 610 612 580 c 0,50,51
 612 574 612 574 611 567 c 128,-1,52
 610 560 610 560 608 552 c 1,40,-1
EndSplineSet
EndChar

StartChar: uni00B9
Encoding: 185 185 123
Width: 262
Flags: W
LayerCount: 2
Fore
SplineSet
139 552 m 1,0,-1
 200 571 l 1,1,2
 218 564 218 564 236.5 547 c 128,-1,3
 255 530 255 530 267.5 505.5 c 128,-1,4
 280 481 280 481 280 449 c 0,5,6
 280 405 280 405 257.5 374.5 c 128,-1,7
 235 344 235 344 198 326.5 c 128,-1,8
 161 309 161 309 117 304 c 1,9,10
 133 249 133 249 178.5 212.5 c 128,-1,11
 224 176 224 176 300 176 c 0,12,13
 345 176 345 176 381 191.5 c 128,-1,14
 417 207 417 207 441 230 c 128,-1,15
 465 253 465 253 474 274 c 1,16,-1
 492 208 l 1,17,18
 463 163 463 163 414 137 c 128,-1,19
 365 111 365 111 293 111 c 0,20,21
 211 111 211 111 157 146.5 c 128,-1,22
 103 182 103 182 74 233 c 0,23,24
 63 253 63 253 54.5 281 c 128,-1,25
 46 309 46 309 46 331 c 0,26,27
 46 344 46 344 50 351 c 128,-1,28
 54 358 54 358 67 359 c 0,29,30
 139 363 139 363 172 389.5 c 128,-1,31
 205 416 205 416 205 458 c 0,32,33
 205 493 205 493 188 516 c 128,-1,34
 171 539 171 539 139 552 c 1,0,-1
492 552 m 1,35,-1
 0 552 l 2,36,37
 -14 552 -14 552 -21 559.5 c 128,-1,38
 -28 567 -28 567 -28 582 c 0,39,40
 -28 588 -28 588 -27 595.5 c 128,-1,41
 -26 603 -26 603 -24 610 c 1,42,-1
 468 610 l 2,43,44
 496 610 496 610 496 580 c 0,45,46
 496 574 496 574 495 567 c 128,-1,47
 494 560 494 560 492 552 c 1,35,-1
451 568 m 1,48,-1
 522 568 l 1,49,-1
 522 -7 l 1,50,51
 516 -8 516 -8 508.5 -9.5 c 128,-1,52
 501 -11 501 -11 493 -11 c 0,53,54
 472 -11 472 -11 461.5 -2.5 c 128,-1,55
 451 6 451 6 451 23 c 2,56,-1
 451 568 l 1,48,-1
632 552 m 1,57,-1
 359 552 l 2,58,59
 345 552 345 552 338 559.5 c 128,-1,60
 331 567 331 567 331 582 c 0,61,62
 331 588 331 588 332 595.5 c 128,-1,63
 333 603 333 603 335 610 c 1,64,-1
 608 610 l 2,65,66
 636 610 636 610 636 580 c 0,67,68
 636 574 636 574 635 567 c 128,-1,69
 634 560 634 560 632 552 c 1,57,-1
EndSplineSet
EndChar

StartChar: ordmasculine
Encoding: 186 186 124
Width: 262
Flags: W
LayerCount: 2
Fore
SplineSet
102 241 m 1,0,1
 77 243 77 243 62.5 252.5 c 128,-1,2
 48 262 48 262 48 280 c 0,3,4
 48 291 48 291 52 299.5 c 128,-1,5
 56 308 56 308 60 315 c 1,6,7
 71 311 71 311 87 308.5 c 128,-1,8
 103 306 103 306 122 306 c 0,9,10
 202 306 202 306 234 343.5 c 128,-1,11
 266 381 266 381 266 433 c 0,12,13
 266 472 266 472 251.5 506 c 128,-1,14
 237 540 237 540 212 566 c 1,15,-1
 280 574 l 1,16,17
 305 548 305 548 322.5 513.5 c 128,-1,18
 340 479 340 479 340 429 c 0,19,20
 340 369 340 369 314.5 329 c 128,-1,21
 289 289 289 289 249 268.5 c 128,-1,22
 209 248 209 248 166 244 c 1,23,24
 195 180 195 180 238 125.5 c 128,-1,25
 281 71 281 71 351 32 c 1,26,27
 351 12 351 12 341 0 c 128,-1,28
 331 -12 331 -12 311 -12 c 0,29,30
 281 -12 281 -12 244 17 c 128,-1,31
 207 46 207 46 169.5 102.5 c 128,-1,32
 132 159 132 159 102 241 c 1,0,1
423 552 m 1,33,-1
 0 552 l 2,34,35
 -14 552 -14 552 -21 559.5 c 128,-1,36
 -28 567 -28 567 -28 582 c 0,37,38
 -28 588 -28 588 -27 595.5 c 128,-1,39
 -26 603 -26 603 -24 610 c 1,40,-1
 399 610 l 2,41,42
 427 610 427 610 427 580 c 0,43,44
 427 574 427 574 426 567 c 128,-1,45
 425 560 425 560 423 552 c 1,33,-1
EndSplineSet
EndChar

StartChar: guillemotright
Encoding: 187 187 125
Width: 262
Flags: W
LayerCount: 2
Fore
SplineSet
362 309 m 1,0,1
 350 323 350 323 320 338 c 128,-1,2
 290 353 290 353 252 353 c 0,3,4
 196 353 196 353 159.5 315.5 c 128,-1,5
 123 278 123 278 123 217 c 0,6,7
 123 165 123 165 148.5 129 c 128,-1,8
 174 93 174 93 215 72.5 c 128,-1,9
 256 52 256 52 302 47 c 1,10,11
 303 42 303 42 303 39 c 128,-1,12
 303 36 303 36 303 31 c 0,13,14
 303 12 303 12 291.5 1 c 128,-1,15
 280 -10 280 -10 260 -10 c 0,16,17
 230 -10 230 -10 193.5 3.5 c 128,-1,18
 157 17 157 17 124 45 c 128,-1,19
 91 73 91 73 69.5 114.5 c 128,-1,20
 48 156 48 156 48 212 c 0,21,22
 48 278 48 278 76 323.5 c 128,-1,23
 104 369 104 369 148.5 392.5 c 128,-1,24
 193 416 193 416 244 416 c 0,25,26
 298 416 298 416 337.5 397 c 128,-1,27
 377 378 377 378 406 349 c 1,28,-1
 362 309 l 1,0,1
399 171 m 1,29,30
 395 167 395 167 386 165.5 c 128,-1,31
 377 164 377 164 369 164 c 0,32,33
 351 164 351 164 338.5 172.5 c 128,-1,34
 326 181 326 181 326 202 c 0,35,36
 326 263 326 263 351 311.5 c 128,-1,37
 376 360 376 360 420.5 388 c 128,-1,38
 465 416 465 416 521 416 c 0,39,40
 561 416 561 416 586 405 c 128,-1,41
 611 394 611 394 625 382 c 1,42,-1
 595 336 l 1,43,44
 582 342 582 342 568 347.5 c 128,-1,45
 554 353 554 353 529 353 c 0,46,47
 471 353 471 353 435 311 c 128,-1,48
 399 269 399 269 399 171 c 1,29,30
610 552 m 1,49,-1
 0 552 l 2,50,51
 -14 552 -14 552 -21 559.5 c 128,-1,52
 -28 567 -28 567 -28 582 c 0,53,54
 -28 588 -28 588 -27 595.5 c 128,-1,55
 -26 603 -26 603 -24 610 c 1,56,-1
 586 610 l 2,57,58
 614 610 614 610 614 580 c 0,59,60
 614 574 614 574 613 567 c 128,-1,61
 612 560 612 560 610 552 c 1,49,-1
569 568 m 1,62,-1
 640 568 l 1,63,-1
 640 -7 l 1,64,65
 634 -8 634 -8 626.5 -9.5 c 128,-1,66
 619 -11 619 -11 611 -11 c 0,67,68
 590 -11 590 -11 579.5 -2.5 c 128,-1,69
 569 6 569 6 569 23 c 2,70,-1
 569 568 l 1,62,-1
750 552 m 1,71,-1
 477 552 l 2,72,73
 463 552 463 552 456 559.5 c 128,-1,74
 449 567 449 567 449 582 c 0,75,76
 449 588 449 588 450 595.5 c 128,-1,77
 451 603 451 603 453 610 c 1,78,-1
 726 610 l 2,79,80
 754 610 754 610 754 580 c 0,81,82
 754 574 754 574 753 567 c 128,-1,83
 752 560 752 560 750 552 c 1,71,-1
EndSplineSet
EndChar

StartChar: questiondown
Encoding: 191 191 126
Width: 974
Flags: W
LayerCount: 2
Fore
SplineSet
354 501 m 0,0,1
 284 501 284 501 232.5 468.5 c 128,-1,2
 181 436 181 436 152.5 379.5 c 128,-1,3
 124 323 124 323 124 250 c 0,4,5
 124 236 124 236 124.5 223.5 c 128,-1,6
 125 211 125 211 126 199 c 1,7,-1
 117 206 l 1,8,9
 128 255 128 255 166.5 283.5 c 128,-1,10
 205 312 205 312 254 312 c 0,11,12
 305 312 305 312 340 291 c 128,-1,13
 375 270 375 270 393.5 234 c 128,-1,14
 412 198 412 198 412 153 c 0,15,16
 412 106 412 106 391.5 69 c 128,-1,17
 371 32 371 32 334 11.5 c 128,-1,18
 297 -9 297 -9 249 -9 c 0,19,20
 186 -9 186 -9 143 25 c 128,-1,21
 100 59 100 59 78 118 c 128,-1,22
 56 177 56 177 56 250 c 0,23,24
 56 352 56 352 95.5 422.5 c 128,-1,25
 135 493 135 493 202.5 529.5 c 128,-1,26
 270 566 270 566 354 566 c 0,27,28
 442 566 442 566 508.5 529.5 c 128,-1,29
 575 493 575 493 613 424.5 c 128,-1,30
 651 356 651 356 651 261 c 0,31,32
 651 190 651 190 626.5 132.5 c 128,-1,33
 602 75 602 75 569 38 c 1,34,-1
 552 62 l 1,35,-1
 814 62 l 1,36,-1
 814 553 l 1,37,38
 819 555 819 555 828.5 557.5 c 128,-1,39
 838 560 838 560 848 560 c 0,40,41
 870 560 870 560 879 550.5 c 128,-1,42
 888 541 888 541 888 518 c 2,43,-1
 888 56 l 2,44,45
 888 30 888 30 874 15 c 128,-1,46
 860 0 860 0 830 0 c 2,47,-1
 540 0 l 2,48,49
 521 0 521 0 507.5 13 c 128,-1,50
 494 26 494 26 494 50 c 1,51,52
 525 79 525 79 550 131 c 128,-1,53
 575 183 575 183 575 259 c 0,54,55
 575 334 575 334 547 388.5 c 128,-1,56
 519 443 519 443 469 472 c 128,-1,57
 419 501 419 501 354 501 c 0,0,1
152 151 m 0,58,59
 152 109 152 109 178 80.5 c 128,-1,60
 204 52 204 52 246 52 c 0,61,62
 287 52 287 52 313.5 80 c 128,-1,63
 340 108 340 108 340 151 c 256,64,65
 340 194 340 194 314 222.5 c 128,-1,66
 288 251 288 251 246 251 c 256,67,68
 204 251 204 251 178 222.5 c 128,-1,69
 152 194 152 194 152 151 c 0,58,59
EndSplineSet
EndChar

StartChar: Agrave
Encoding: 192 192 127
Width: 862
Flags: W
LayerCount: 2
Fore
SplineSet
394 368 m 2,0,1
 394 429 394 429 417.5 473 c 128,-1,2
 441 517 441 517 483.5 541 c 128,-1,3
 526 565 526 565 584 565 c 0,4,5
 647 565 647 565 697 534 c 128,-1,6
 747 503 747 503 776.5 442 c 128,-1,7
 806 381 806 381 806 291 c 0,8,9
 806 200 806 200 770 130.5 c 128,-1,10
 734 61 734 61 685 23 c 0,11,12
 667 9 667 9 653 2.5 c 128,-1,13
 639 -4 639 -4 623 -4 c 0,14,15
 604 -4 604 -4 594.5 7.5 c 128,-1,16
 585 19 585 19 583 35 c 1,17,18
 649 73 649 73 689.5 138 c 128,-1,19
 730 203 730 203 730 291 c 0,20,21
 730 392 730 392 688 446 c 128,-1,22
 646 500 646 500 584 500 c 0,23,24
 529 500 529 500 498.5 464 c 128,-1,25
 468 428 468 428 468 363 c 2,26,-1
 468 190 l 2,27,28
 468 130 468 130 444.5 85.5 c 128,-1,29
 421 41 421 41 378.5 17 c 128,-1,30
 336 -7 336 -7 278 -7 c 0,31,32
 217 -7 217 -7 166.5 24 c 128,-1,33
 116 55 116 55 86 116.5 c 128,-1,34
 56 178 56 178 56 267 c 0,35,36
 56 359 56 359 92 427.5 c 128,-1,37
 128 496 128 496 177 534 c 0,38,39
 195 548 195 548 209 554.5 c 128,-1,40
 223 561 223 561 239 561 c 0,41,42
 258 561 258 561 267.5 549.5 c 128,-1,43
 277 538 277 538 279 522 c 1,44,45
 213 484 213 484 172.5 419.5 c 128,-1,46
 132 355 132 355 132 267 c 0,47,48
 132 166 132 166 174 112 c 128,-1,49
 216 58 216 58 278 58 c 0,50,51
 333 58 333 58 363.5 94.5 c 128,-1,52
 394 131 394 131 394 196 c 2,53,-1
 394 368 l 2,0,1
EndSplineSet
EndChar

StartChar: Aacute
Encoding: 193 193 128
Width: 1228
Flags: W
LayerCount: 2
Fore
SplineSet
546 0 m 2,0,1
 516 0 516 0 502 15 c 128,-1,2
 488 30 488 30 488 56 c 2,3,-1
 488 358 l 2,4,5
 488 422 488 422 514 468 c 128,-1,6
 540 514 540 514 587 539.5 c 128,-1,7
 634 565 634 565 696 565 c 256,8,9
 758 565 758 565 805 539.5 c 128,-1,10
 852 514 852 514 878 468 c 128,-1,11
 904 422 904 422 904 358 c 2,12,-1
 904 265 l 2,13,14
 904 241 904 241 892 228 c 128,-1,15
 880 215 880 215 852 215 c 2,16,-1
 562 215 l 1,17,-1
 562 63 l 1,18,-1
 1068 63 l 1,19,-1
 1068 553 l 1,20,21
 1073 555 1073 555 1082.5 557.5 c 128,-1,22
 1092 560 1092 560 1102 560 c 0,23,24
 1122 560 1122 560 1132 551.5 c 128,-1,25
 1142 543 1142 543 1142 521 c 2,26,-1
 1142 56 l 2,27,28
 1142 30 1142 30 1128 15 c 128,-1,29
 1114 0 1114 0 1084 0 c 2,30,-1
 546 0 l 2,0,1
117 210 m 0,31,32
 95 210 95 210 76 229 c 128,-1,33
 57 248 57 248 45.5 280.5 c 128,-1,34
 34 313 34 313 34 353 c 0,35,36
 34 402 34 402 55 439.5 c 128,-1,37
 76 477 76 477 114.5 498.5 c 128,-1,38
 153 520 153 520 204 520 c 0,39,40
 256 520 256 520 294 499 c 128,-1,41
 332 478 332 478 353 441.5 c 128,-1,42
 374 405 374 405 374 360 c 0,43,44
 374 326 374 326 360.5 296 c 128,-1,45
 347 266 347 266 330 249 c 1,46,-1
 304 276 l 1,47,-1
 502 276 l 1,48,-1
 502 214 l 1,49,-1
 300 214 l 2,50,51
 284 214 284 214 272 225 c 128,-1,52
 260 236 260 236 260 257 c 1,53,54
 277 271 277 271 289 296.5 c 128,-1,55
 301 322 301 322 301 356 c 0,56,57
 301 397 301 397 276.5 427 c 128,-1,58
 252 457 252 457 204 457 c 256,59,60
 156 457 156 457 131.5 426 c 128,-1,61
 107 395 107 395 107 353 c 0,62,63
 107 310 107 310 122 283.5 c 128,-1,64
 137 257 137 257 154 243 c 1,65,66
 153 230 153 230 143 220 c 128,-1,67
 133 210 133 210 117 210 c 0,31,32
562 277 m 1,68,-1
 830 277 l 1,69,-1
 830 357 l 2,70,71
 830 426 830 426 793.5 463 c 128,-1,72
 757 500 757 500 696 500 c 256,73,74
 635 500 635 500 598.5 463 c 128,-1,75
 562 426 562 426 562 358 c 2,76,-1
 562 277 l 1,68,-1
EndSplineSet
EndChar

StartChar: Acircumflex
Encoding: 194 194 129
Width: 858
Flags: W
LayerCount: 2
Fore
SplineSet
231 62 m 2,0,1
 277 62 277 62 314 81 c 128,-1,2
 351 100 351 100 372.5 134.5 c 128,-1,3
 394 169 394 169 394 214 c 0,4,5
 394 264 394 264 369 296.5 c 128,-1,6
 344 329 344 329 296 329 c 0,7,8
 250 329 250 329 226 302 c 128,-1,9
 202 275 202 275 202 234 c 0,10,11
 202 203 202 203 210 178 c 1,12,13
 205 173 205 173 196 169.5 c 128,-1,14
 187 166 187 166 174 166 c 0,15,16
 153 166 153 166 140 181.5 c 128,-1,17
 127 197 127 197 127 235 c 0,18,19
 127 281 127 281 147 316.5 c 128,-1,20
 167 352 167 352 204.5 373 c 128,-1,21
 242 394 242 394 296 394 c 0,22,23
 353 394 353 394 391.5 371 c 128,-1,24
 430 348 430 348 450 308.5 c 128,-1,25
 470 269 470 269 470 218 c 0,26,27
 470 154 470 154 434.5 107 c 128,-1,28
 399 60 399 60 346 41 c 1,29,-1
 344 62 l 1,30,-1
 698 62 l 1,31,-1
 698 553 l 1,32,33
 704 556 704 556 714.5 558 c 128,-1,34
 725 560 725 560 732 560 c 0,35,36
 754 560 754 560 763 550.5 c 128,-1,37
 772 541 772 541 772 518 c 2,38,-1
 772 56 l 2,39,40
 772 30 772 30 758 15 c 128,-1,41
 744 0 744 0 714 0 c 2,42,-1
 61 0 l 2,43,44
 45 0 45 0 34.5 6.5 c 128,-1,45
 24 13 24 13 24 32 c 0,46,47
 24 40 24 40 27 49 c 128,-1,48
 30 58 30 58 34 62 c 1,49,-1
 231 62 l 2,0,1
EndSplineSet
EndChar

StartChar: Atilde
Encoding: 195 195 130
Width: 1238
Flags: W
LayerCount: 2
Fore
SplineSet
202 234 m 0,0,1
 202 203 202 203 210 178 c 1,2,3
 205 173 205 173 196 169.5 c 128,-1,4
 187 166 187 166 174 166 c 0,5,6
 153 166 153 166 140 181.5 c 128,-1,7
 127 197 127 197 127 235 c 0,8,9
 127 281 127 281 147 316.5 c 128,-1,10
 167 352 167 352 204.5 373 c 128,-1,11
 242 394 242 394 296 394 c 0,12,13
 353 394 353 394 391.5 371 c 128,-1,14
 430 348 430 348 450 308.5 c 128,-1,15
 470 269 470 269 470 218 c 0,16,17
 470 154 470 154 434.5 107 c 128,-1,18
 399 60 399 60 346 41 c 1,19,-1
 344 62 l 1,20,-1
 698 62 l 1,21,-1
 669 38 l 1,22,23
 636 75 636 75 611.5 133 c 128,-1,24
 587 191 587 191 587 261 c 0,25,26
 587 358 587 358 624.5 426 c 128,-1,27
 662 494 662 494 729 530.5 c 128,-1,28
 796 567 796 567 883 567 c 0,29,30
 974 567 974 567 1041 525.5 c 128,-1,31
 1108 484 1108 484 1145 411 c 128,-1,32
 1182 338 1182 338 1182 243 c 0,33,34
 1182 155 1182 155 1157.5 99.5 c 128,-1,35
 1133 44 1133 44 1092 17.5 c 128,-1,36
 1051 -9 1051 -9 1000 -9 c 0,37,38
 948 -9 948 -9 910.5 13 c 128,-1,39
 873 35 873 35 853 75.5 c 128,-1,40
 833 116 833 116 833 169 c 0,41,42
 833 244 833 244 866 298 c 128,-1,43
 899 352 899 352 953.5 383.5 c 128,-1,44
 1008 415 1008 415 1073 422 c 1,45,-1
 1119 369 l 1,46,47
 1011 362 1011 362 959.5 306.5 c 128,-1,48
 908 251 908 251 908 169 c 0,49,50
 908 117 908 117 933 86.5 c 128,-1,51
 958 56 958 56 1001 56 c 0,52,53
 1051 56 1051 56 1078.5 104.5 c 128,-1,54
 1106 153 1106 153 1106 244 c 0,55,56
 1106 293 1106 293 1098.5 327.5 c 128,-1,57
 1091 362 1091 362 1082 381 c 2,58,-1
 1066 412 l 1,59,60
 1035 456 1035 456 989.5 479 c 128,-1,61
 944 502 944 502 883 502 c 0,62,63
 818 502 818 502 768.5 473 c 128,-1,64
 719 444 719 444 691 390 c 128,-1,65
 663 336 663 336 663 259 c 0,66,67
 663 183 663 183 688 131 c 128,-1,68
 713 79 713 79 744 50 c 1,69,70
 744 26 744 26 731 13 c 128,-1,71
 718 0 718 0 698 0 c 2,72,-1
 61 0 l 2,73,74
 45 0 45 0 34.5 6.5 c 128,-1,75
 24 13 24 13 24 32 c 0,76,77
 24 40 24 40 27 49 c 128,-1,78
 30 58 30 58 34 62 c 1,79,-1
 231 62 l 2,80,81
 277 62 277 62 314 81 c 128,-1,82
 351 100 351 100 372.5 134.5 c 128,-1,83
 394 169 394 169 394 214 c 0,84,85
 394 264 394 264 369 296.5 c 128,-1,86
 344 329 344 329 296 329 c 0,87,88
 250 329 250 329 226 302 c 128,-1,89
 202 275 202 275 202 234 c 0,0,1
EndSplineSet
EndChar

StartChar: Adieresis
Encoding: 196 196 131
Width: 890
Flags: W
LayerCount: 2
Fore
SplineSet
530 184 m 1,0,1
 523 177 523 177 514 174 c 128,-1,2
 505 171 505 171 493 171 c 256,3,4
 481 171 481 171 472 174.5 c 128,-1,5
 463 178 463 178 456 184 c 1,6,-1
 456 331 l 2,7,8
 456 408 456 408 413 454 c 128,-1,9
 370 500 370 500 292 500 c 0,10,11
 217 500 217 500 177 465 c 128,-1,12
 137 430 137 430 123 381 c 1,13,-1
 126 380 l 1,14,15
 137 395 137 395 161 410 c 128,-1,16
 185 425 185 425 220 425 c 0,17,18
 279 425 279 425 315 385.5 c 128,-1,19
 351 346 351 346 351 287 c 0,20,21
 351 223 351 223 309.5 184.5 c 128,-1,22
 268 146 268 146 202 146 c 256,23,24
 136 146 136 146 93.5 191.5 c 128,-1,25
 51 237 51 237 51 321 c 0,26,27
 51 393 51 393 80.5 447.5 c 128,-1,28
 110 502 110 502 164 533 c 128,-1,29
 218 564 218 564 292 564 c 0,30,31
 355 564 355 564 403.5 539.5 c 128,-1,32
 452 515 452 515 480 471 c 128,-1,33
 508 427 508 427 508 370 c 1,34,-1
 475 387 l 1,35,36
 475 446 475 446 498.5 485 c 128,-1,37
 522 524 522 524 560.5 544 c 128,-1,38
 599 564 599 564 642 564 c 0,39,40
 700 564 700 564 744.5 538 c 128,-1,41
 789 512 789 512 814 461.5 c 128,-1,42
 839 411 839 411 839 337 c 0,43,44
 839 248 839 248 808.5 189 c 128,-1,45
 778 130 778 130 731 98 c 128,-1,46
 684 66 684 66 633 58 c 1,47,-1
 592 45 l 2,48,49
 563 39 563 39 530 35.5 c 128,-1,50
 497 32 497 32 460 30.5 c 128,-1,51
 423 29 423 29 381 29 c 2,52,-1
 203 29 l 2,53,54
 169 29 169 29 148.5 12 c 128,-1,55
 128 -5 128 -5 128 -34 c 0,56,57
 128 -68 128 -68 153 -87.5 c 128,-1,58
 178 -107 178 -107 233 -107 c 0,59,60
 295 -107 295 -107 359 -84.5 c 128,-1,61
 423 -62 423 -62 480 -27 c 128,-1,62
 537 8 537 8 578 43 c 0,63,64
 597 61 597 61 613.5 72.5 c 128,-1,65
 630 84 630 84 643 90 c 128,-1,66
 656 96 656 96 666 98.5 c 128,-1,67
 676 101 676 101 682 101.5 c 128,-1,68
 688 102 688 102 690 102 c 0,69,70
 737 102 737 102 769 85 c 128,-1,71
 801 68 801 68 818 39 c 128,-1,72
 835 10 835 10 835 -28 c 0,73,74
 835 -88 835 -88 797.5 -129 c 128,-1,75
 760 -170 760 -170 689 -170 c 0,76,77
 642 -170 642 -170 610.5 -150.5 c 128,-1,78
 579 -131 579 -131 564.5 -98 c 128,-1,79
 550 -65 550 -65 552 -27 c 1,80,81
 552 -27 552 -27 556.5 -14 c 128,-1,82
 561 -1 561 -1 569 6 c 1,83,-1
 601 -15 l 1,84,-1
 570 -30 l 1,85,86
 549 -49 549 -49 515 -73 c 128,-1,87
 481 -97 481 -97 436 -119 c 128,-1,88
 391 -141 391 -141 339 -155 c 128,-1,89
 287 -169 287 -169 231 -169 c 0,90,91
 177 -169 177 -169 137.5 -154 c 128,-1,92
 98 -139 98 -139 76.5 -108.5 c 128,-1,93
 55 -78 55 -78 55 -34 c 0,94,95
 55 6 55 6 73.5 33.5 c 128,-1,96
 92 61 92 61 124.5 75.5 c 128,-1,97
 157 90 157 90 200 90 c 2,98,-1
 543 90 l 2,99,100
 644 90 644 90 703.5 152 c 128,-1,101
 763 214 763 214 763 337 c 0,102,103
 763 416 763 416 729 457.5 c 128,-1,104
 695 499 695 499 640 499 c 0,105,106
 590 499 590 499 560 465.5 c 128,-1,107
 530 432 530 432 530 371 c 2,108,-1
 530 332 l 1,109,-1
 530 184 l 1,0,1
202 365 m 0,110,111
 168 365 168 365 146.5 343 c 128,-1,112
 125 321 125 321 125 286 c 256,113,114
 125 251 125 251 146.5 229 c 128,-1,115
 168 207 168 207 202 207 c 0,116,117
 237 207 237 207 258 229 c 128,-1,118
 279 251 279 251 279 286 c 256,119,120
 279 321 279 321 258 343 c 128,-1,121
 237 365 237 365 202 365 c 0,110,111
688 -113 m 0,122,123
 724 -113 724 -113 745 -89 c 128,-1,124
 766 -65 766 -65 766 -28 c 0,125,126
 766 6 766 6 745 29.5 c 128,-1,127
 724 53 724 53 688 53 c 0,128,129
 651 53 651 53 630 29.5 c 128,-1,130
 609 6 609 6 609 -29 c 0,131,132
 609 -66 609 -66 630 -89.5 c 128,-1,133
 651 -113 651 -113 688 -113 c 0,122,123
EndSplineSet
EndChar

StartChar: Aring
Encoding: 197 197 132
Width: 1566
Flags: W
LayerCount: 2
Fore
SplineSet
1132 169 m 1,0,1
 1132 112 1132 112 1108 72.5 c 128,-1,2
 1084 33 1084 33 1044.5 13 c 128,-1,3
 1005 -7 1005 -7 960 -7 c 0,4,5
 906 -7 906 -7 864.5 16 c 128,-1,6
 823 39 823 39 800 82.5 c 128,-1,7
 777 126 777 126 777 185 c 2,8,-1
 777 325 l 2,9,10
 777 381 777 381 754.5 421 c 128,-1,11
 732 461 732 461 693.5 482.5 c 128,-1,12
 655 504 655 504 606 504 c 0,13,14
 579 504 579 504 550 498 c 128,-1,15
 521 492 521 492 500 477 c 2,16,17
 500 477 500 477 496.5 474.5 c 128,-1,18
 493 472 493 472 489.5 469 c 128,-1,19
 486 466 486 466 486 466 c 1,20,21
 443 438 443 438 409 374.5 c 128,-1,22
 375 311 375 311 375 218 c 0,23,24
 375 145 375 145 401 100.5 c 128,-1,25
 427 56 427 56 475 56 c 256,26,27
 523 56 523 56 549 100.5 c 128,-1,28
 575 145 575 145 575 218 c 0,29,30
 575 311 575 311 541 374.5 c 128,-1,31
 507 438 507 438 464 466 c 1,32,33
 464 466 464 466 460.5 469 c 128,-1,34
 457 472 457 472 453.5 474.5 c 128,-1,35
 450 477 450 477 450 477 c 2,36,37
 428 492 428 492 398 498 c 128,-1,38
 368 504 368 504 339 504 c 0,39,40
 278 504 278 504 231 474.5 c 128,-1,41
 184 445 184 445 158 389.5 c 128,-1,42
 132 334 132 334 132 257 c 0,43,44
 132 199 132 199 147.5 154.5 c 128,-1,45
 163 110 163 110 186 79.5 c 128,-1,46
 209 49 209 49 230 32 c 1,47,48
 228 16 228 16 217.5 6 c 128,-1,49
 207 -4 207 -4 191 -4 c 0,50,51
 174 -4 174 -4 158 7 c 128,-1,52
 142 18 142 18 127 36 c 0,53,54
 97 71 97 71 76.5 130.5 c 128,-1,55
 56 190 56 190 56 257 c 0,56,57
 56 356 56 356 91.5 424.5 c 128,-1,58
 127 493 127 493 189.5 528.5 c 128,-1,59
 252 564 252 564 333 564 c 0,60,61
 382 564 382 564 422 550.5 c 128,-1,62
 462 537 462 537 491 516 c 0,63,64
 495 514 495 514 500.5 509.5 c 128,-1,65
 506 505 506 505 510.5 502 c 128,-1,66
 515 499 515 499 515 499 c 2,67,68
 576 456 576 456 613.5 383 c 128,-1,69
 651 310 651 310 651 218 c 0,70,71
 651 111 651 111 604.5 51 c 128,-1,72
 558 -9 558 -9 475 -9 c 256,73,74
 392 -9 392 -9 345.5 51 c 128,-1,75
 299 111 299 111 299 218 c 0,76,77
 299 310 299 310 336.5 383 c 128,-1,78
 374 456 374 456 435 499 c 1,79,80
 435 499 435 499 438.5 502 c 128,-1,81
 442 505 442 505 447.5 509 c 128,-1,82
 453 513 453 513 459 516 c 0,83,84
 487 537 487 537 526.5 550.5 c 128,-1,85
 566 564 566 564 612 564 c 0,86,87
 680 564 680 564 734 538 c 128,-1,88
 788 512 788 512 819.5 461 c 128,-1,89
 851 410 851 410 851 335 c 2,90,-1
 851 192 l 2,91,92
 851 128 851 128 881 93 c 128,-1,93
 911 58 911 58 962 58 c 0,94,95
 1015 58 1015 58 1046.5 93.5 c 128,-1,96
 1078 129 1078 129 1078 193 c 2,97,-1
 1078 552 l 1,98,99
 1083 554 1083 554 1092.5 556.5 c 128,-1,100
 1102 559 1102 559 1112 559 c 0,101,102
 1135 559 1135 559 1143.5 549 c 128,-1,103
 1152 539 1152 539 1152 517 c 2,104,-1
 1152 197 l 2,105,106
 1152 131 1152 131 1185.5 94.5 c 128,-1,107
 1219 58 1219 58 1275 58 c 0,108,109
 1343 58 1343 58 1388.5 112.5 c 128,-1,110
 1434 167 1434 167 1434 272 c 0,111,112
 1434 358 1434 358 1396.5 421 c 128,-1,113
 1359 484 1359 484 1297 522 c 1,114,115
 1299 538 1299 538 1308.5 549.5 c 128,-1,116
 1318 561 1318 561 1337 561 c 0,117,118
 1353 561 1353 561 1368 554 c 128,-1,119
 1383 547 1383 547 1400 532 c 0,120,121
 1445 494 1445 494 1477.5 428 c 128,-1,122
 1510 362 1510 362 1510 272 c 256,123,124
 1510 182 1510 182 1479.5 120 c 128,-1,125
 1449 58 1449 58 1396.5 25.5 c 128,-1,126
 1344 -7 1344 -7 1277 -7 c 0,127,128
 1230 -7 1230 -7 1188.5 14 c 128,-1,129
 1147 35 1147 35 1122 75 c 128,-1,130
 1097 115 1097 115 1097 173 c 1,131,-1
 1132 169 l 1,0,1
EndSplineSet
EndChar

